<?xml version="1.0" encoding="UTF-8"?>
<svg width="298px" height="146px" viewBox="0 0 298 146" version="1.1" xmlns="http://www.w3.org/2000/svg" xmlns:xlink="http://www.w3.org/1999/xlink">
    <!-- Generator: Sketch 58 (84663) - https://sketch.com -->
    <title>Group Copy</title>
    <desc>Created with Sketch.</desc>
    <g id="Mobile-SPLASH" stroke="none" stroke-width="1" fill="none" fill-rule="evenodd">
        <g id="mobile-splash" transform="translate(-39.000000, 0.000000)" fill="#009DE0">
            <g id="Group-Copy" transform="translate(39.000000, -41.000000)">
                <polygon id="Rectangle-2" points="0 0 21.8938776 0 21.8938776 187 0 187"></polygon>
                <polygon id="Rectangle-2-Copy" points="46.2204082 0 68.1142857 0 68.1142857 187 46.2204082 187"></polygon>
                <polygon id="Rectangle-2-Copy-2" points="92.4408163 0 114.334694 0 114.334694 187 92.4408163 187"></polygon>
                <polygon id="Rectangle-2-Copy-3" points="137.444898 0 159.338776 0 159.338776 187 137.444898 187"></polygon>
                <polygon id="Rectangle-2-Copy-4" points="183.665306 0 205.559184 0 205.559184 187 183.665306 187"></polygon>
                <polygon id="Rectangle-2-Copy-5" points="229.885714 0 251.779592 0 251.779592 187 229.885714 187"></polygon>
                <polygon id="Rectangle-2-Copy-6" points="276.106122 0 298 0 298 187 276.106122 187"></polygon>
            </g>
        </g>
    </g>
</svg>