<svg height="339" viewBox="0 0 265 339" width="265" xmlns="http://www.w3.org/2000/svg"><g fill="none" fill-rule="evenodd" transform="translate(4 3)"><path d="m168.700329.25141243 88.299671 332.99999957h-30.749726l-13.541163-18.641221h-89.710209l-3.103183 18.641221h-29.9034029l-89.9923161-332.99999957z" fill="#fff" stroke="#000" stroke-width="5"/><path d="m0 333.251412v-332.99999957h167v332.99999957h-30.978078l-8.166947-19.206106h-90.399663l-7.8853289 19.206106z" fill="#fff" stroke="#000" stroke-width="5"/><path d="m35.9425 151.251412 12.087-36.414h-8.262l-8.211 25.602h-.102l-8.109-25.602h-8.211l11.781 36.414zm21.624-18.054c0-1.598008.1784982-3.144992.5355-4.641.3570018-1.496007.9264961-2.830494 1.7085-4.0035.7820039-1.173005 1.8019937-2.107996 3.06-2.805 1.2580063-.697003 2.787991-1.0455 4.59-1.0455s3.3319937.348497 4.59 1.0455c1.2580063.697004 2.2779961 1.631995 3.06 2.805.7820039 1.173006 1.3514982 2.507493 1.7085 4.0035.3570018 1.496008.5355 3.042992.5355 4.641 0 1.530008-.1784982 3.017493-.5355 4.4625-.3570018 1.445008-.9264961 2.745495-1.7085 3.9015-.7820039 1.156006-1.8019937 2.082497-3.06 2.7795-1.2580063.697004-2.787991 1.0455-4.59 1.0455s-3.3319937-.348496-4.59-1.0455c-1.2580063-.697003-2.2779961-1.623494-3.06-2.7795-.7820039-1.156005-1.3514982-2.456492-1.7085-3.9015-.3570018-1.445007-.5355-2.932492-.5355-4.4625zm-8.007 0c0 2.652014.4079959 5.125489 1.224 7.4205.8160041 2.295012 1.9889924 4.292492 3.519 5.9925 1.5300077 1.700009 3.4084889 3.034496 5.6355 4.0035 2.2270111.969005 4.7344861 1.4535 7.5225 1.4535 2.8220141 0 5.337989-.484495 7.548-1.4535 2.2100111-.969004 4.0799924-2.303491 5.61-4.0035 1.5300076-1.700008 2.7029959-3.697488 3.519-5.9925.8160041-2.295011 1.224-4.768486 1.224-7.4205 0-2.720013-.4079959-5.244488-1.224-7.5735-.8160041-2.329011-1.9889924-4.360491-3.519-6.0945-1.5300076-1.734008-3.3999889-3.093995-5.61-4.08-2.210011-.986005-4.7259859-1.479-7.548-1.479-2.7880139 0-5.2954889.492995-7.5225 1.479s-4.1054923 2.345992-5.6355 4.08c-1.5300076 1.734009-2.7029959 3.765489-3.519 6.0945-.8160041 2.329012-1.224 4.853487-1.224 7.5735zm49.317-11.628v29.682h8.007v-29.682h10.914v-6.732h-29.835v6.732zm23.103-6.732v36.414h27.642v-6.732h-19.635v-8.925h17.646v-6.222h-17.646v-7.803h19.227v-6.732zm-105.315 50v36.414h8.007v-15.708h14.739v15.708h8.007v-36.414h-8.007v13.974h-14.739v-13.974zm37.791 0v36.414h27.642v-6.732h-19.635v-8.925h17.646v-6.222h-17.646v-7.803h19.227v-6.732zm41.055 16.473v-10.251h8.772c1.836009 0 3.212995.399496 4.131 1.1985s1.377 2.082492 1.377 3.8505c0 1.83601-.458995 3.161996-1.377 3.978-.918005.816005-2.294991 1.224-4.131 1.224zm-8.007-16.473v36.414h8.007v-14.229h8.007c2.00601 0 3.450996.441996 4.335 1.326.884004.884005 1.461999 2.277991 1.734 4.182.204001 1.462008.356999 2.991992.459 4.59s.373998 2.974995.816 4.131h8.007c-.374002-.510002-.654499-1.130496-.8415-1.8615-.187001-.731003-.323-1.504495-.408-2.3205-.085-.816004-.1445-1.614996-.1785-2.397l-.068-1.427999c-.011333-.215333-.022667-.419333-.034-.612001-.068-.918004-.195499-1.835995-.3825-2.754-.187001-.918004-.484498-1.759496-.8925-2.5245-.408002-.765003-.934997-1.427997-1.581-1.989-.646003-.561002-1.461995-.977498-2.448-1.2495v-.102c2.04001-.816004 3.510495-2.005992 4.4115-3.57.901005-1.564007 1.3515-3.416989 1.3515-5.559 0-1.394007-.246498-2.694494-.7395-3.9015s-1.206995-2.269495-2.142-3.1875c-.935005-.918004-2.056993-1.640497-3.366-2.1675-1.309007-.527002-2.779492-.7905-4.4115-.7905zm36.822 0h27.234v6.732h-19.227v7.803h17.646v6.222h-17.646v8.925h19.635v6.732h-27.642z" fill="#000" fill-rule="nonzero"/><path d="m12 45.251412h140v46h-140z" fill="#009de0"/><path d="m12 218.251412h140v46h-140z" fill="#f2705e"/></g></svg>