<svg xmlns="http://www.w3.org/2000/svg" height="339" width="265" fill-rule="evenodd"><g fill="#fff" stroke="#000" stroke-width="5"><path d="M172.7 3.25l88.3 333h-30.75l-13.54-18.64H127l-3.103 18.64H93.992L4 3.25z"/><path d="M4 336.25v-333h167v333h-30.978l-8.167-19.206h-90.4L33.57 336.25z"/></g><path d="M39.943 154.25l12.087-36.414h-8.262l-8.21 25.602h-.102l-8.11-25.602h-8.21l11.78 36.414zm21.624-18.054c0-1.598.178-3.145.535-4.64s.926-2.83 1.71-4.003 1.802-2.108 3.06-2.805 2.788-1.046 4.6-1.046 3.332.348 4.6 1.046 2.278 1.632 3.06 2.805 1.35 2.507 1.71 4.003.535 3.043.535 4.64c0 1.53-.178 3.017-.535 4.462s-.926 2.745-1.71 3.9-1.802 2.082-3.06 2.78-2.788 1.046-4.6 1.046-3.332-.348-4.6-1.046-2.278-1.623-3.06-2.78-1.35-2.456-1.71-3.9-.535-2.932-.535-4.462zm-8.007 0c0 2.652.408 5.125 1.224 7.42s1.99 4.292 3.52 5.993 3.408 3.034 5.636 4.004 4.734 1.453 7.522 1.453c2.822 0 5.338-.484 7.548-1.453s4.08-2.303 5.6-4.004 2.703-3.697 3.52-5.993 1.224-4.768 1.224-7.42c0-2.72-.408-5.244-1.224-7.573s-1.99-4.36-3.52-6.095-3.4-3.094-5.6-4.08-4.726-1.48-7.548-1.48c-2.788 0-5.295.493-7.522 1.48s-4.105 2.346-5.635 4.08-2.703 3.765-3.52 6.095-1.224 4.853-1.224 7.573zm49.317-11.628v29.682h8.007V124.57h10.914v-6.732H91.963v6.732zm23.103-6.732v36.414h27.642v-6.732h-19.635v-8.925h17.646v-6.222h-17.646v-7.803h19.227v-6.732zm-105.315 50v36.414h8.007v-15.708h14.74v15.708h8.007v-36.414H43.41v13.974h-14.74v-13.974zm37.79 0v36.414h27.642v-6.732H66.463v-8.925H84.11v-6.222H66.463v-7.803H85.7v-6.732zM99.51 184.3v-10.25h8.772c1.836 0 3.213.4 4.13 1.198s1.377 2.082 1.377 3.85c0 1.836-.46 3.162-1.377 3.978s-2.295 1.224-4.13 1.224zm-8.007-16.473v36.414h8.007v-14.23h8.007c2.006 0 3.45.442 4.335 1.326s1.462 2.278 1.734 4.182l.46 4.6c.102 1.598.374 2.975.816 4.13h8.007c-.374-.5-.654-1.13-.84-1.86a16.08 16.08 0 0 1-.408-2.321l-.178-2.397-.068-1.428-.034-.612c-.068-.918-.195-1.836-.382-2.754a9.26 9.26 0 0 0-.892-2.524 6.93 6.93 0 0 0-1.581-1.989c-.646-.56-1.462-.977-2.448-1.25v-.102c2.04-.816 3.5-2.006 4.412-3.57s1.352-3.417 1.352-5.56c0-1.394-.246-2.694-.74-3.9a9.41 9.41 0 0 0-2.142-3.187c-.935-.918-2.057-1.64-3.366-2.167s-2.78-.79-4.412-.79zm36.822 0h27.234v6.732h-19.227v7.803h17.646v6.222h-17.646v8.925h19.635v6.732h-27.642z" fill="#000" fill-rule="nonzero"/><path d="M16 48.25h140v46H16z" fill="#009de0"/><path d="M16 221.25h140v46H16z" fill="#f2705e"/></svg>