<svg xmlns="http://www.w3.org/2000/svg" width="442" height="151" fill-rule="evenodd"><path d="M37 0C16.565 0 0 16.565 0 37v57c0 20.435 16.565 37 37 37h351c2.86 0 5.642-.324 8.314-.938L442 151l-28.427-30.26C420.615 114.004 425 104.514 425 94V37c0-20.435-16.565-37-37-37H37z" fill="#f8d705"/><path d="M50.27 34.82v-.014c1.51-.567 2.48-1.887 2.48-3.7 0-2.543-1.915-4.205-4.94-4.205h-7.302V43h7.44c3.084 0 5.05-1.677 5.05-4.277 0-1.903-1.06-3.325-2.728-3.904zm-3.303-4.893c1.227 0 1.95.674 1.95 1.764s-.724 1.76-1.95 1.76H44.2v-3.525h2.765zm.012 10.052H44.2v-3.86h2.792c1.327 0 2.145.723 2.145 1.922 0 1.14-.74 1.87-1.98 1.935l-.18.005zM65.06 31.5v6.03c0 1.595-.9 2.605-2.33 2.605-1.272 0-2.023-.8-2.023-2.177V31.5H57.02v7.182c0 2.806 1.623 4.548 4.196 4.548 1.838 0 3.178-.895 3.83-2.44l.015.002V43h3.665V31.5H65.06zM74.48 43h3.612v-8.554h3.027V31.5h-3.027v-3.378H74.97l-.083 1.637c-.066 1.326-.58 1.934-1.712 2.02l-.76.058v2.608h2.067V43zm26.874-11.73c-1.83 0-3.208.88-3.926 2.44l-.044-.008v-2.2H93.72v17.48h3.665V40.8l.045-.008c.71 1.544 2.074 2.44 3.925 2.44 3.135 0 5.55-2.53 5.55-5.97 0-3.345-2.284-5.87-5.33-5.985l-.22-.005zm-1.153 8.873c-1.716 0-2.927-1.204-2.927-2.893s1.213-2.892 2.93-2.892c1.71 0 2.918 1.204 2.918 2.892 0 1.634-1.125 2.806-2.74 2.888l-.18.005zm18.013-8.873c-2.017 0-3.253 1.255-3.82 3.885l-.02-.002V31.5h-3.52V43h3.665v-3.974c0-2.602 1.008-4.1 3.475-4.1l.4.002.42.015v-3.656l-.406-.023-.193-.003zm9.993 11.96c3.856 0 6.548-2.467 6.548-5.98s-2.69-5.98-6.548-5.98-6.548 2.467-6.548 5.98 2.692 5.98 6.548 5.98zm0-3.05c-1.68 0-2.872-1.212-2.872-2.928s1.192-2.928 2.872-2.928 2.872 1.212 2.872 2.928-1.192 2.928-2.872 2.928zm18.188-8.91c-1.83 0-3.208.88-3.926 2.44l-.04-.008v-7.26h-3.665V43h3.665v-2.2l.042-.008c.71 1.544 2.074 2.44 3.925 2.44 3.136 0 5.55-2.53 5.55-5.97 0-3.345-2.284-5.87-5.33-5.985l-.22-.005zm-1.153 8.873c-1.716 0-2.927-1.204-2.927-2.893s1.213-2.892 2.93-2.892c1.71 0 2.918 1.204 2.918 2.892 0 1.634-1.125 2.806-2.74 2.888l-.18.005zM164.8 31.5v2.202l-.038.007c-.718-1.558-2.095-2.44-3.926-2.44-3.156 0-5.55 2.565-5.55 5.99 0 3.442 2.415 5.97 5.55 5.97 1.85 0 3.214-.895 3.925-2.44l.04.007V43h3.674V31.5H164.8zm-2.812 8.642c-1.71 0-2.92-1.198-2.92-2.893 0-1.69 1.207-2.892 2.918-2.892 1.716 0 2.93 1.2 2.93 2.892s-1.21 2.893-2.927 2.893zm18.838-8.872c-1.83 0-3.208.88-3.926 2.44l-.04-.008v-7.26h-3.665V43h3.665v-2.2l.042-.008c.71 1.544 2.074 2.44 3.925 2.44 3.136 0 5.55-2.53 5.55-5.97 0-3.345-2.284-5.87-5.33-5.985l-.22-.005zm-1.153 8.873c-1.716 0-2.927-1.204-2.927-2.893s1.213-2.892 2.93-2.892c1.71 0 2.918 1.204 2.918 2.892 0 1.634-1.125 2.806-2.74 2.888l-.18.005zM190.398 43h3.665V26.44h-3.665V43zm16.665-11.5v5.718c0 1.587-.9 2.596-2.33 2.596-1.272 0-2.023-.8-2.023-2.177V31.5h-3.73v6.863c0 2.79 1.58 4.548 4.282 4.548 1.9 0 3.247-.868 3.86-2.395l.03.005v3.004c0 1.674-1.193 2.73-3.147 2.73-1.962 0-3.188-1.064-3.156-2.724h-3.54c-.023 3.3 2.645 5.678 6.727 5.678 3.944 0 6.69-2.212 6.69-5.687V31.5h-3.665zm10.808 7.084c-1.577 0-2.646 1-2.646 2.34 0 1.16.896 2.104 2.2 2.104.55 0 1.02-.16 1.352-.427-.308 1.243-1.46 1.808-3.3 1.593v1.544c3.29.43 5.24-1.146 5.24-3.915 0-1.996-1.053-3.154-2.672-3.234l-.182-.004zm25.026-7.084v5.718c0 1.587-.9 2.596-2.33 2.596-1.272 0-2.023-.8-2.023-2.177V31.5h-3.73v6.863c0 2.79 1.58 4.548 4.282 4.548 1.9 0 3.247-.868 3.86-2.395l.03.005v3.004c0 1.674-1.193 2.73-3.147 2.73-1.962 0-3.188-1.064-3.156-2.724h-3.54c-.023 3.3 2.645 5.678 6.727 5.678 3.944 0 6.69-2.212 6.69-5.687V31.5h-3.665zm14.11 11.73c3.856 0 6.548-2.467 6.548-5.98s-2.69-5.98-6.548-5.98-6.548 2.467-6.548 5.98 2.692 5.98 6.548 5.98zm0-3.05c-1.68 0-2.872-1.212-2.872-2.928s1.192-2.928 2.872-2.928 2.872 1.212 2.872 2.928-1.192 2.928-2.872 2.928zm18.296-8.68v6.03c0 1.595-.9 2.605-2.33 2.605-1.272 0-2.023-.8-2.023-2.177V31.5h-3.688v7.182c0 2.806 1.623 4.548 4.196 4.548 1.838 0 3.178-.895 3.83-2.44l.015.002V43h3.665V31.5h-3.665zm24.633-.23c-1.838 0-3.178.895-3.83 2.44h-.01v-7.27h-3.668L292.427 43h3.67v-6.238c.077-1.473.968-2.395 2.326-2.395 1.272 0 2.023.8 2.023 2.177V43h3.688v-7.182c0-2.724-1.53-4.445-3.97-4.544l-.225-.005zm17.422.23v2.202l-.038.007c-.718-1.558-2.095-2.44-3.926-2.44-3.156 0-5.55 2.565-5.55 5.99 0 3.442 2.415 5.97 5.55 5.97 1.85 0 3.214-.895 3.925-2.44l.04.007V43h3.674V31.5h-3.674zm-2.812 8.642c-1.71 0-2.92-1.198-2.92-2.893 0-1.69 1.207-2.892 2.918-2.892 1.716 0 2.93 1.2 2.93 2.892s-1.21 2.893-2.927 2.893zM329.237 43h3.866l4.666-11.5h-3.923l-2.618 8.062h-.092l-2.618-8.062h-3.946l4.666 11.5zm19.935-4.735c-.163 1.164-1.222 1.94-2.617 1.94-1.63 0-2.737-1.052-2.847-2.873h8.92c.154-3.77-2.282-6.06-6.08-6.06-3.76 0-6.363 2.458-6.363 5.96 0 3.487 2.582 6 6.45 6 3.428 0 6.044-1.957 6.27-4.965h-3.732zm-2.653-4.406c1.173 0 2.012.533 2.386 1.48h-4.866c.4-.868 1.184-1.412 2.273-1.473l.208-.006zM49.214 61.5v5.718c0 1.587-.9 2.596-2.33 2.596-1.272 0-2.023-.8-2.023-2.177V61.5h-3.73v6.863c0 2.79 1.58 4.548 4.282 4.548 1.9 0 3.247-.868 3.86-2.395l.03.005v3.004c0 1.674-1.193 2.73-3.147 2.73-1.962 0-3.188-1.064-3.156-2.724h-3.54c-.023 3.3 2.645 5.678 6.727 5.678 3.944 0 6.69-2.212 6.69-5.687V61.5h-3.665zm14.11 11.73c3.856 0 6.548-2.467 6.548-5.98s-2.69-5.98-6.548-5.98-6.548 2.467-6.548 5.98 2.692 5.98 6.548 5.98zm0-3.05c-1.68 0-2.872-1.212-2.872-2.928s1.192-2.928 2.872-2.928 2.872 1.212 2.872 2.928-1.192 2.928-2.872 2.928zM81.62 61.5v6.03c0 1.595-.9 2.605-2.33 2.605-1.272 0-2.023-.8-2.023-2.177V61.5H73.58v7.182c0 2.806 1.623 4.548 4.196 4.548 1.838 0 3.178-.895 3.83-2.44l.015.002V73h3.665V61.5H81.62zm15.64-.23c-2.017 0-3.253 1.255-3.82 3.885l-.02-.002V61.5H89.9V73h3.665v-3.974c0-2.602 1.008-4.1 3.475-4.1l.4.002.42.015v-3.656l-.406-.023-.193-.003zm19.33 11.96c3.856 0 6.548-2.467 6.548-5.98s-2.69-5.98-6.548-5.98-6.548 2.467-6.548 5.98 2.692 5.98 6.548 5.98zm0-3.05c-1.68 0-2.872-1.212-2.872-2.928s1.192-2.928 2.872-2.928 2.872 1.212 2.872 2.928-1.192 2.928-2.872 2.928zM129.626 73h3.588l2.325-7.8h.092l2.346 7.8h3.588l4.005-11.5h-3.782l-2.155 7.716h-.092l-2.25-7.716h-3.42l-2.22 7.675h-.092l-2.135-7.675h-3.802l4.005 11.5zm27.034-11.73c-1.838 0-3.178.895-3.83 2.44h-.015V61.5h-3.665V73h3.665v-6.03c0-1.595.9-2.605 2.33-2.605 1.272 0 2.023.8 2.023 2.177V73h3.688v-7.182c0-2.724-1.53-4.445-3.97-4.544l-.225-.005zm19.304-1.11c1.503 0 2.626-.997 2.626-2.322s-1.123-2.325-2.626-2.325-2.626.997-2.626 2.325 1.123 2.322 2.626 2.322zM174.133 73h3.674V61.5h-3.674V73zm17.163-16.56v7.262l-.037.007c-.718-1.558-2.095-2.44-3.926-2.44-3.156 0-5.55 2.565-5.55 5.99 0 3.442 2.414 5.97 5.55 5.97 1.85 0 3.214-.895 3.925-2.44l.038.007V73h3.674V56.44h-3.674zm-2.81 13.702c-1.71 0-2.92-1.198-2.92-2.893 0-1.69 1.207-2.892 2.918-2.892 1.682 0 2.882 1.155 2.928 2.794v.197c-.044 1.576-1.156 2.708-2.74 2.79l-.185.005zm19.513-1.878c-.163 1.164-1.222 1.94-2.617 1.94-1.63 0-2.737-1.052-2.847-2.873h8.92c.154-3.77-2.282-6.06-6.08-6.06-3.76 0-6.363 2.458-6.363 5.96 0 3.487 2.582 6 6.45 6 3.428 0 6.044-1.957 6.27-4.965h-3.732zm-2.653-4.406c1.173 0 2.012.533 2.386 1.48h-4.866c.4-.868 1.184-1.412 2.273-1.473l.208-.006zm19.186-2.36v2.202l-.038.007c-.718-1.558-2.095-2.44-3.926-2.44-3.156 0-5.55 2.565-5.55 5.99 0 3.442 2.415 5.97 5.55 5.97 1.85 0 3.214-.895 3.925-2.44l.04.007V73h3.674V61.5h-3.674zm-2.812 8.642c-1.71 0-2.92-1.198-2.92-2.893 0-1.69 1.207-2.892 2.918-2.892 1.716 0 2.93 1.2 2.93 2.892s-1.21 2.893-2.927 2.893zm16.39 3.088c3.43 0 5.722-1.645 5.722-4.116 0-2.56-2.527-2.96-3.784-3.108l-2.674-.3c-.514-.054-1.05-.24-1.05-.872 0-.644.56-1.02 1.418-1.02.84 0 1.438.35 1.66.98l3.72.01c-.302-2.24-2.18-3.544-5.22-3.544-3.226 0-5.112 1.504-5.112 3.737 0 2.434 2.263 2.798 3.535 2.956l2.826.323c.515.065 1.05.3 1.05.97 0 .81-.764 1.313-2.026 1.313-1.504 0-2.504-.736-2.62-1.896H231.8c.197 2.708 2.632 4.464 6.038 4.552l.272.003zm27.248-11.73v2.202l-.038.007c-.718-1.558-2.095-2.44-3.926-2.44-3.156 0-5.55 2.565-5.55 5.99 0 3.442 2.415 5.97 5.55 5.97 1.85 0 3.214-.895 3.925-2.44l.04.007V73h3.674V61.5h-3.674zm-2.812 8.642c-1.71 0-2.92-1.198-2.92-2.893 0-1.69 1.207-2.892 2.918-2.892 1.716 0 2.93 1.2 2.93 2.892s-1.21 2.893-2.927 2.893zm18.838-8.872c-1.83 0-3.208.88-3.926 2.44l-.04-.008v-7.26h-3.665V73h3.665v-2.2l.042-.008c.71 1.544 2.074 2.44 3.925 2.44 3.136 0 5.55-2.53 5.55-5.97 0-3.345-2.284-5.87-5.33-5.985l-.22-.005zm-1.153 8.873c-1.716 0-2.927-1.204-2.927-2.893s1.213-2.892 2.93-2.892c1.71 0 2.918 1.204 2.918 2.892 0 1.634-1.125 2.806-2.74 2.888l-.18.005zm16.59 3.087c3.856 0 6.548-2.467 6.548-5.98s-2.69-5.98-6.548-5.98-6.548 2.467-6.548 5.98 2.692 5.98 6.548 5.98zm0-3.05c-1.68 0-2.872-1.212-2.872-2.928s1.192-2.928 2.872-2.928 2.872 1.212 2.872 2.928-1.192 2.928-2.872 2.928zm18.296-8.68v6.03c0 1.595-.9 2.605-2.33 2.605-1.272 0-2.023-.8-2.023-2.177V61.5h-3.688v7.182c0 2.806 1.623 4.548 4.196 4.548 1.838 0 3.178-.895 3.83-2.44l.015.002V73h3.665V61.5h-3.665zm9.42 11.5h3.612v-8.554h3.027V61.5h-3.027v-3.378h-3.123l-.083 1.637c-.066 1.326-.58 1.934-1.712 2.02l-.76.058v2.608h2.067V73zM47.824 91.27c-1.838 0-3.178.895-3.83 2.44h-.015V91.5h-3.665V103h3.665v-6.03c0-1.595.9-2.605 2.33-2.605 1.272 0 2.023.8 2.023 2.177V103h3.688v-7.182c0-2.724-1.53-4.445-3.97-4.544l-.225-.005zM62.3 103.23c3.856 0 6.548-2.467 6.548-5.98s-2.69-5.98-6.548-5.98-6.548 2.467-6.548 5.98 2.692 5.98 6.548 5.98zm0-3.05c-1.68 0-2.872-1.212-2.872-2.928s1.192-2.928 2.872-2.928 2.872 1.212 2.872 2.928-1.192 2.928-2.872 2.928zm18-8.91c-1.838 0-3.178.895-3.83 2.44h-.015V91.5H72.79V103h3.665v-6.03c0-1.595.9-2.605 2.33-2.605 1.272 0 2.023.8 2.023 2.177V103h3.688v-7.182c0-2.724-1.53-4.445-3.97-4.544l-.225-.005zm8.48 3.626v3.324h8.654V94.9l-8.654-.003zM105.056 103h3.866l4.666-11.5h-3.923l-2.618 8.062h-.092l-2.618-8.062H100.4l4.666 11.5zm17.494.23c3.856 0 6.548-2.467 6.548-5.98s-2.69-5.98-6.548-5.98-6.548 2.467-6.548 5.98 2.692 5.98 6.548 5.98zm0-3.05c-1.68 0-2.872-1.212-2.872-2.928s1.192-2.928 2.872-2.928 2.872 1.212 2.872 2.928-1.192 2.928-2.872 2.928zm11.546 2.82h3.612v-8.554h3.027V91.5h-3.027v-3.378h-3.123l-.083 1.637c-.066 1.326-.58 1.934-1.712 2.02l-.76.058v2.608h2.067V103zm18.173-4.735c-.163 1.164-1.222 1.94-2.617 1.94-1.63 0-2.737-1.052-2.847-2.873h8.92c.154-3.77-2.282-6.06-6.08-6.06-3.76 0-6.363 2.458-6.363 5.96 0 3.487 2.582 6 6.45 6 3.428 0 6.044-1.957 6.27-4.965h-3.732zm-2.653-4.406c1.173 0 2.012.533 2.386 1.48h-4.866c.4-.868 1.184-1.412 2.273-1.473l.208-.006zm17.657-2.59c-2.017 0-3.253 1.255-3.82 3.885l-.02-.002V91.5h-3.52V103h3.665v-3.974c0-2.602 1.008-4.1 3.475-4.1l.4.002.42.015v-3.656l-.406-.023-.193-.003zm8.92 11.96c3.43 0 5.722-1.645 5.722-4.116 0-2.56-2.527-2.96-3.784-3.108l-2.674-.3c-.514-.054-1.05-.24-1.05-.872 0-.644.56-1.02 1.418-1.02.84 0 1.438.35 1.66.98l3.72.01c-.302-2.24-2.18-3.544-5.22-3.544-3.226 0-5.112 1.504-5.112 3.737 0 2.434 2.263 2.798 3.535 2.956l2.826.323c.515.065 1.05.3 1.05.97 0 .81-.764 1.313-2.026 1.313-1.504 0-2.504-.736-2.62-1.896h-3.756c.197 2.708 2.632 4.464 6.038 4.552l.272.003zM203.44 91.5v2.202l-.038.007c-.718-1.558-2.095-2.44-3.926-2.44-3.156 0-5.55 2.564-5.55 5.99 0 3.442 2.415 5.97 5.55 5.97 1.85 0 3.214-.895 3.925-2.44l.04.007v2.2h3.674V91.5h-3.674zm-2.812 8.642c-1.71 0-2.92-1.198-2.92-2.893 0-1.69 1.207-2.892 2.918-2.892 1.716 0 2.93 1.2 2.93 2.892s-1.21 2.893-2.927 2.893zM211.834 103h3.665V86.44h-3.665V103zm15.746-11.73c-2.017 0-3.253 1.255-3.82 3.885l-.02-.002V91.5h-3.52V103h3.665v-3.974c0-2.602 1.008-4.1 3.475-4.1l.4.002.42.015v-3.656l-.406-.023-.193-.003zm12.434 6.995c-.163 1.164-1.222 1.94-2.617 1.94-1.63 0-2.737-1.052-2.847-2.873h8.92c.154-3.77-2.282-6.06-6.08-6.06-3.76 0-6.363 2.458-6.363 5.96 0 3.487 2.582 6 6.45 6 3.428 0 6.044-1.957 6.27-4.965h-3.732zm-2.653-4.406c1.173 0 2.012.533 2.386 1.48h-4.866c.4-.868 1.184-1.412 2.273-1.473l.208-.006zm19.186-2.36v2.202l-.038.007c-.718-1.558-2.095-2.44-3.926-2.44-3.156 0-5.55 2.564-5.55 5.99 0 3.442 2.415 5.97 5.55 5.97 1.85 0 3.214-.895 3.925-2.44l.04.007v2.2h3.674V91.5h-3.674zm-2.812 8.642c-1.71 0-2.92-1.198-2.92-2.893 0-1.69 1.207-2.892 2.918-2.892 1.716 0 2.93 1.2 2.93 2.892s-1.21 2.893-2.927 2.893zm19.877-13.702v7.262l-.037.007c-.718-1.558-2.095-2.44-3.926-2.44-3.156 0-5.55 2.564-5.55 5.99 0 3.442 2.414 5.97 5.55 5.97 1.85 0 3.214-.895 3.925-2.44l.038.007V103h3.674V86.44h-3.674zm-2.81 13.702c-1.71 0-2.92-1.198-2.92-2.893 0-1.69 1.207-2.892 2.918-2.892 1.682 0 2.882 1.155 2.928 2.794v.197c-.044 1.576-1.156 2.708-2.74 2.79l-.185.005zM290.3 91.5v5.718c0 1.587-.9 2.596-2.33 2.596-1.272 0-2.023-.8-2.023-2.177V91.5h-3.73v6.863c0 2.79 1.58 4.548 4.282 4.548 1.9 0 3.247-.868 3.86-2.395l.03.005v3.004c0 1.674-1.193 2.73-3.147 2.73-1.962 0-3.188-1.064-3.156-2.724h-3.54c-.023 3.3 2.645 5.678 6.727 5.678 3.944 0 6.69-2.212 6.69-5.687V91.5H290.3zm10.764 11.73c-1.503 0-2.626-.997-2.626-2.322s1.123-2.324 2.626-2.324 2.626.997 2.626 2.324-1.123 2.322-2.626 2.322z" fill="#000" fill-rule="nonzero"/></svg>