<?xml version="1.0" encoding="UTF-8"?>
<svg width="442px" height="151px" viewBox="0 0 442 151" version="1.1" xmlns="http://www.w3.org/2000/svg" xmlns:xlink="http://www.w3.org/1999/xlink">
    <!-- Generator: Sketch 58 (84663) - https://sketch.com -->
    <title>Group 7</title>
    <desc>Created with Sketch.</desc>
    <g id="Desktop-Story" stroke="none" stroke-width="1" fill="none" fill-rule="evenodd">
        <g id="Landing---Story" transform="translate(-872.000000, -2290.000000)">
            <g id="Group-7" transform="translate(872.000000, 2290.000000)">
                <g id="bubble-text" fill="#F8D705">
                    <path d="M405,0 C425.434536,-3.75376332e-15 442,16.5654643 442,37 L442,94 C442,114.434536 425.434536,131 405,131 L54,131 C51.1412973,131 48.3583154,130.675801 45.6858153,130.062163 L0,151 L28.4270282,120.739995 C21.3854837,114.003897 17,104.514091 17,94 L17,37 C17,16.5654643 33.5654643,3.75376332e-15 54,0 L405,0 Z" id="Combined-Shape" transform="translate(221.000000, 75.500000) scale(-1, 1) translate(-221.000000, -75.500000) "></path>
                </g>
                <path d="M50.2695396,34.8191296 L50.2695399,34.8050999 C51.7808701,34.2383799 52.7487101,32.91772 52.7487101,31.1062401 C52.7487101,28.5631299 50.8332701,26.9009198 47.8101501,26.9009198 L40.5078799,26.9009198 L40.5078799,43.0009198 L47.9467698,43.0009198 C51.0308397,43.0009198 52.9980297,41.3237599 52.9980297,38.7236098 C52.9980297,36.8203598 51.9388796,35.3984996 50.2695396,34.8191296 Z M46.9662797,29.9256497 C48.1928697,29.9256497 48.9164499,30.5995498 48.9164499,31.6892899 C48.9164499,32.7792599 48.1928697,33.4501698 46.9662797,33.4501698 L44.2014495,33.4501698 L44.2014495,29.9254198 L46.9662797,29.9256497 Z M46.9784696,39.9775699 L44.2014495,39.9775699 L44.2014495,36.1160999 L46.9936494,36.1160999 C48.3205194,36.1160999 49.1388595,36.8387599 49.1388595,38.0379799 C49.1388595,39.1778598 48.4001389,39.9084572 47.1589454,39.97252 L46.9784696,39.9775699 Z M65.0613001,31.5 L65.0613001,37.52922 C65.0613001,39.12381 64.1514202,40.1337401 62.7307101,40.1337401 C61.4585802,40.1337401 60.7074001,39.3241402 60.7074001,37.9570201 L60.7074001,31.5 L57.0193499,31.5 L57.0193499,38.6819799 C57.0193499,41.4882097 58.64269,43.2297698 61.2152401,43.2297698 C63.0531702,43.2297698 64.3931501,42.3346098 65.04566,40.7896999 L65.0610699,40.79131 L65.0610699,43 L68.7261201,43 L68.7261201,31.5 L65.0613001,31.5 Z M74.4804901,43 L78.09241,43 L78.09241,34.4463001 L81.1189799,34.4463001 L81.1189799,31.5002302 L78.09241,31.5002302 L78.09241,28.1219901 L74.9690099,28.1219901 L74.8862097,29.7586702 C74.8197398,31.0848503 74.3063796,31.6922804 73.1745494,31.7801405 L72.4137094,31.8383305 L72.4137094,34.4460706 L74.4807193,34.4460706 L74.4804901,43 Z M101.35415,31.27 C99.5233499,31.27 98.1458799,32.15044 97.4280498,33.7089198 L97.3843499,33.7008697 L97.3843499,31.5002299 L93.7192998,31.5002299 L93.7192998,48.9802299 L97.3843499,48.9802299 L97.3843499,40.7998199 L97.42897,40.7915399 C98.1401299,42.3350699 99.5028799,43.2302299 101.35415,43.2302299 C104.48951,43.2302299 106.90382,40.7016098 106.90382,37.2594297 C106.90382,33.9145986 104.620027,31.3902039 101.573067,31.2745992 L101.35415,31.27 Z M100.20139,40.1431698 C98.48559,40.1431698 97.2748701,38.9395798 97.2748701,37.2504597 C97.2748701,35.5590399 98.4881201,34.3579799 100.20392,34.3579799 C101.91443,34.3579799 103.12147,35.5615699 103.12147,37.2504597 C103.12147,38.8843551 101.996541,40.0569442 100.382687,40.1386165 L100.20139,40.1431698 L100.20139,40.1431698 Z M118.21476,31.27 C116.19789,31.27 114.9621,32.5248799 114.39584,35.1546999 L114.37537,35.1530897 L114.37537,31.4999996 L110.85407,31.4999996 L110.85407,42.9999996 L114.51912,42.9999996 L114.51912,39.0255996 C114.51912,36.4238397 115.52721,34.9357398 117.99396,34.9357398 L118.393355,34.9379247 C118.53722,34.9401097 118.684535,34.9444797 118.81345,34.9532196 L118.81345,31.2969096 C118.67959,31.2852564 118.540619,31.2773853 118.40785,31.2734327 L118.21476,31.27 Z M128.20803,43.23 C132.06444,43.23 134.7559,40.76325 134.7559,37.25 C134.7559,33.73675 132.06444,31.27 128.20803,31.27 C124.35185,31.27 121.66016,33.73675 121.66016,37.25 C121.66016,40.76325 124.35185,43.23 128.20803,43.23 Z M128.20803,40.17859 C126.52788,40.17859 125.33579,38.9662599 125.33579,37.2504597 C125.33579,35.5348898 126.52788,34.3225597 128.20803,34.3225597 C129.88818,34.3225597 131.08027,35.5348898 131.08027,37.2504597 C131.08027,38.9662599 129.88818,40.17859 128.20803,40.17859 Z M146.39574,31.27 C144.56517,31.27 143.1877,32.15044 142.46941,33.7089198 L142.42847,33.7013298 L142.42847,26.4402299 L138.76342,26.4402299 L138.76342,43.0002299 L142.42847,43.0002299 L142.42847,40.7993598 L142.47056,40.7915399 C143.18149,42.3350699 144.54447,43.2302299 146.39551,43.2302299 C149.5311,43.2302299 151.94564,40.7016098 151.94564,37.2594297 C151.94564,33.9145986 149.661847,31.3902039 146.614673,31.2745992 L146.39574,31.27 Z M145.24321,40.1431698 C143.52741,40.1431698 142.31623,38.9395798 142.31623,37.2504597 C142.31623,35.5590399 143.52971,34.3579799 145.24551,34.3579799 C146.95602,34.3579799 148.16352,35.5615699 148.16352,37.2504597 C148.16352,38.8843551 147.038377,40.0569442 145.424507,40.1386165 L145.24321,40.1431698 L145.24321,40.1431698 Z M164.8008,31.5 L164.8008,33.70156 L164.76239,33.7089202 C164.04456,32.1504403 162.66709,31.2700004 160.83629,31.2700004 C157.68046,31.2700004 155.28639,33.8345004 155.28639,37.2589703 C155.28639,40.7011504 157.70093,43.2297705 160.83652,43.2297705 C162.68756,43.2297705 164.05054,42.3346105 164.7617,40.7910805 L164.80103,40.7984407 L164.80103,42.9997708 L168.47482,42.9997708 L168.47482,31.4997708 L164.8008,31.5 Z M161.98882,40.1424809 C160.27831,40.1424809 159.06851,38.9441808 159.06851,37.2497708 C159.06851,35.560881 160.27578,34.357291 161.98606,34.357291 C163.70186,34.357291 164.91534,35.558351 164.91534,37.2497708 C164.91534,38.9388909 163.70462,40.1424809 161.98882,40.1424809 Z M180.82674,31.27 C178.99617,31.27 177.6187,32.15044 176.90041,33.7089198 L176.85947,33.7013298 L176.85947,26.4402299 L173.19442,26.4402299 L173.19442,43.0002299 L176.85947,43.0002299 L176.85947,40.7993598 L176.90156,40.7915399 C177.61249,42.3350699 178.97547,43.2302299 180.82651,43.2302299 C183.9621,43.2302299 186.37664,40.7016098 186.37664,37.2594297 C186.37664,33.9145986 184.092847,31.3902039 181.045673,31.2745992 L180.82674,31.27 Z M179.67421,40.1431698 C177.95841,40.1431698 176.74723,38.9395798 176.74723,37.2504597 C176.74723,35.5590399 177.96071,34.3579799 179.67651,34.3579799 C181.38702,34.3579799 182.59452,35.5615699 182.59452,37.2504597 C182.59452,38.8843551 181.469377,40.0569442 179.855507,40.1386165 L179.67421,40.1431698 L179.67421,40.1431698 Z M190.39796,43 L194.06301,43 L194.06301,26.44 L190.39796,26.44 L190.39796,43 Z M207.0633,31.5 L207.0633,37.2184901 C207.0633,38.80503 206.15342,39.8149601 204.73271,39.8149601 C203.46058,39.8149601 202.7094,39.0051299 202.7094,37.6380099 L202.7094,31.5 L198.97949,31.5 L198.97949,38.36297 C198.97949,41.1540201 200.55844,42.9107602 203.26163,42.9107602 C205.16097,42.9107602 206.50877,42.0432002 207.12195,40.5155403 L207.15185,40.5208302 L207.15185,43.52509 C207.15185,45.1988001 205.95907,46.2554202 204.00499,46.2554202 C202.04309,46.2554202 200.81673,45.1909802 200.84916,43.5313001 L197.30946,43.5313001 C197.28646,46.8414601 199.95469,49.2095403 204.03673,49.2095403 C207.98054,49.2095403 210.72812,46.9978602 210.72812,43.5223302 L210.72812,31.4997701 L207.0633,31.5 Z M217.87123,38.5844601 C216.29412,38.5844601 215.22508,39.5856501 215.22508,40.92494 C215.22508,42.0855201 216.1207,43.0285201 217.43538,43.0285201 C217.98485,43.0285201 218.45428,42.8675201 218.78732,42.6011801 C218.47889,43.84456 217.32866,44.4089799 215.4859,44.1943898 L215.4859,45.7379198 C218.7772,46.1670999 220.72553,44.59206 220.72553,41.8226299 C220.72553,39.8270022 219.67246,38.6688687 218.053427,38.5886903 L217.87123,38.5844601 Z M242.8973,31.5 L242.8973,37.2184901 C242.8973,38.80503 241.98742,39.8149601 240.56671,39.8149601 C239.29458,39.8149601 238.5434,39.0051299 238.5434,37.6380099 L238.5434,31.5 L234.81349,31.5 L234.81349,38.36297 C234.81349,41.1540201 236.39244,42.9107602 239.09563,42.9107602 C240.99497,42.9107602 242.34277,42.0432002 242.95595,40.5155403 L242.98585,40.5208302 L242.98585,43.52509 C242.98585,45.1988001 241.79307,46.2554202 239.83899,46.2554202 C237.87709,46.2554202 236.65073,45.1909802 236.68316,43.5313001 L233.14346,43.5313001 C233.12046,46.8414601 235.78869,49.2095403 239.87073,49.2095403 C243.81454,49.2095403 246.56212,46.9978602 246.56212,43.5223302 L246.56212,31.4997701 L242.8973,31.5 Z M257.00803,43.23 C260.86444,43.23 263.5559,40.76325 263.5559,37.25 C263.5559,33.73675 260.86444,31.27 257.00803,31.27 C253.15185,31.27 250.46016,33.73675 250.46016,37.25 C250.46016,40.76325 253.15185,43.23 257.00803,43.23 Z M257.00803,40.17859 C255.32788,40.17859 254.13579,38.9662599 254.13579,37.2504597 C254.13579,35.5348898 255.32788,34.3225597 257.00803,34.3225597 C258.68818,34.3225597 259.88027,35.5348898 259.88027,37.2504597 C259.88027,38.9662599 258.68818,40.17859 257.00803,40.17859 Z M275.3043,31.5 L275.3043,37.52922 C275.3043,39.12381 274.39442,40.1337401 272.97371,40.1337401 C271.70158,40.1337401 270.9504,39.3241402 270.9504,37.9570201 L270.9504,31.5 L267.26235,31.5 L267.26235,38.6819799 C267.26235,41.4882097 268.88569,43.2297698 271.45824,43.2297698 C273.29617,43.2297698 274.63615,42.3346098 275.28866,40.7896999 L275.30407,40.79131 L275.30407,43 L278.96912,43 L278.96912,31.5 L275.3043,31.5 Z M299.93753,31.27 C298.0996,31.27 296.75985,32.16516 296.10711,33.71053 L296.09699,33.7093799 L296.09699,26.44 L292.42941,26.44 L292.42941,31.5 L292.42665,31.5 L292.42665,43 L296.09699,43 L296.09699,36.76194 C296.17358,35.28856 297.06483,34.3664901 298.42252,34.3664901 C299.69442,34.3664901 300.4456,35.17609 300.4456,36.5432101 L300.4456,43 L304.13365,43 L304.13365,35.81825 C304.13365,33.0945563 302.604396,31.3736092 300.162269,31.2747332 L299.93753,31.27 Z M317.3598,31.5 L317.3598,33.70156 L317.32139,33.7089202 C316.60356,32.1504403 315.22609,31.2700004 313.39529,31.2700004 C310.23946,31.2700004 307.84539,33.8345004 307.84539,37.2589703 C307.84539,40.7011504 310.25993,43.2297705 313.39552,43.2297705 C315.24656,43.2297705 316.60954,42.3346105 317.3207,40.7910805 L317.36003,40.7984407 L317.36003,42.9997708 L321.03382,42.9997708 L321.03382,31.4997708 L317.3598,31.5 Z M314.54782,40.1424809 C312.83731,40.1424809 311.62751,38.9441808 311.62751,37.2497708 C311.62751,35.560881 312.83478,34.357291 314.54506,34.357291 C316.26086,34.357291 317.47434,35.558351 317.47434,37.2497708 C317.47434,38.9388909 316.26362,40.1424809 314.54782,40.1424809 Z M329.23723,43 L333.10284,43 L337.76885,31.5 L333.84574,31.5 L331.22765,39.5619601 L331.13565,39.5619601 L328.51756,31.5 L324.57145,31.5 L329.23723,43 Z M349.17225,38.2647599 C349.00964,39.4283298 347.9498,40.2048097 346.55554,40.2048097 C344.9253,40.2048097 343.81877,39.1530198 343.70837,37.3314198 L352.62777,37.3314198 C352.78164,33.5621797 350.34617,31.2699996 346.54657,31.2699996 C342.78607,31.2699996 340.18385,33.7284696 340.18385,37.2290696 C340.18385,40.7160996 342.76583,43.2295396 346.63466,43.2295396 C350.06258,43.2295396 352.67883,41.2726995 352.90423,38.2645297 L349.17225,38.2647599 Z M346.51943,33.8591098 C347.69243,33.8591098 348.53147,34.3920198 348.90499,35.3377797 L344.03865,35.3377797 C344.449078,34.4692998 345.222362,33.9257804 346.31133,33.864842 L346.51943,33.8591098 Z M49.2143001,61.5 L49.2143001,67.2184901 C49.2143001,68.80503 48.3044202,69.8149601 46.8837101,69.8149601 C45.6115802,69.8149601 44.8604001,69.0051299 44.8604001,67.6380099 L44.8604001,61.5 L41.1304901,61.5 L41.1304901,68.36297 C41.1304901,71.1540201 42.70944,72.9107602 45.4126299,72.9107602 C47.31197,72.9107602 48.6597701,72.0432002 49.2729502,70.5155403 L49.3028503,70.5208302 L49.3028503,73.52509 C49.3028503,75.1988001 48.1100703,76.2554202 46.1559901,76.2554202 C44.19409,76.2554202 42.9677299,75.1909802 43.00016,73.5313001 L39.4604601,73.5313001 C39.4374601,76.8414601 42.10569,79.2095403 46.1877299,79.2095403 C50.1315399,79.2095403 52.8791201,76.9978602 52.8791201,73.5223302 L52.8791201,61.4997701 L49.2143001,61.5 Z M63.32503,73.23 C67.18144,73.23 69.8729001,70.76325 69.8729001,67.25 C69.8729001,63.73675 67.18144,61.27 63.32503,61.27 C59.4688499,61.27 56.77716,63.73675 56.77716,67.25 C56.77716,70.76325 59.4688499,73.23 63.32503,73.23 Z M63.32503,70.17859 C61.6448799,70.17859 60.4527899,68.9662599 60.4527899,67.2504597 C60.4527899,65.5348898 61.6448799,64.3225597 63.32503,64.3225597 C65.0051801,64.3225597 66.1972701,65.5348898 66.1972701,67.2504597 C66.1972701,68.9662599 65.0051801,70.17859 63.32503,70.17859 Z M81.6213001,61.5 L81.6213001,67.52922 C81.6213001,69.12381 80.7114202,70.1337401 79.2907101,70.1337401 C78.0185802,70.1337401 77.2674001,69.3241402 77.2674001,67.9570201 L77.2674001,61.5 L73.5793499,61.5 L73.5793499,68.6819799 C73.5793499,71.4882097 75.20269,73.2297698 77.7752401,73.2297698 C79.6131702,73.2297698 80.9531501,72.3346098 81.60566,70.7896999 L81.6210699,70.79131 L81.6210699,73 L85.2861201,73 L85.2861201,61.5 L81.6213001,61.5 Z M97.2617599,61.27 C95.2448898,61.27 94.0090999,62.5248799 93.44284,65.1546999 L93.4223701,65.1530897 L93.4223701,61.4999996 L89.9010699,61.4999996 L89.9010699,72.9999996 L93.5661201,72.9999996 L93.5661201,69.0255996 C93.5661201,66.4238397 94.5742101,64.9357398 97.0409601,64.9357398 L97.440355,64.9379247 C97.5842201,64.9401097 97.7315351,64.9444797 97.8604502,64.9532196 L97.8604502,61.2969096 C97.7265903,61.2852564 97.5876192,61.2773853 97.4548496,61.2734327 L97.2617599,61.27 Z M116.59303,73.23 C120.44944,73.23 123.1409,70.76325 123.1409,67.25 C123.1409,63.73675 120.44944,61.27 116.59303,61.27 C112.73685,61.27 110.04516,63.73675 110.04516,67.25 C110.04516,70.76325 112.73685,73.23 116.59303,73.23 Z M116.59303,70.17859 C114.91288,70.17859 113.72079,68.9662599 113.72079,67.2504597 C113.72079,65.5348898 114.91288,64.3225597 116.59303,64.3225597 C118.27318,64.3225597 119.46527,65.5348898 119.46527,67.2504597 C119.46527,68.9662599 118.27318,70.17859 116.59303,70.17859 Z M129.62644,73 L133.21444,73 L135.53974,65.2096698 L135.63174,65.2096698 L137.97774,73 L141.56551,73 L145.57073,61.5 L141.78907,61.5 L139.63374,69.2162701 L139.54174,69.2162701 L137.29119,61.5 L133.86994,61.5 L131.65044,69.1753302 L131.55844,69.1753302 L129.42381,61.5 L125.62145,61.5 L129.62644,73 Z M156.66018,61.27 C154.82225,61.27 153.48227,62.16516 152.82976,63.71053 L152.81435,63.7089198 L152.81435,61.5 L149.1493,61.5 L149.1493,73 L152.81435,73 L152.81435,66.9710099 C152.81435,65.3764198 153.72446,64.3664898 155.1454,64.3664898 C156.4173,64.3664898 157.168481,65.1760897 157.168481,66.5432097 L157.168481,73 L160.856531,73 L160.856531,65.8182496 C160.856531,63.0945559 159.327277,61.3736089 156.88515,61.2747329 L156.66018,61.27 Z M175.96385,60.1593302 C177.4669,60.1593302 178.58976,59.1620501 178.58976,57.8370201 C178.58976,56.5094601 177.4669,55.5121801 175.96385,55.5121801 C174.4608,55.5121801 173.33794,56.5094601 173.33794,57.8370201 C173.33794,59.1620501 174.4608,60.1593302 175.96385,60.1593302 Z M174.13259,73 L177.80684,73 L177.80684,61.5 L174.13259,61.5 L174.13259,73 Z M191.29542,56.44 L191.29542,63.7020201 L191.25862,63.7089202 C190.54079,62.1504403 189.16332,61.2700004 187.332519,61.2700004 C184.176689,61.2700004 181.782849,63.8345004 181.782849,67.2589703 C181.782849,70.7011504 184.196929,73.2297705 187.332519,73.2297705 C189.18379,73.2297705 190.54654,72.3346105 191.2577,70.7910805 L191.295419,70.7979806 L191.295419,72.9997705 L194.96944,72.9997705 L194.96944,56.4397705 L191.29542,56.44 Z M188.48482,70.1424806 C186.77431,70.1424806 185.56451,68.9441804 185.56451,67.2497705 C185.56451,65.5608806 186.77201,64.3572906 188.482519,64.3572906 C190.164739,64.3572906 191.364419,65.5118905 191.410419,67.1513305 L191.410419,67.3479806 C191.366123,68.9242642 190.254795,70.055649 188.670186,70.137293 L188.48482,70.1424806 Z M207.99825,68.2647599 C207.83564,69.4283298 206.7758,70.2048097 205.38154,70.2048097 C203.7513,70.2048097 202.64477,69.1530198 202.53437,67.3314198 L211.45377,67.3314198 C211.60764,63.5621797 209.17217,61.2699996 205.37257,61.2699996 C201.61207,61.2699996 199.00985,63.7284696 199.00985,67.2290696 C199.00985,70.7160996 201.59183,73.2295396 205.46066,73.2295396 C208.88858,73.2295396 211.50483,71.2726995 211.73023,68.2645297 L207.99825,68.2647599 Z M205.34543,63.8591098 C206.51843,63.8591098 207.35747,64.3920198 207.73099,65.3377797 L202.86465,65.3377797 C203.275078,64.4692998 204.048362,63.9257804 205.13733,63.864842 L205.34543,63.8591098 Z M224.5318,61.5 L224.5318,63.70156 L224.49339,63.7089202 C223.77556,62.1504403 222.39809,61.2700004 220.56729,61.2700004 C217.41146,61.2700004 215.01739,63.8345004 215.01739,67.2589703 C215.01739,70.7011504 217.43193,73.2297705 220.56752,73.2297705 C222.41856,73.2297705 223.78154,72.3346105 224.4927,70.7910805 L224.53203,70.7984407 L224.53203,72.9997708 L228.20582,72.9997708 L228.20582,61.4997708 L224.5318,61.5 Z M221.71982,70.1424809 C220.00931,70.1424809 218.79951,68.9441808 218.79951,67.2497708 C218.79951,65.560881 220.00678,64.357291 221.71706,64.357291 C223.43286,64.357291 224.64634,65.558351 224.64634,67.2497708 C224.64634,68.9388909 223.43562,70.1424809 221.71982,70.1424809 Z M238.10916,73.2300007 C241.538,73.2300007 243.83133,71.5850399 243.83133,69.1139198 C243.83133,66.5544799 241.30386,66.1538199 240.04714,66.00616 L237.37339,65.7159001 C236.8598,65.66231 236.32298,65.4760099 236.32298,64.84397 C236.32298,64.1997401 236.88303,63.8253001 237.741391,63.8253001 C238.581581,63.8253001 239.17981,64.1758203 239.40222,64.8067101 L243.12247,64.8154502 C242.82025,62.5747903 240.94276,61.2713803 237.90101,61.2713803 C234.6748,61.2713803 232.78903,62.7753503 232.78903,65.0081903 C232.78903,67.442343 235.052098,67.806342 236.323829,67.9641619 L239.14945,68.2868404 C239.66488,68.3519304 240.19986,68.5971105 240.19986,69.2569806 C240.19986,70.0658905 239.43603,70.5698206 238.17356,70.5698206 C236.66982,70.5698206 235.66932,69.8335907 235.55478,68.6741607 L231.79911,68.6741607 C231.995872,71.3824403 234.431224,73.1382493 237.837555,73.2265102 L238.10916,73.2300007 Z M265.3568,61.5 L265.3568,63.70156 L265.31839,63.7089202 C264.60056,62.1504403 263.22309,61.2700004 261.39229,61.2700004 C258.23646,61.2700004 255.84239,63.8345004 255.84239,67.2589703 C255.84239,70.7011504 258.25693,73.2297705 261.39252,73.2297705 C263.24356,73.2297705 264.60654,72.3346105 265.3177,70.7910805 L265.35703,70.7984407 L265.35703,72.9997708 L269.03082,72.9997708 L269.03082,61.4997708 L265.3568,61.5 Z M262.54482,70.1424809 C260.83431,70.1424809 259.62451,68.9441808 259.62451,67.2497708 C259.62451,65.560881 260.83178,64.357291 262.54206,64.357291 C264.25786,64.357291 265.47134,65.558351 265.47134,67.2497708 C265.47134,68.9388909 264.26062,70.1424809 262.54482,70.1424809 Z M281.38274,61.27 C279.55217,61.27 278.1747,62.15044 277.45641,63.7089198 L277.41547,63.7013298 L277.41547,56.4402299 L273.75042,56.4402299 L273.75042,73.0002299 L277.41547,73.0002299 L277.41547,70.7993598 L277.45756,70.7915399 C278.16849,72.3350699 279.53147,73.2302299 281.38251,73.2302299 C284.5181,73.2302299 286.93264,70.7016098 286.93264,67.2594297 C286.93264,63.9145986 284.648847,61.3902039 281.601673,61.2745992 L281.38274,61.27 Z M280.23021,70.1431698 C278.51441,70.1431698 277.30323,68.9395798 277.30323,67.2504597 C277.30323,65.5590399 278.51671,64.3579799 280.23251,64.3579799 C281.94302,64.3579799 283.15052,65.5615699 283.15052,67.2504597 C283.15052,68.8843551 282.025377,70.0569442 280.411507,70.1386165 L280.23021,70.1431698 L280.23021,70.1431698 Z M296.82103,73.23 C300.67744,73.23 303.3689,70.76325 303.3689,67.25 C303.3689,63.73675 300.67744,61.27 296.82103,61.27 C292.96485,61.27 290.27316,63.73675 290.27316,67.25 C290.27316,70.76325 292.96485,73.23 296.82103,73.23 Z M296.82103,70.17859 C295.14088,70.17859 293.94879,68.9662599 293.94879,67.2504597 C293.94879,65.5348898 295.14088,64.3225597 296.82103,64.3225597 C298.50118,64.3225597 299.69327,65.5348898 299.69327,67.2504597 C299.69327,68.9662599 298.50118,70.17859 296.82103,70.17859 Z M315.1173,61.5 L315.1173,67.52922 C315.1173,69.12381 314.20742,70.1337401 312.78671,70.1337401 C311.51458,70.1337401 310.7634,69.3241402 310.7634,67.9570201 L310.7634,61.5 L307.07535,61.5 L307.07535,68.6819799 C307.07535,71.4882097 308.69869,73.2297698 311.27124,73.2297698 C313.10917,73.2297698 314.44915,72.3346098 315.10166,70.7896999 L315.11707,70.79131 L315.11707,73 L318.78212,73 L318.78212,61.5 L315.1173,61.5 Z M324.53649,73 L328.14841,73 L328.14841,64.4463001 L331.17498,64.4463001 L331.17498,61.5002302 L328.14841,61.5002302 L328.14841,58.1219901 L325.02501,58.1219901 L324.94221,59.7586702 C324.87574,61.0848503 324.36238,61.6922804 323.230549,61.7801405 L322.469709,61.8383305 L322.469709,64.4460706 L324.536719,64.4460706 L324.53649,73 Z M47.8241801,91.27 C45.98625,91.27 44.6462701,92.16516 43.9937602,93.71053 L43.9783503,93.7089198 L43.9783503,91.5 L40.3133001,91.5 L40.3133001,103 L43.9783503,103 L43.9783503,96.9710099 C43.9783503,95.3764198 44.8884604,94.3664898 46.3094004,94.3664898 C47.5813005,94.3664898 48.3324806,95.1760897 48.3324806,96.5432097 L48.3324806,103 L52.0205307,103 L52.0205307,95.8182496 C52.0205307,93.0945559 50.491277,91.3736089 48.0491498,91.2747329 L47.8241801,91.27 Z M62.29003,103.23 C66.14644,103.23 68.8379001,100.76325 68.8379001,97.25 C68.8379001,93.73675 66.14644,91.27 62.29003,91.27 C58.4338499,91.27 55.74216,93.73675 55.74216,97.25 C55.74216,100.76325 58.4338499,103.23 62.29003,103.23 Z M62.29003,100.17859 C60.6098799,100.17859 59.4177899,98.9662599 59.4177899,97.2504597 C59.4177899,95.5348898 60.6098799,94.3225597 62.29003,94.3225597 C63.9701801,94.3225597 65.1622701,95.5348898 65.1622701,97.2504597 C65.1622701,98.9662599 63.9701801,100.17859 62.29003,100.17859 Z M80.3001801,91.27 C78.46225,91.27 77.1222701,92.16516 76.4697602,93.71053 L76.4543503,93.7089198 L76.4543503,91.5 L72.7893001,91.5 L72.7893001,103 L76.4543503,103 L76.4543503,96.9710099 C76.4543503,95.3764198 77.3644604,94.3664898 78.7854004,94.3664898 C80.0573005,94.3664898 80.8084806,95.1760897 80.8084806,96.5432097 L80.8084806,103 L84.4965307,103 L84.4965307,95.8182496 C84.4965307,93.0945559 82.967277,91.3736089 80.5251498,91.2747329 L80.3001801,91.27 Z M88.78097,94.8961801 L88.78097,98.2203701 L97.43541,98.2203701 L97.43541,94.8987101 L88.78097,94.8961801 Z M105.05623,103 L108.92184,103 L113.58785,91.5 L109.66474,91.5 L107.04665,99.5619601 L106.95465,99.5619601 L104.33656,91.5 L100.39045,91.5 L105.05623,103 Z M122.55003,103.23 C126.40644,103.23 129.0979,100.76325 129.0979,97.25 C129.0979,93.73675 126.40644,91.27 122.55003,91.27 C118.69385,91.27 116.00216,93.73675 116.00216,97.25 C116.00216,100.76325 118.69385,103.23 122.55003,103.23 Z M122.55003,100.17859 C120.86988,100.17859 119.67779,98.9662599 119.67779,97.2504597 C119.67779,95.5348898 120.86988,94.3225597 122.55003,94.3225597 C124.23018,94.3225597 125.42227,95.5348898 125.42227,97.2504597 C125.42227,98.9662599 124.23018,100.17859 122.55003,100.17859 Z M134.09649,103 L137.70841,103 L137.70841,94.4463001 L140.73498,94.4463001 L140.73498,91.5002302 L137.70841,91.5002302 L137.70841,88.1219901 L134.58501,88.1219901 L134.50221,89.7586702 C134.43574,91.0848503 133.92238,91.6922804 132.790549,91.7801405 L132.029709,91.8383305 L132.029709,94.4460706 L134.096719,94.4460706 L134.09649,103 Z M152.26925,98.2647599 C152.10664,99.4283298 151.0468,100.20481 149.65254,100.20481 C148.0223,100.20481 146.91577,99.1530198 146.80537,97.3314198 L155.72477,97.3314198 C155.87864,93.5621797 153.44317,91.2699996 149.64357,91.2699996 C145.88307,91.2699996 143.28085,93.7284696 143.28085,97.2290696 C143.28085,100.7161 145.86283,103.22954 149.73166,103.22954 C153.15958,103.22954 155.77583,101.2727 156.00123,98.2645297 L152.26925,98.2647599 Z M149.61643,93.8591098 C150.78943,93.8591098 151.62847,94.3920198 152.00199,95.3377797 L147.13565,95.3377797 C147.546078,94.4692998 148.319362,93.9257804 149.40833,93.864842 L149.61643,93.8591098 Z M167.27376,91.27 C165.25689,91.27 164.0211,92.5248799 163.45484,95.1546999 L163.43437,95.1530897 L163.43437,91.4999996 L159.91307,91.4999996 L159.91307,103 L163.57812,103 L163.57812,99.0255996 C163.57812,96.4238397 164.58621,94.9357398 167.05296,94.9357398 L167.452355,94.9379247 C167.59622,94.9401097 167.743535,94.9444797 167.87245,94.9532196 L167.87245,91.2969096 C167.73859,91.2852564 167.599619,91.2773853 167.46685,91.2734327 L167.27376,91.27 Z M176.19316,103.230001 C179.622,103.230001 181.91533,101.58504 181.91533,99.1139198 C181.91533,96.5544799 179.38786,96.1538199 178.13114,96.00616 L175.45739,95.7159001 C174.9438,95.66231 174.40698,95.4760099 174.40698,94.84397 C174.40698,94.1997401 174.96703,93.8253001 175.825391,93.8253001 C176.665581,93.8253001 177.26381,94.1758203 177.48622,94.8067101 L181.20647,94.8154502 C180.90425,92.5747903 179.02676,91.2713803 175.98501,91.2713803 C172.7588,91.2713803 170.87303,92.7753503 170.87303,95.0081903 C170.87303,97.442343 173.136098,97.806342 174.407829,97.9641619 L177.23345,98.2868404 C177.74888,98.3519304 178.28386,98.5971105 178.28386,99.2569806 C178.28386,100.065891 177.52003,100.569821 176.25756,100.569821 C174.75382,100.569821 173.75332,99.8335907 173.63878,98.6741607 L169.88311,98.6741607 C170.079872,101.38244 172.515224,103.138249 175.921555,103.22651 L176.19316,103.230001 Z M203.4408,91.5 L203.4408,93.70156 L203.40239,93.7089202 C202.68456,92.1504403 201.30709,91.2700004 199.47629,91.2700004 C196.32046,91.2700004 193.92639,93.8345004 193.92639,97.2589703 C193.92639,100.70115 196.34093,103.22977 199.47652,103.22977 C201.32756,103.22977 202.69054,102.334611 203.4017,100.791081 L203.44103,100.798441 L203.44103,102.999771 L207.11482,102.999771 L207.11482,91.4997708 L203.4408,91.5 Z M200.62882,100.142481 C198.91831,100.142481 197.70851,98.9441808 197.70851,97.2497708 C197.70851,95.560881 198.91578,94.357291 200.62606,94.357291 C202.34186,94.357291 203.55534,95.558351 203.55534,97.2497708 C203.55534,98.9388909 202.34462,100.142481 200.62882,100.142481 Z M211.83396,103 L215.49901,103 L215.49901,86.44 L211.83396,86.44 L211.83396,103 Z M227.57976,91.27 C225.56289,91.27 224.3271,92.5248799 223.76084,95.1546999 L223.74037,95.1530897 L223.74037,91.4999996 L220.21907,91.4999996 L220.21907,103 L223.88412,103 L223.88412,99.0255996 C223.88412,96.4238397 224.89221,94.9357398 227.35896,94.9357398 L227.758355,94.9379247 C227.90222,94.9401097 228.049535,94.9444797 228.17845,94.9532196 L228.17845,91.2969096 C228.04459,91.2852564 227.905619,91.2773853 227.77285,91.2734327 L227.57976,91.27 Z M240.01425,98.2647599 C239.85164,99.4283298 238.7918,100.20481 237.39754,100.20481 C235.7673,100.20481 234.66077,99.1530198 234.55037,97.3314198 L243.46977,97.3314198 C243.62364,93.5621797 241.18817,91.2699996 237.38857,91.2699996 C233.62807,91.2699996 231.02585,93.7284696 231.02585,97.2290696 C231.02585,100.7161 233.60783,103.22954 237.47666,103.22954 C240.90458,103.22954 243.52083,101.2727 243.74623,98.2645297 L240.01425,98.2647599 Z M237.36143,93.8591098 C238.53443,93.8591098 239.37347,94.3920198 239.74699,95.3377797 L234.88065,95.3377797 C235.291078,94.4692998 236.064362,93.9257804 237.15333,93.864842 L237.36143,93.8591098 Z M256.5478,91.5 L256.5478,93.70156 L256.50939,93.7089202 C255.79156,92.1504403 254.41409,91.2700004 252.58329,91.2700004 C249.42746,91.2700004 247.03339,93.8345004 247.03339,97.2589703 C247.03339,100.70115 249.44793,103.22977 252.58352,103.22977 C254.43456,103.22977 255.79754,102.334611 256.5087,100.791081 L256.54803,100.798441 L256.54803,102.999771 L260.22182,102.999771 L260.22182,91.4997708 L256.5478,91.5 Z M253.73582,100.142481 C252.02531,100.142481 250.81551,98.9441808 250.81551,97.2497708 C250.81551,95.560881 252.02278,94.357291 253.73306,94.357291 C255.44886,94.357291 256.66234,95.558351 256.66234,97.2497708 C256.66234,98.9388909 255.45162,100.142481 253.73582,100.142481 Z M273.61242,86.44 L273.61242,93.7020201 L273.57562,93.7089202 C272.85779,92.1504403 271.48032,91.2700004 269.649519,91.2700004 C266.493689,91.2700004 264.099849,93.8345004 264.099849,97.2589703 C264.099849,100.70115 266.513929,103.22977 269.649519,103.22977 C271.50079,103.22977 272.86354,102.334611 273.5747,100.791081 L273.612419,100.797981 L273.612419,102.99977 L277.28644,102.99977 L277.28644,86.4397705 L273.61242,86.44 Z M270.80182,100.142481 C269.09131,100.142481 267.88151,98.9441804 267.88151,97.2497705 C267.88151,95.5608806 269.08901,94.3572906 270.799519,94.3572906 C272.481739,94.3572906 273.681419,95.5118905 273.727419,97.1513305 L273.727419,97.3479806 C273.683123,98.9242642 272.571795,100.055649 270.987186,100.137293 L270.80182,100.142481 Z M290.3003,91.5 L290.3003,97.2184901 C290.3003,98.80503 289.39042,99.8149601 287.96971,99.8149601 C286.69758,99.8149601 285.9464,99.0051299 285.9464,97.6380099 L285.9464,91.5 L282.21649,91.5 L282.21649,98.36297 C282.21649,101.15402 283.79544,102.91076 286.49863,102.91076 C288.39797,102.91076 289.74577,102.0432 290.35895,100.51554 L290.38885,100.52083 L290.38885,103.52509 C290.38885,105.1988 289.19607,106.25542 287.24199,106.25542 C285.28009,106.25542 284.05373,105.19098 284.08616,103.5313 L280.54646,103.5313 C280.52346,106.84146 283.19169,109.20954 287.27373,109.20954 C291.21754,109.20954 293.96512,106.99786 293.96512,103.52233 L293.96512,91.4997701 L290.3003,91.5 Z M301.06384,103.23 C299.56056,103.23 298.4377,102.23295 298.4377,100.90815 C298.4377,99.5808196 299.56056,98.5837694 301.06384,98.5837694 C302.56666,98.5837694 303.68952,99.5808196 303.68952,100.90815 C303.68952,102.23295 302.56666,103.23 301.06384,103.23 Z" id="Butprobably,youhaveyourownideasaboutnon-votersalready." fill="#000000" fill-rule="nonzero"></path>
            </g>
        </g>
    </g>
</svg>