<svg xmlns="http://www.w3.org/2000/svg" width="252" height="252" fill-rule="evenodd"><path fill="#f8d705" d="M97.17 217.002l-37.22 16.273-1.908-40.577-40.52-2.888 17.168-36.815L.156 131.61l32.3-24.62-20.64-34.987 40.05-6.785-2.018-40.57L88.475 37.25 105.543.39l28.335 29.107L166.122 4.79l11.563 38.94 40.032-6.893-7.858 39.854 38.65 12.5-25.48 31.637 28.414 29.03-37.263 16.172 11.668 38.9-40.51-2.997-7.75 39.875-34.478-21.48-25.394 31.706z"/><path d="M82.318 84.335l3.442 1.118 5.27-8.594.098.032-.684 10.084 3.34 1.085 7.55-12.45-3.275-1.064-4.787 8.99-.1-.032.81-9.91-3.243-1.054-5.14 8.484-.1-.032 1.406-10.07-3.353-1.09-1.236 14.503zm27.39-1.96c-1.54-.5-2.904-.115-3.87 1l-.008-.004 1.978-6.087-3.07-.998-1.377 4.237-.002-.001-3.13 9.63 3.073 1 1.697-5.223c.465-1.213 1.462-1.742 2.6-1.373 1.065.346 1.474 1.228 1.102 2.373l-1.757 5.407 3.088 1.003 1.954-6.014c.74-2.276-.068-4.13-2.078-4.88l-.198-.07zm14.526 4.933l-.6 1.843-.034-.004c-.177-1.5-1.09-2.612-2.624-3.1-2.643-.86-5.345.637-6.277 3.505-.937 2.882.397 5.657 3.023 6.5 1.55.504 2.935.125 3.95-.974l.03.017-.6 1.843 3.076 1 3.13-9.63-3.076-1zm-4.706 6.472c-1.432-.465-2.12-1.798-1.658-3.217s1.798-2.094 3.23-1.628 2.126 1.803 1.666 3.22-1.8 2.093-3.238 1.626zm9.455 5.717l3.024.983 2.327-7.162 2.534.823.802-2.467-2.534-.823.92-2.83-2.615-.85-.515 1.348c-.416 1.092-1.012 1.46-1.983 1.227l-.653-.158-.71 2.184 1.73.562-2.327 7.163zm23.68 7.694l3.964 1.288-3.065-8.6 7.347-4.913-3.835-1.246-6.077 4.48-.02-.013 1.895-5.833-3.197-1.04-4.38 13.48 3.197 1.04 1.883-5.794.025.002 2.265 7.148zm12.368-7.87c1.26.41 2.47-.12 2.83-1.23s-.308-2.252-1.566-2.66-2.47.12-2.83 1.232.308 2.25 1.567 2.66zm-5.027 10.254l3.077 1 3.13-9.63-3.077-1-3.13 9.63zm16.467-5.508c-1.54-.5-2.905-.115-3.87 1l-.012-.006.6-1.85-3.07-.997-3.13 9.63 3.07.997 1.64-5.048c.434-1.335 1.47-1.933 2.66-1.547 1.065.346 1.474 1.228 1.102 2.373l-1.757 5.407 3.088 1.003 1.954-6.014c.74-2.276-.068-4.13-2.078-4.88l-.2-.07zm15.9.698l-1.976 6.08-.033-.004c-.177-1.5-1.09-2.612-2.624-3.1-2.643-.86-5.345.637-6.276 3.505-.937 2.882.397 5.656 3.023 6.5 1.55.504 2.935.125 3.95-.974l.03.016-.6 1.844 3.076 1 4.505-13.866-3.076-1zm-6.08 10.71c-1.432-.465-2.12-1.798-1.658-3.217s1.798-2.093 3.23-1.628c1.41.458 2.1 1.75 1.69 3.136l-.054.165c-.465 1.304-1.697 1.95-3.04 1.593l-.17-.05zM61.307 105.06c3.23 1.05 6.154-.284 7.1-3.226s-.627-5.74-3.856-6.79-6.154.284-7.1 3.226.627 5.74 3.856 6.79zm.83-2.555c-1.407-.457-2.075-1.797-1.608-3.233s1.795-2.127 3.202-1.67 2.075 1.797 1.608 3.233-1.795 2.128-3.202 1.67zm17.483-4.41a5.87 5.87 0 0 1 1.065.473l.807-2.485c-.462-.294-1.03-.555-1.604-.742-2.64-.858-4.7.136-5.5 2.572l-.16.49-1.73-.562-.81 2.497 1.73.562-2.318 7.133 3.024.983 2.318-7.133 2.855.928.81-2.497-2.855-.928.118-.363c.314-.967.957-1.29 2.06-.98l.178.054zm8.132 15.344l2.92.95 2.855-8.788h.056l2.95 10.693 3.017.98 4.38-13.48-2.92-.95-2.855 8.788-.05.003-2.957-10.695-3.017-.98-4.38 13.48zm20.835 6.983c3.23 1.05 6.154-.284 7.1-3.226s-.627-5.74-3.856-6.79-6.154.284-7.1 3.226.627 5.74 3.856 6.79zm.83-2.555c-1.407-.457-2.075-1.797-1.608-3.233s1.795-2.127 3.202-1.67 2.075 1.797 1.608 3.233-1.795 2.128-3.202 1.67zm17.504-2.56c-1.54-.5-2.905-.115-3.87 1l-.012-.006.6-1.85-3.07-.997-3.13 9.63 3.07.997 1.64-5.048c.434-1.335 1.47-1.933 2.66-1.547 1.065.346 1.474 1.228 1.102 2.373l-1.757 5.407 3.088 1.003 1.954-6.014c.74-2.276-.068-4.13-2.078-4.88l-.2-.07zm6.115 5.344l-.904 2.783 7.247 2.355.904-2.78-7.246-2.357zm21.472-.426l-6.414 9.38-.1-.03.323-11.36-3.485-1.132.06 14.924 4.255 1.382 8.82-12.04-3.467-1.126zm6.213 17.136c3.23 1.05 6.154-.284 7.1-3.226s-.627-5.74-3.856-6.79-6.154.284-7.1 3.226.627 5.74 3.856 6.79zm.83-2.555c-1.407-.457-2.075-1.797-1.608-3.233s1.795-2.127 3.202-1.67 2.075 1.797 1.608 3.233-1.795 2.128-3.202 1.67zm8.9 5.504l3.024.983 2.327-7.162 2.534.823.802-2.467-2.534-.823.92-2.83-2.615-.85-.515 1.348c-.416 1.092-1.012 1.46-1.983 1.227l-.653-.158-.71 2.184 1.73.562-2.327 7.163zm16.505.98c-.453.93-1.55 1.292-2.72.913-1.365-.444-2.005-1.625-1.602-3.18l7.47 2.427c1.154-3.114-.26-5.696-3.443-6.73-3.15-1.023-5.997.327-6.95 3.26-.95 2.92.53 5.727 3.77 6.78 2.87.933 5.593.006 6.6-2.452l-3.125-1.015zm-1.023-4.41c.982.32 1.54.994 1.595 1.887l-4.075-1.324c.575-.6 1.362-.856 2.28-.62l.2.058zm15.5 2.636c-1.69-.55-3.065.166-4.255 2.214l-.017-.007.994-3.06-2.95-.958-3.13 9.63 3.07.997 1.08-3.328c.708-2.18 1.957-3.15 4.022-2.48l.334.1.348.127.995-3.062-.333-.13-.16-.055zm-118.922-.443l3.428 1.114-1.16-15.282-4.368-1.42-9.928 11.68 3.404 1.106 3.05-3.727 5.3 1.722.276 4.807zm-.754-12.637l.17.055.04 1.076.068 1.664.12 2.217-3.5-1.138 1.392-1.71.868-1.09.577-.734.265-.34zm16.3 6.83c-1.69-.55-3.065.166-4.255 2.214l-.017-.007.994-3.06-2.95-.958-3.13 9.63 3.07.997 1.08-3.328c.708-2.18 1.957-3.15 4.022-2.48l.334.1.348.127.995-3.062-.333-.13-.16-.055zm8.51 9.24c-.453.93-1.55 1.292-2.72.913-1.365-.444-2.005-1.625-1.602-3.18l7.47 2.427c1.154-3.114-.26-5.696-3.443-6.73-3.15-1.023-5.997.327-6.95 3.26-.95 2.92.53 5.727 3.77 6.78 2.87.933 5.593.006 6.6-2.452l-3.125-1.015zm-1.023-4.41c.982.32 1.54.994 1.595 1.887l-4.075-1.324c.575-.6 1.362-.856 2.28-.62l.2.058zm17.568 14.17l3.197 1.04 1.52-4.68 7.733-7.217-3.6-1.17-4.658 4.754-.075-.024-.975-6.584-3.637-1.182 2.015 10.384-1.52 4.68zm14.244 4.84c3.23 1.05 6.154-.284 7.1-3.226s-.627-5.74-3.856-6.79-6.154.284-7.1 3.226.627 5.74 3.856 6.79zm.83-2.555c-1.407-.457-2.075-1.797-1.608-3.233s1.795-2.127 3.202-1.67 2.075 1.797 1.608 3.233-1.795 2.128-3.202 1.67zm17.68-2.29l-1.64 5.05c-.434 1.335-1.47 1.933-2.66 1.547-1.065-.346-1.474-1.228-1.102-2.373l1.757-5.407-3.088-1.003-1.954 6.014c-.763 2.35.122 4.25 2.276 4.95 1.54.5 2.905.115 3.87-1l.012.006-.6 1.85 3.07.997 3.13-9.63-3.07-.997zm8.755 8.3c2.403.78 4.38.147 5.056-1.576l-2.668-.867c-.344.57-1.033.767-1.842.504-.723-.235-1.153-.714-.98-1.25.16-.496.66-.5 1.064-.428l2.13.43c1.817.374 2.954-.1 3.392-1.438.578-1.78-.575-3.5-3.085-4.306-2.517-.818-4.647-.164-5.3 1.702l2.7.874c.337-.67 1.12-.894 2.058-.59.828.27 1.284.788 1.108 1.332-.16.496-.667.5-1.073.418l-2.263-.45c-1.718-.35-2.797.128-3.226 1.45-.556 1.7.468 3.307 2.713 4.116l.23.078zm-1.516 4.898c1.26.41 2.47-.12 2.83-1.23s-.308-2.252-1.566-2.66-2.47.12-2.83 1.232.31 2.25 1.567 2.66zm-62.04 6.547l-1.527-2.997c1.2-.856 2.152-2.1 2.657-3.655 1.286-3.958-.898-7.957-5.08-9.315-4.188-1.36-8.306.59-9.592 4.55s.898 7.957 5.086 9.318c1.48.48 2.955.547 4.297.255l1.6 3.15 2.548-1.304zm-1.953-7.654c-.258.794-.673 1.45-1.2 1.95l-3.928-7.718c.7-.106 1.458-.042 2.236.21 2.433.79 3.62 2.97 2.956 5.346l-.063.2zM90.6 161.59c.26-.798.678-1.46 1.21-1.96l3.928 7.727c-.7.107-1.46.044-2.24-.21-2.44-.793-3.63-2.973-2.963-5.348l.064-.2zm18.742 13.754c3.48 1.13 6.352-.277 7.447-3.647l2.66-8.187-3.197-1.04-2.64 8.127c-.523 1.61-1.797 2.302-3.285 1.818-1.514-.492-2.126-1.8-1.607-3.408l2.64-8.127-3.258-1.06-2.66 8.187c-1.073 3.3.343 6.07 3.666 7.254l.235.08zm10.054 3.054l3.197 1.04 4.38-13.48-3.197-1.04-4.38 13.48zm11.83.767l6.757 2.195-.904 2.783-10.682-3.47.68-2.097 9.087-6.556-5.96-1.937.904-2.783 9.886 3.212-.682 2.097-9.087 6.556z" fill="#000" fill-rule="nonzero"/></svg>