<?xml version="1.0" encoding="UTF-8"?>
<svg width="252px" height="252px" viewBox="0 0 252 252" version="1.1" xmlns="http://www.w3.org/2000/svg" xmlns:xlink="http://www.w3.org/1999/xlink">
    <!-- Generator: Sketch 58 (84663) - https://sketch.com -->
    <title>quiz button</title>
    <desc>Created with Sketch.</desc>
    <g id="Desktop-Story" stroke="none" stroke-width="1" fill="none" fill-rule="evenodd">
        <g id="Landing---Story" transform="translate(-1101.000000, -6942.000000)">
            <g id="6_DEMOGRAPHICS" transform="translate(0.000000, 6846.000000)">
                <g id="quiz-button" transform="translate(1228.000000, 222.000000) rotate(35.000000) translate(-1228.000000, -222.000000) translate(1069.000000, 63.000000)">
                    <polygon id="Star" fill="#F8D705" transform="translate(158.624996, 158.624996) rotate(-17.000000) translate(-158.624996, -158.624996) " points="158.624996 254.859264 128.255839 281.837509 113.902702 243.836208 74.4747327 253.611007 79.425746 213.292291 39.9714377 203.624355 63.0923841 170.224755 32.650243 143.328891 68.6443923 124.499854 54.188346 86.5375813 94.8098723 86.592612 99.6516268 46.2606291 135.594628 65.1871209 158.624996 31.7249992 181.655364 65.1871209 217.598365 46.2606291 222.440119 86.592612 263.061646 86.5375813 248.605599 124.499854 284.599749 143.328891 254.157607 170.224755 277.278554 203.624355 237.824246 213.292291 242.775259 253.611007 203.34729 243.836208 188.994153 281.837509"></polygon>
                    <path d="M105.452217,132.794536 L109.071702,132.794536 L111.4286,122.992726 L111.532077,122.992726 L113.997312,132.794536 L117.508055,132.794536 L120.841205,118.619536 L117.397287,118.619536 L115.622577,128.648146 L115.518897,128.648146 L113.225585,118.972696 L109.816093,118.972696 L107.549915,128.630123 L107.446032,128.630123 L105.671728,118.619536 L102.146608,118.619536 L105.452217,132.794536 Z M130.895532,122.467036 C129.277354,122.467036 128.097792,123.255166 127.523097,124.615763 L127.514187,124.614751 L127.514187,118.214536 L124.285122,118.214536 L124.285122,122.669536 L124.282692,122.669536 L124.282692,132.794536 L127.514187,132.794536 L127.514187,127.302331 C127.581619,126.005116 128.366307,125.193293 129.561664,125.193293 C130.681489,125.193293 131.342854,125.906093 131.342854,127.109753 L131.342854,132.794536 L134.589942,132.794536 L134.589942,126.471473 C134.589942,124.07798 133.248629,122.564 131.105608,122.471713 L130.895532,122.467036 Z M146.234704,122.669536 L146.234704,124.607866 L146.200887,124.614346 C145.568884,123.242206 144.356112,122.467036 142.744212,122.467036 C139.965709,122.467036 137.857887,124.724911 137.857887,127.739934 C137.857887,130.770549 139.983732,132.996834 142.744414,132.996834 C144.374134,132.996834 145.574149,132.208704 146.200279,130.849726 L146.234906,130.856206 L146.234906,132.794334 L149.469439,132.794334 L149.469439,122.669334 L146.234704,122.669536 Z M143.758939,130.278677 C142.252946,130.278677 141.187796,129.223651 141.187796,127.731834 C141.187796,126.244877 142.250719,125.185194 143.756509,125.185194 C145.267159,125.185194 146.335549,126.242649 146.335549,127.731834 C146.335549,129.218994 145.269589,130.278677 143.758939,130.278677 Z M154.517562,132.794536 L157.697621,132.794536 L157.697621,125.263561 L160.362319,125.263561 L160.362319,122.669739 L157.697621,122.669739 L157.697621,119.695419 L154.947671,119.695419 L154.874771,121.136409 C154.816249,122.304024 154.364269,122.838826 153.367766,122.916181 L152.697896,122.967414 L152.697896,125.263359 L154.517763,125.263359 L154.517562,132.794536 Z M179.415341,132.794536 L183.582993,132.794536 L178.010396,125.563058 L183.479516,118.619738 L179.447133,118.619738 L175.052073,124.758728 L175.027773,124.753058 L175.027773,118.619941 L171.666274,118.619941 L171.666274,132.794941 L175.027773,132.794941 L175.027773,126.702324 L175.052073,126.696856 L179.415341,132.794536 Z M188.746541,121.489164 C190.069878,121.489164 191.058483,120.611124 191.058483,119.444521 C191.058483,118.275691 190.069878,117.397651 188.746541,117.397651 C187.423203,117.397651 186.434598,118.275691 186.434598,119.444521 C186.434598,120.611124 187.423203,121.489164 188.746541,121.489164 Z M187.134236,132.794536 L190.369173,132.794536 L190.369173,122.669536 L187.134236,122.669536 L187.134236,132.794536 Z M201.093168,122.467036 C199.47499,122.467036 198.295226,123.255166 197.720733,124.615763 L197.707166,124.614346 L197.707166,122.669536 L194.480328,122.669536 L194.480328,132.794536 L197.707166,132.794536 L197.707166,127.486403 C197.707166,126.082471 198.508458,125.193293 199.759503,125.193293 C200.879328,125.193293 201.540693,125.906093 201.540693,127.109753 L201.540693,132.794536 L204.787781,132.794536 L204.787781,126.471473 C204.787781,124.07798 203.446468,122.563999 201.303447,122.471713 L201.093168,122.467036 Z M216.440237,118.214536 L216.440237,124.608271 L216.407837,124.614346 C215.775835,123.242206 214.563062,122.467036 212.951162,122.467036 C210.17266,122.467036 208.06504,124.724911 208.06504,127.739934 C208.06504,130.770549 210.19048,132.996834 212.951162,132.996834 C214.581085,132.996834 215.780897,132.208704 216.407027,130.849726 L216.440237,130.855801 L216.440237,132.794334 L219.674972,132.794334 L219.674972,118.214334 L216.440237,118.214536 Z M213.965687,130.278676 C212.459695,130.278676 211.394545,129.223651 211.394545,127.731834 C211.394545,126.244876 212.45767,125.185194 213.963662,125.185194 C215.444747,125.185194 216.500987,126.201744 216.541487,127.645164 L216.541487,127.818301 C216.502607,129.201846 215.530047,130.196093 214.141757,130.273419 L213.965687,130.278676 Z M91.8737828,158.997036 C95.2691002,158.997036 97.6387552,156.825223 97.6387552,153.732036 C97.6387552,150.638848 95.2691002,148.467036 91.8737828,148.467036 C88.4786678,148.467036 86.1088104,150.638848 86.1088104,153.732036 C86.1088104,156.825223 88.4786678,158.997036 91.8737828,158.997036 Z M91.8737828,156.310468 C90.3945203,156.310468 89.3449628,155.243091 89.3449628,153.732441 C89.3449628,152.221993 90.3945203,151.154616 91.8737828,151.154616 C93.3530453,151.154616 94.4026028,152.221993 94.4026028,153.732441 C94.4026028,155.243091 93.3530453,156.310468 91.8737828,156.310468 Z M107.138637,146.714601 C107.514882,146.714601 107.908137,146.756519 108.29795,146.835696 L108.29795,144.222637 C107.767197,144.085544 107.147952,144.012441 106.543085,144.012441 C103.767012,144.012441 102.116232,145.593764 102.116232,148.155591 L102.116232,148.669536 L100.296365,148.669536 L100.296365,151.294544 L102.116232,151.294544 L102.116232,158.794334 L105.296292,158.794334 L105.296292,151.294544 L108.298355,151.294544 L108.298355,148.669536 L105.296292,148.669536 L105.296292,148.288026 C105.296292,147.271709 105.808558,146.766744 106.952539,146.718788 L107.138637,146.714601 Z M119.614055,158.794536 L122.685777,158.794536 L122.685777,149.554664 L122.738427,149.536641 L128.84765,158.794536 L132.019812,158.794536 L132.019812,144.619536 L128.948292,144.619536 L128.948292,153.859611 L128.903135,153.877633 L122.786217,144.619536 L119.613852,144.619536 L119.614055,158.794536 Z M141.587532,158.997036 C144.982849,158.997036 147.352504,156.825223 147.352504,153.732036 C147.352504,150.638848 144.982849,148.467036 141.587532,148.467036 C138.192417,148.467036 135.822559,150.638848 135.822559,153.732036 C135.822559,156.825223 138.192417,158.997036 141.587532,158.997036 Z M141.587532,156.310468 C140.108269,156.310468 139.058712,155.243091 139.058712,153.732441 C139.058712,152.221993 140.108269,151.154616 141.587532,151.154616 C143.066794,151.154616 144.116352,152.221993 144.116352,153.732441 C144.116352,155.243091 143.066794,156.310468 141.587532,156.310468 Z M157.444294,148.467036 C155.826116,148.467036 154.646352,149.255166 154.071859,150.615763 L154.058292,150.614346 L154.058292,148.669536 L150.831454,148.669536 L150.831454,158.794536 L154.058292,158.794536 L154.058292,153.486403 C154.058292,152.082471 154.859584,151.193293 156.110629,151.193293 C157.230454,151.193293 157.891819,151.906093 157.891819,153.109753 L157.891819,158.794536 L161.138907,158.794536 L161.138907,152.471473 C161.138907,150.07798 159.797594,148.563999 157.654573,148.471713 L157.444294,148.467036 Z M164.911076,151.659651 L164.911076,154.586383 L172.530746,154.586383 L172.530746,151.661878 L164.911076,151.659651 Z M185.200361,144.619536 L181.999443,155.523351 L181.904471,155.523351 L178.700718,144.619536 L175.036278,144.619536 L179.704105,158.794536 L184.177735,158.794536 L188.84536,144.619536 L185.200361,144.619536 Z M196.404281,158.997036 C199.799598,158.997036 202.169253,156.825223 202.169253,153.732036 C202.169253,150.638848 199.799598,148.467036 196.404281,148.467036 C193.009166,148.467036 190.639308,150.638848 190.639308,153.732036 C190.639308,156.825223 193.009166,158.997036 196.404281,158.997036 Z M196.404281,156.310468 C194.925018,156.310468 193.875461,155.243091 193.875461,153.732441 C193.875461,152.221993 194.925018,151.154616 196.404281,151.154616 C197.883543,151.154616 198.933101,152.221993 198.933101,153.732441 C198.933101,155.243091 197.883543,156.310468 196.404281,156.310468 Z M206.570185,158.794536 L209.750245,158.794536 L209.750245,151.263561 L212.414943,151.263561 L212.414943,148.669739 L209.750245,148.669739 L209.750245,145.695419 L207.000295,145.695419 L206.927395,147.136409 C206.868873,148.304024 206.416892,148.838826 205.42039,148.916181 L204.75052,148.967414 L204.75052,151.263359 L206.570387,151.263359 L206.570185,158.794536 Z M222.570115,154.625466 C222.426947,155.649913 221.493827,156.333553 220.266272,156.333553 C218.830952,156.333553 217.856725,155.407521 217.759525,153.803721 L225.612475,153.803721 C225.747947,150.485151 223.603675,148.467036 220.258375,148.467036 C216.9475,148.467036 214.656415,150.631558 214.656415,153.713608 C214.656415,156.78371 216.92968,158.99663 220.335933,158.99663 C223.353992,158.99663 225.65743,157.27376 225.85588,154.625263 L222.570115,154.625466 Z M220.23448,150.746578 C221.26723,150.746578 222.00595,151.215771 222.33481,152.048451 L218.050315,152.048451 C218.408659,151.290183 219.081171,150.813273 220.027351,150.753055 L220.23448,150.746578 Z M235.780607,148.467036 C234.004885,148.467036 232.916852,149.571876 232.418297,151.887261 L232.400275,151.885843 L232.400275,148.669536 L229.3,148.669536 L229.3,158.794535 L232.526837,158.794535 L232.526837,155.295335 C232.526837,153.004656 233.414395,151.694481 235.586207,151.694481 L235.937848,151.696404 C236.064512,151.698328 236.194214,151.702176 236.307715,151.709871 L236.307715,148.490728 C236.18986,148.480468 236.067505,148.473538 235.95061,148.470058 L235.780607,148.467036 Z M122.542205,184.794536 L126.146705,184.794536 L120.32078,170.619536 L115.727472,170.619536 L109.894055,184.794536 L113.472837,184.794536 L115.222235,180.307743 L120.794225,180.307743 L122.542205,184.794536 Z M117.920345,173.008833 L118.09895,173.008833 L118.469946,174.019804 C118.666703,174.551187 118.872136,175.101509 119.049283,175.581191 L119.848752,177.652766 L116.167302,177.652766 L116.963127,175.596783 L117.451077,174.290658 C117.561861,173.991701 117.671217,173.694543 117.773151,173.414396 L117.920345,173.008833 Z M135.532984,174.467036 C133.757262,174.467036 132.669229,175.571876 132.170674,177.887261 L132.152652,177.885843 L132.152652,174.669536 L129.052377,174.669536 L129.052377,184.794535 L132.279214,184.794535 L132.279214,181.295335 C132.279214,179.004656 133.166772,177.694481 135.338584,177.694481 L135.690226,177.696404 C135.816889,177.698328 135.946591,177.702176 136.060092,177.709871 L136.060092,174.490728 C135.942237,174.480468 135.819882,174.473538 135.702987,174.470058 L135.532984,174.467036 Z M146.480742,180.625466 C146.337574,181.649913 145.404454,182.333553 144.176899,182.333553 C142.741579,182.333553 141.767352,181.407521 141.670151,179.803721 L149.523101,179.803721 C149.658574,176.485151 147.514301,174.467036 144.169002,174.467036 C140.858127,174.467036 138.567042,176.631558 138.567042,179.713608 C138.567042,182.78371 140.840307,184.99663 144.246559,184.99663 C147.264619,184.99663 149.568056,183.27376 149.766506,180.625263 L146.480742,180.625466 Z M144.145106,176.746578 C145.177856,176.746578 145.916576,177.215771 146.245436,178.048451 L141.960941,178.048451 C142.319286,177.290183 142.991798,176.813273 143.937977,176.753055 L144.145106,176.746578 Z M165.232444,184.794536 L168.593944,184.794536 L168.593944,179.873381 L173.718611,170.619738 L169.933076,170.619738 L166.971716,176.580326 L166.893146,176.580326 L163.931786,170.619738 L160.107979,170.619738 L165.232848,179.873381 L165.232444,184.794536 Z M180.275156,184.997036 C183.670473,184.997036 186.040128,182.825223 186.040128,179.732036 C186.040128,176.638848 183.670473,174.467036 180.275156,174.467036 C176.880041,174.467036 174.510184,176.638848 174.510184,179.732036 C174.510184,182.825223 176.880041,184.997036 180.275156,184.997036 Z M180.275156,182.310468 C178.795893,182.310468 177.746336,181.243091 177.746336,179.732441 C177.746336,178.221993 178.795893,177.154616 180.275156,177.154616 C181.754418,177.154616 182.803976,178.221993 182.803976,179.732441 C182.803976,181.243091 181.754418,182.310468 180.275156,182.310468 Z M196.383828,174.669536 L196.383828,179.977871 C196.383828,181.381803 195.582738,182.270981 194.331896,182.270981 C193.211868,182.270981 192.550503,181.558181 192.550503,180.354521 L192.550503,174.669536 L189.303416,174.669536 L189.303416,180.992801 C189.303416,183.463503 190.732661,184.996833 192.997623,184.996833 C194.615801,184.996833 195.795566,184.208703 196.370058,182.848511 L196.383625,182.849928 L196.383625,184.794536 L199.610463,184.794536 L199.610463,174.669536 L196.383828,174.669536 Z M207.275898,179.858599 C209.802288,179.858599 211.48567,178.644813 211.597045,176.797001 L208.791813,176.797001 C208.640748,177.446621 208.046005,177.845343 207.195505,177.845343 C206.435118,177.845343 205.878648,177.522963 205.878648,176.959406 C205.878648,176.437563 206.348245,176.270906 206.757903,176.223723 L208.91635,175.975661 C210.759505,175.769718 211.698093,174.977336 211.698093,173.559836 C211.698093,171.687926 210.07303,170.418048 207.433038,170.418048 C204.78616,170.418048 202.962243,171.697848 202.91749,173.675058 L205.746213,173.675058 C205.859815,172.934921 206.53576,172.478486 207.521328,172.478486 C208.391673,172.478486 208.986415,172.831038 208.986415,173.403101 C208.986415,173.924336 208.506692,174.085121 208.094605,174.132303 L205.803115,174.403856 C204.060805,174.601901 203.18236,175.389829 203.18236,176.778979 C203.18236,178.577375 204.649463,179.779144 207.034184,179.854806 L207.275898,179.858599 Z M207.347987,184.985493 C208.671527,184.985493 209.660132,184.107656 209.660132,182.941256 C209.660132,181.772628 208.671527,180.894386 207.347987,180.894386 C206.024852,180.894386 205.036247,181.772628 205.036247,182.941256 C205.036247,184.107656 206.024852,184.985493 207.347987,184.985493 Z M150.368944,210.383258 L147.990176,208.004491 C148.876721,206.816018 149.387629,205.341413 149.387629,203.707441 C149.387629,199.546066 146.074324,196.417441 141.679062,196.417441 C137.275902,196.417441 133.962597,199.546066 133.962597,203.707441 C133.962597,207.868816 137.275902,210.99744 141.679062,210.99744 C143.236691,210.99744 144.658444,210.604793 145.844689,209.91204 L148.349006,212.41089 L150.368944,210.383258 Z M146.146617,203.707643 C146.146617,204.542146 145.955051,205.295851 145.606954,205.933726 L139.486392,199.807493 C140.119204,199.490783 140.859949,199.317241 141.678454,199.317241 C144.236723,199.317241 146.040745,201.023709 146.141744,203.488056 L146.146617,203.707643 Z M137.202596,203.707441 C137.202596,202.867876 137.396592,202.109918 137.749144,201.469411 L143.872339,207.604553 C143.239122,207.923085 142.497364,208.098045 141.678049,208.098045 C139.112108,208.098045 137.308058,206.391577 137.207064,203.927045 L137.202596,203.707441 Z M159.277121,210.997036 C162.935486,210.997036 165.232646,208.770346 165.232646,205.227811 L165.232646,196.619941 L161.871146,196.619941 L161.871146,205.165238 C161.871146,206.858948 160.873631,207.909721 159.308306,207.909721 C157.716049,207.909721 156.726634,206.845178 156.726634,205.165238 L156.726634,196.619941 L153.301144,196.619941 L153.301144,205.22781 C153.301144,208.699134 155.503777,210.895759 159.029038,210.993812 L159.277121,210.997036 Z M169.782821,210.794536 L173.144321,210.794536 L173.144321,196.619536 L169.782821,196.619536 L169.782821,210.794536 Z M181.270241,207.868006 L188.374751,207.868005 L188.374751,210.794535 L177.142886,210.794535 L177.142886,208.589311 L183.759168,199.546471 L177.491591,199.546471 L177.491591,196.619738 L187.886321,196.619738 L187.886321,198.825166 L181.270241,207.868006 Z" id="WhatKindofNon-VoterAreYou?QUIZ" fill="#000000" fill-rule="nonzero" transform="translate(161.208263, 164.904271) rotate(-17.000000) translate(-161.208263, -164.904271) "></path>
                </g>
            </g>
        </g>
    </g>
</svg>