<?xml version="1.0" encoding="UTF-8"?>
<svg width="221px" height="221px" viewBox="0 0 221 221" version="1.1" xmlns="http://www.w3.org/2000/svg" xmlns:xlink="http://www.w3.org/1999/xlink">
    <!-- Generator: Sketch 58 (84663) - https://sketch.com -->
    <title>average-nonvoter</title>
    <desc>Created with Sketch.</desc>
    <g id="Desktop-Story" stroke="none" stroke-width="1" fill="none" fill-rule="evenodd">
        <g id="Landing---Story" transform="translate(-1078.000000, -8338.000000)">
            <g id="6_DEMOGRAPHICS" transform="translate(0.000000, 6846.000000)">
                <g id="average-nonvoter" transform="translate(1188.500000, 1602.532071) rotate(-7.000000) translate(-1188.500000, -1602.532071) translate(1049.000000, 1463.032071)">
                    <polygon id="Star" fill="#42B989" transform="translate(139.237493, 139.237493) rotate(-17.000000) translate(-139.237493, -139.237493) " points="139.237493 216.737559 110.407641 246.831966 100.487461 206.354519 60.4728727 218.002114 72.1204679 177.987526 31.6430207 168.067345 61.737428 139.237493 31.6430207 110.407641 72.1204679 100.487461 60.4728727 60.4728727 100.487461 72.1204679 110.407641 31.6430207 139.237493 61.737428 168.067345 31.6430207 177.987526 72.1204679 218.002114 60.4728727 206.354519 100.487461 246.831966 110.407641 216.737559 139.237493 246.831966 168.067345 206.354519 177.987526 218.002114 218.002114 177.987526 206.354519 168.067345 246.831966"></polygon>
                    <path d="M101.737634,131.898615 L104.901584,131.898615 L99.7877171,119.456116 L95.755814,119.456116 L90.6353699,131.898615 L93.7767454,131.898615 L95.3123276,127.960208 L100.203296,127.960208 L101.737634,131.898615 Z M97.6806686,121.553388 L97.8374442,121.553388 L98.671625,123.811346 L98.671625,123.811346 L99.3733819,125.629728 L96.141887,125.629728 L96.8404446,123.825033 L97.1810392,122.914788 C97.298067,122.60019 97.4155612,122.2821 97.5244323,121.983588 L97.6806686,121.553388 Z M114.54861,119.456116 L111.738915,129.027242 L111.655551,129.027242 L108.843368,119.456116 L105.626804,119.456116 L109.724119,131.898615 L113.650972,131.898615 L117.748109,119.456116 L114.54861,119.456116 Z M128.305037,121.868894 L128.305037,119.456294 L120.68525,119.456294 L120.68525,131.898793 L128.305037,131.898793 L128.305037,129.48637 L123.539737,129.48637 L123.539737,126.707071 L128.209763,126.707071 L128.209763,124.308335 L123.539737,124.308335 L123.539737,121.86925 L128.305037,121.868894 Z M139.93042,131.898615 L143.74689,131.898615 L139.127345,126.858336 C140.903246,126.486306 142.044934,125.071594 142.043156,123.204686 C142.041378,120.944417 140.340489,119.456471 137.847367,119.456471 L132.184786,119.456471 L132.184786,131.898971 L135.06398,131.898971 L135.06398,126.964453 L135.704413,126.962676 L139.93042,131.898615 Z M135.06398,121.821257 L137.250838,121.821257 C138.394304,121.821257 139.088773,122.438049 139.088773,123.431672 C139.088773,124.427072 138.394304,125.05293 137.250838,125.05293 L135.06398,125.05293 L135.06398,121.821257 Z M156.253557,131.898615 L159.417507,131.898615 L154.30364,119.456116 L150.271737,119.456116 L145.151292,131.898615 L148.292668,131.898615 L149.82825,127.960208 L154.719219,127.960208 L156.253557,131.898615 Z M152.196591,121.553388 L152.353367,121.553388 L153.187548,123.811346 L153.187548,123.811346 L153.889305,125.629728 L150.65781,125.629728 L151.356367,123.825033 L151.871717,122.443156 L151.871717,122.443156 L152.196591,121.553388 Z M174.448935,124.426539 L167.867208,124.426539 L167.867208,126.740666 L171.431984,126.740666 C171.054088,128.461819 169.779443,129.483171 167.852988,129.483171 C165.51842,129.483171 164.042206,127.982961 164.042206,125.706517 C164.042206,123.384924 165.577433,121.871738 167.771401,121.871738 C169.034848,121.871738 170.08695,122.391657 170.671747,123.238991 L173.925105,123.238991 C173.136073,120.785508 170.722228,119.278721 167.796819,119.278721 C163.88863,119.278721 160.99806,121.969323 160.99806,125.729268 C160.99806,129.431801 163.800999,132.076365 167.790953,132.076365 C172.086661,132.076365 174.741824,129.018915 174.468406,124.683051 L174.448935,124.426539 L174.448935,124.426539 Z M185.540534,121.868894 L185.540534,119.456294 L177.920748,119.456294 L177.920748,131.898793 L185.540534,131.898793 L185.540534,129.48637 L180.775235,129.48637 L180.775235,126.707071 L185.44526,126.707071 L185.44526,124.308335 L180.775235,124.308335 L180.775235,121.86925 L185.540534,121.868894 Z M78.9838579,154.898615 L81.6801476,154.898615 L81.6801476,146.788061 L81.7263627,146.772241 L87.0889022,154.898615 L89.8733557,154.898615 L89.8733557,142.456116 L87.177244,142.456116 L87.177244,150.566848 L87.1376058,150.582668 L81.7683117,142.456116 L78.9836803,142.456116 L78.9838579,154.898615 Z M99.9782649,155.076365 C103.843083,155.076365 106.744674,152.330128 106.744674,148.677365 C106.744674,145.024603 103.843083,142.278366 99.9782649,142.278366 C96.1065144,142.278366 93.2049235,145.024603 93.2049235,148.677365 C93.2049235,152.330128 96.1065144,155.076365 99.9782649,155.076365 Z M99.9782649,152.421491 C97.8317561,152.421491 96.3111048,150.868312 96.3111048,148.677543 C96.3111048,146.486774 97.8317561,144.933773 99.9782649,144.933773 C102.124952,144.933773 103.638671,146.486774 103.638671,148.677543 C103.638671,150.868312 102.124952,152.421491 99.9782649,152.421491 Z M110.072332,154.898615 L112.768621,154.898615 L112.768621,146.788061 L112.814836,146.772241 L118.177376,154.898615 L120.961829,154.898615 L120.961829,142.456116 L118.265718,142.456116 L118.265718,150.566848 L118.226079,150.582668 L112.856785,142.456116 L110.072154,142.456116 L110.072332,154.898615 Z M124.823626,148.635772 L124.823626,151.204793 L131.512002,151.204793 L131.512002,148.637727 L124.823626,148.635772 Z M142.633108,142.456116 L139.823414,152.027242 L139.740049,152.027242 L136.927867,142.456116 L133.711303,142.456116 L137.808618,154.898615 L141.73547,154.898615 L145.832608,142.456116 L142.633108,142.456116 Z M154.689712,155.076365 C158.55453,155.076365 161.456121,152.330128 161.456121,148.677365 C161.456121,145.024603 158.55453,142.278366 154.689712,142.278366 C150.817962,142.278366 147.916371,145.024603 147.916371,148.677365 C147.916371,152.330128 150.817962,155.076365 154.689712,155.076365 Z M154.689712,152.421491 C152.543204,152.421491 151.022552,150.868312 151.022552,148.677543 C151.022552,146.486774 152.543204,144.933773 154.689712,144.933773 C156.836399,144.933773 158.350118,146.486774 158.350118,148.677543 C158.350118,150.868312 156.836399,152.421491 154.689712,152.421491 Z M173.053597,142.456116 L163.760295,142.456116 L163.760295,145.122899 L166.93491,145.122899 L166.93491,154.898437 L169.885559,154.898437 L169.885559,145.122899 L173.053597,145.122899 L173.053597,142.456116 Z M183.727484,144.868894 L183.727484,142.456294 L176.107698,142.456294 L176.107698,154.898793 L183.727484,154.898793 L183.727484,152.48637 L178.962185,152.48637 L178.962185,149.707071 L183.63221,149.707071 L183.63221,147.308335 L178.962185,147.308335 L178.962185,144.86925 L183.727484,144.868894 Z M195.352867,154.898615 L199.169337,154.898615 L194.549793,149.858336 C196.325693,149.486306 197.467381,148.071594 197.465604,146.204686 C197.463826,143.944417 195.762936,142.456471 193.269815,142.456471 L187.607233,142.456471 L187.607233,154.898971 L190.486428,154.898971 L190.486428,149.964453 L191.126861,149.962676 L195.352867,154.898615 Z M190.486428,144.821257 L192.673286,144.821257 C193.816752,144.821257 194.511221,145.438049 194.511221,146.431672 C194.511221,147.427072 193.816752,148.05293 192.673286,148.05293 L190.486428,148.05293 L190.486428,144.821257 Z" id="AVERAGENON-VOTER" fill="#000000" fill-rule="nonzero" transform="translate(139.076509, 137.177543) rotate(-17.000000) translate(-139.076509, -137.177543) "></path>
                </g>
            </g>
        </g>
    </g>
</svg>