<svg xmlns="http://www.w3.org/2000/svg" width="221" height="221" fill-rule="evenodd"><path fill="#f2705e" d="M80.205 181.716l-38.297 16.437 6.684-41.136-41.385-4.913 26.357-32.283L.18 94.875l38.967-14.78L22.7 41.8l41.136 6.684L68.76 7.098l32.283 26.357L125.99.07l14.78 38.967L179.065 22.6l-6.684 41.136 41.385 4.913-26.357 32.283 33.384 24.947-38.967 14.78 16.437 38.297-41.136-6.684-4.913 41.385L119.93 187.3l-24.947 33.384z"/><path d="M80.243 59.296l-7.6-6.385-1.832 2.184 2.6 2.18-6.717 8.005 2.416 2.027 6.717-8.005 2.594 2.177 1.832-2.184zM79.65 76.16l3.125 2.622-.32-7.3c1.7.916 3.617.542 4.898-.988 1.552-1.852 1.18-4.24-.86-5.952l-4.637-3.89-8.55 10.188 2.358 1.978 3.4-4.04.526.44.07 6.945zm2.94-11.595l1.79 1.503c.936.786 1.08 1.768.398 2.58s-1.683.85-2.62.065l-1.79-1.503 2.22-2.646zm9.452 21.993l2.59 2.174 4.362-13.702-3.3-2.77-12.742 6.67 2.572 2.158 3.963-2.17 4.005 3.36-1.45 4.28zm3.786-11.26l.128.108-.868 2.422-.675 1.97-2.646-2.22 1.812-.998 1.37-.777.877-.505zm12.04 7.175l-3.507-2.943-8.55 10.188 3.507 2.943c3.238 2.717 7.203 2.51 9.737-.51s2.05-6.96-1.188-9.678zm-6.76 8.035l-1.08-.906 4.95-5.9 1.08.906c1.702 1.428 1.9 3.674.45 5.404-1.406 1.676-3.558 1.9-5.24.625l-.16-.13zm5.314 8.113l2.416 2.027 8.55-10.188-2.416-2.027-8.55 10.188zm20.182-.427L119 91.81l-1.832 2.184 2.6 2.18-6.717 8.005 2.416 2.027 6.717-8.005 2.594 2.177 1.832-2.184zm-6.938 11.54l2.416 2.027 8.55-10.188-2.416-2.027-8.55 10.188zm9.443 8.17c3.165 2.655 7.427 2.4 9.937-.59s2.02-7.233-1.144-9.89c-3.17-2.66-7.433-2.405-9.943.586s-2.02 7.233 1.15 9.894zm1.824-2.174c-1.758-1.475-1.936-3.79-.43-5.585s3.817-2.02 5.575-.546 1.93 3.787.425 5.58-3.812 2.026-5.57.55zm5.443 8.023l2.208 1.853 5.573-6.64.05.02-1.192 10.34 2.28 1.913 8.55-10.188-2.208-1.852-5.573 6.64-.043-.014 1.187-10.343-2.28-1.913-8.55 10.19zm19.185 16.098l2.59 2.174 4.362-13.702-3.3-2.77-12.742 6.67 2.572 2.158 3.963-2.17 4.005 3.36-1.45 4.28zm3.786-11.26l.128.108-.868 2.422-.675 1.97-2.646-2.22 1.812-.998 1.37-.777.877-.505zm4.228 14.266l6.72-8.007-2.416-2.027-8.55 10.188 6.128 5.142 1.83-2.18-3.71-3.114zM44.948 79.925c3.403 2.855 7.7 2.506 10.098-1.046l-2.532-2.124c-1.504 2.15-3.908 2.535-5.78.965-1.77-1.486-1.98-3.806-.444-5.638 1.498-1.785 3.752-2.053 5.6-.51.987.828 1.54 1.94 1.365 3.124l2.703 2.268c1.1-2.568.17-5.522-2.243-7.547-3.162-2.653-7.438-2.507-10.004.55-2.448 2.917-2.102 6.99 1.045 9.785l.2.173zm12.24 10.27c3.165 2.655 7.427 2.4 9.937-.59s2.02-7.233-1.144-9.89c-3.17-2.66-7.433-2.405-9.943.586s-2.02 7.233 1.15 9.894zm1.824-2.174c-1.758-1.475-1.936-3.79-.43-5.585s3.817-2.02 5.575-.546 1.93 3.787.425 5.58-3.812 2.026-5.57.55zm5.443 8.023l2.208 1.853 5.573-6.64.05.02-1.192 10.34 2.28 1.913 8.55-10.188-2.208-1.852-5.573 6.64-.043-.014 1.187-10.343-2.28-1.913-8.55 10.19zM79.8 109.16c2.787 2.338 5.67 2.366 7.46.234 1.455-1.734 1.192-3.686-.67-5.692l-1.693-1.827-.155-.183c-.385-.477-.7-1.1-.233-1.658.5-.595 1.35-.535 2.1.095.843.708 1.046 1.538.582 2.427l2.6 2.143c1.372-1.936.763-4.37-1.554-6.315-2.38-1.996-4.798-1.997-6.374-.118-1.303 1.553-1.103 3.26.6 5.11l1.847 1.998c.5.558.936 1.27.28 2.052-.71.847-1.868.753-3.05-.24-1.453-1.22-1.68-2.723-.608-4.18l-2.735-2.295c-1.86 2.407-1.556 5.662 1.393 8.27l.2.18zm19.18 1.85l1.658-1.976-6.24-5.235-8.55 10.188 6.24 5.235 1.658-1.975-3.902-3.274 1.9-2.276 3.824 3.21 1.648-1.964-3.824-3.21 1.676-1.997 3.902 3.274zm1.245 15.04l3.125 2.622-.32-7.3c1.7.916 3.617.542 4.898-.988 1.552-1.852 1.18-4.24-.86-5.952l-4.637-3.89-8.55 10.188 2.358 1.978 3.4-4.04.526.44.07 6.945zm2.94-11.595l1.79 1.503c.936.786 1.08 1.768.398 2.58s-1.683.85-2.62.065l-1.79-1.503 2.22-2.646zM119.665 125l-8.877 5.907-.068-.057 4.273-9.77-2.634-2.2-5.194 13.004 3.215 2.698 11.904-7.373-2.62-2.198zm3.84 20.585l2.59 2.174 4.362-13.702-3.3-2.77-12.742 6.67 2.572 2.158 3.963-2.17 4.005 3.36-1.45 4.28zm3.786-11.26l.128.108-.868 2.422-.675 1.97-2.646-2.22 1.812-.998 1.37-.777.877-.505zm15.783 10.317l-7.6-6.385-1.832 2.184 2.6 2.18-6.717 8.005 2.416 2.027 6.717-8.005 2.594 2.177 1.832-2.184zm-6.938 11.54l2.416 2.027 8.55-10.188-2.416-2.027-8.55 10.188zm19.74-.798L147 161.303l-.068-.057 4.273-9.77-2.634-2.2-5.194 13.004 3.215 2.698 11.904-7.373-2.62-2.198zm8.646 10.62l-3.902-3.274-1.676 1.997 3.824 3.21-1.648 1.964-3.824-3.21-1.9 2.276 3.902 3.274-1.658 1.975-6.24-5.235 8.55-10.188 6.24 5.235-1.658 1.976z" fill="#fff" fill-rule="nonzero"/></svg>