<?xml version="1.0" encoding="UTF-8"?>
<svg width="223px" height="224px" viewBox="0 0 223 224" version="1.1" xmlns="http://www.w3.org/2000/svg" xmlns:xlink="http://www.w3.org/1999/xlink">
    <!-- Generator: Sketch 58 (84663) - https://sketch.com -->
    <title>non-participators</title>
    <desc>Created with Sketch.</desc>
    <g id="Desktop-Story" stroke="none" stroke-width="1" fill="none" fill-rule="evenodd">
        <g id="Landing---Story" transform="translate(-897.000000, -8716.000000)">
            <g id="6_DEMOGRAPHICS" transform="translate(0.000000, 6846.000000)">
                <g id="non-participators" transform="translate(874.000000, 1848.000000)">
                    <polygon id="Star" fill="#D8D8D8" transform="translate(134.403916, 134.141409) rotate(13.000000) translate(-134.403916, -134.141409) " points="134.403916 211.641474 105.574064 241.735882 95.6538832 201.258435 55.6392953 212.90603 67.2868905 172.891442 26.8094433 162.971261 56.9038506 134.141409 26.8094433 105.311557 67.2868905 95.3913765 55.6392953 55.3767886 95.6538832 67.0243838 105.574064 26.5469366 134.403916 56.6413438 163.233768 26.5469366 173.153949 67.0243838 213.168536 55.3767886 201.520941 95.3913765 241.998388 105.311557 211.903981 134.141409 241.998388 162.971261 201.520941 172.891442 213.168536 212.90603 173.153949 201.258435 163.233768 241.735882"></polygon>
                    <path d="M111.578191,124.34156 L114.094728,124.34156 L114.094728,116.771709 L114.137862,116.756944 L119.142899,124.34156 L121.741722,124.34156 L121.741722,112.72856 L119.225351,112.72856 L119.225351,120.298577 L119.188355,120.313342 L114.177014,112.72856 L111.578025,112.72856 L111.578191,124.34156 Z M131.17297,124.50746 C134.780134,124.50746 137.488285,121.944305 137.488285,118.53506 C137.488285,115.125815 134.780134,112.56266 131.17297,112.56266 C127.559337,112.56266 124.851185,115.125815 124.851185,118.53506 C124.851185,121.944305 127.559337,124.50746 131.17297,124.50746 Z M131.17297,122.029577 C129.169562,122.029577 127.750288,120.579943 127.750288,118.535226 C127.750288,116.490508 129.169562,115.04104 131.17297,115.04104 C133.176545,115.04104 134.589349,116.490508 134.589349,118.535226 C134.589349,120.579943 133.176545,122.029577 131.17297,122.029577 Z M140.594099,124.34156 L143.110636,124.34156 L143.110636,116.771709 L143.15377,116.756944 L148.158807,124.34156 L150.757631,124.34156 L150.757631,112.72856 L148.24126,112.72856 L148.24126,120.298577 L148.204264,120.313342 L143.192923,112.72856 L140.593933,112.72856 L140.594099,124.34156 Z M154.361974,118.496239 L154.361974,120.893992 L160.604458,120.893992 L160.604458,118.498064 L154.361974,118.496239 Z M65.3974397,134.72856 L60.6966634,134.72856 L60.6966634,146.34156 L63.4506032,146.34156 L63.4506032,142.606819 L65.3974397,142.606819 C67.9869727,142.606819 69.7703976,141.004391 69.7730579,138.667026 C69.7756261,136.402582 68.0987278,134.826868 65.631072,134.733449 L65.3974397,134.72856 Z M65.022008,140.261159 L63.450769,140.261159 L63.450769,137.089815 L65.022008,137.089815 C66.1660544,137.089815 66.8550371,137.68523 66.8550371,138.673662 C66.8550371,139.611486 66.2366704,140.196872 65.1988311,140.255894 L65.022008,140.261159 Z M81.1537914,146.34156 L84.1068113,146.34156 L79.3338686,134.72856 L75.570759,134.72856 L70.7916778,146.34156 L73.7236283,146.34156 L75.1568383,142.665713 L79.7217426,142.665713 L81.1537914,146.34156 Z M77.3672899,136.686014 L77.5136138,136.686014 L77.9799986,137.952055 C78.0883778,138.243742 78.1954297,138.531452 78.2921826,138.793442 L78.9471557,140.490599 L75.9310938,140.490599 L76.5830808,138.806216 L77.0640741,137.516464 L77.0640741,137.516464 L77.3672899,136.686014 Z M93.8730119,146.34156 L97.4350507,146.34156 L93.1234758,141.637299 C94.7809827,141.290071 95.8465583,139.969673 95.8448992,138.227225 C95.8432401,136.117641 94.255743,134.728892 91.9288298,134.728892 L86.6437536,134.728892 L86.6437536,146.341891 L89.3310016,146.341891 L89.3310016,141.736342 L89.9287393,141.734683 L93.8730119,146.34156 Z M89.3310016,136.936025 L91.3720692,136.936025 C92.4393039,136.936025 93.0874753,137.511698 93.0874753,138.439079 C93.0874753,139.368119 92.4393039,139.952253 91.3720692,139.952253 L89.3310016,139.952253 L89.3310016,136.936025 Z M107.202578,134.72856 L98.5288292,134.72856 L98.5288292,137.217558 L101.491803,137.217558 L101.491803,146.341394 L104.245743,146.341394 L104.245743,137.217558 L107.202578,137.217558 L107.202578,134.72856 Z M110.084593,146.34156 L112.838533,146.34156 L112.838533,134.72856 L110.084593,134.72856 L110.084593,146.34156 Z M122.413451,146.50746 C126.292193,146.50746 128.977284,143.85671 128.580783,140.140384 L125.694953,140.140384 C125.895858,142.422836 124.503791,144.029578 122.370649,144.029578 C120.352476,144.029578 118.909478,142.596202 118.909478,140.507355 C118.909478,138.472923 120.266871,137.028266 122.361691,137.028266 C123.486658,137.028266 124.481063,137.461597 125.028367,138.35165 L128.109628,138.35165 C127.397585,136.021751 125.123594,134.562826 122.373636,134.562826 C118.769458,134.562826 115.991297,137.06045 115.991297,140.545677 C115.991297,143.864238 118.49985,146.39261 122.162144,146.503343 L122.413451,146.50746 Z M131.850672,146.34156 L134.604612,146.34156 L134.604612,134.72856 L131.850672,134.72856 L131.850672,146.34156 Z M143.038636,134.72856 L138.337859,134.72856 L138.337859,146.34156 L141.091799,146.34156 L141.091799,142.606819 L143.038636,142.606819 C145.628169,142.606819 147.411594,141.004391 147.414254,138.667026 C147.416822,136.402582 145.739924,134.826868 143.272268,134.733449 L143.038636,134.72856 Z M142.663204,140.261159 L141.091965,140.261159 L141.091965,137.089815 L142.663204,137.089815 C143.80725,137.089815 144.496233,137.68523 144.496233,138.673662 C144.496233,139.611486 143.877866,140.196872 142.840027,140.255894 L142.663204,140.261159 Z M158.794987,146.34156 L161.748007,146.34156 L156.975065,134.72856 L153.211955,134.72856 L148.432874,146.34156 L151.364824,146.34156 L152.798034,142.665713 L157.362939,142.665713 L158.794987,146.34156 Z M155.008486,136.686014 L155.15481,136.686014 L155.933379,138.793442 L155.933379,138.793442 L156.588352,140.490599 L153.57229,140.490599 L154.224277,138.806216 L154.70527,137.516464 L154.70527,137.516464 L155.008486,136.686014 Z M171.190205,134.72856 L162.516456,134.72856 L162.516456,137.217558 L165.47943,137.217558 L165.47943,146.341394 L168.23337,146.341394 L168.23337,137.217558 L171.190205,137.217558 L171.190205,134.72856 Z M179.648948,146.50746 C183.256111,146.50746 185.964263,143.944305 185.964263,140.53506 C185.964263,137.125815 183.256111,134.56266 179.648948,134.56266 C176.035314,134.56266 173.327163,137.125815 173.327163,140.53506 C173.327163,143.944305 176.035314,146.50746 179.648948,146.50746 Z M179.648948,144.029577 C177.64554,144.029577 176.226265,142.579943 176.226265,140.535226 C176.226265,138.490508 177.64554,137.04104 179.648948,137.04104 C181.652522,137.04104 183.065327,138.490508 183.065327,140.535226 C183.065327,142.579943 181.652522,144.029577 179.648948,144.029577 Z M196.299667,146.34156 L199.861705,146.34156 L195.55013,141.637299 C197.207637,141.290071 198.273213,139.969673 198.271554,138.227225 C198.269895,136.117641 196.682398,134.728892 194.355484,134.728892 L189.070408,134.728892 L189.070408,146.341891 L191.757656,146.341891 L191.757656,141.736342 L192.355394,141.734683 L196.299667,146.34156 Z M191.757656,136.936025 L193.798724,136.936025 C194.865959,136.936025 195.51413,137.511698 195.51413,138.439079 C195.51413,139.368119 194.865959,139.952253 193.798724,139.952253 L191.757656,139.952253 L191.757656,136.936025 Z M206.969607,146.50746 C203.38572,146.50746 201.263394,144.46886 201.153569,141.754093 L204.271493,141.754093 C204.373024,143.330641 205.368092,144.208915 207.024604,144.208915 C208.371546,144.208915 209.19806,143.622459 209.19806,142.657087 C209.19806,141.767531 208.505593,141.535935 207.858417,141.442699 L205.501476,141.143249 C203.324702,140.861053 202.233412,139.831644 202.233412,138.061989 C202.233412,135.920717 203.852264,134.56349 206.563567,134.56349 C209.204197,134.56349 210.978664,135.849712 211.147384,137.915167 L208.206475,137.94055 C208.018344,137.085003 207.416791,136.643875 206.455401,136.643875 C205.60002,136.643875 204.997472,137.081686 204.997472,137.759387 C204.997472,138.493992 205.718141,138.687763 206.290662,138.773534 L208.448689,139.045444 C210.818902,139.342571 212.09036,140.50105 212.09036,142.477085 C212.09036,144.839826 210.252406,146.417897 207.23143,146.50377 L206.969607,146.50746 L206.969607,146.50746 Z" id="NON-PARTICIPATORS" fill="#000000" fill-rule="nonzero" transform="translate(136.393512, 129.535060) rotate(13.000000) translate(-136.393512, -129.535060) "></path>
                </g>
            </g>
        </g>
    </g>
</svg>