<?xml version="1.0" encoding="UTF-8"?>
<svg width="221px" height="222px" viewBox="0 0 221 222" version="1.1" xmlns="http://www.w3.org/2000/svg" xmlns:xlink="http://www.w3.org/1999/xlink">
    <!-- Generator: Sketch 58 (84663) - https://sketch.com -->
    <title>educated-progressives</title>
    <desc>Created with Sketch.</desc>
    <g id="Desktop-Story" stroke="none" stroke-width="1" fill="none" fill-rule="evenodd">
        <g id="Landing---Story" transform="translate(-166.000000, -8302.000000)">
            <g id="6_DEMOGRAPHICS" transform="translate(9.000000, 6847.000000)">
                <g id="educated-progressives" transform="translate(267.500000, 1566.532071) rotate(40.000000) translate(-267.500000, -1566.532071) translate(128.000000, 1427.032071)">
                    <polygon id="Star" fill="#009DE0" transform="translate(139.237493, 139.237493) rotate(-17.000000) translate(-139.237493, -139.237493) " points="139.237493 216.737559 110.407641 246.831966 100.487461 206.354519 60.4728727 218.002114 72.1204679 177.987526 31.6430207 168.067345 61.737428 139.237493 31.6430207 110.407641 72.1204679 100.487461 60.4728727 60.4728727 100.487461 72.1204679 110.407641 31.6430207 139.237493 61.737428 168.067345 31.6430207 177.987526 72.1204679 218.002114 60.4728727 206.354519 100.487461 246.831966 110.407641 216.737559 139.237493 246.831966 168.067345 206.354519 177.987526 218.002114 218.002114 177.987526 206.354519 168.067345 246.831966"></polygon>
                    <path d="M82.8847411,122.37147 L82.8847411,119.7926 L74.7398213,119.7926 L74.7398213,133.0926 L82.8847411,133.0926 L82.8847411,130.51392 L77.7910312,130.51392 L77.7910312,127.54308 L82.7829011,127.54308 L82.7829011,124.97903 L77.7910312,124.97903 L77.7910312,122.37185 L82.8847411,122.37147 Z M91.1912561,133.28241 C94.8289399,133.28241 97.0558912,131.449835 97.0558912,128.66655 C97.0558912,126.40346 95.5997312,125.07669 92.8852013,124.7364 L90.4136813,124.42499 C89.7579914,124.32676 88.9326314,124.10484 88.9326314,123.26352 C88.9326314,122.48737 89.6227115,121.98596 90.6023515,121.98596 C91.7034014,121.98596 92.3923413,122.49117 92.6078012,123.471 L95.9759313,123.44193 C95.7827013,121.07643 93.7504612,119.60336 90.7262312,119.60336 C87.6210614,119.60336 85.7670414,121.15775 85.7670414,123.61008 C85.7670414,125.63681 87.0168613,126.81576 89.5098515,127.13895 L92.2091816,127.4819 C92.9503715,127.58868 93.7434316,127.85392 93.7434316,128.8727 C93.7434316,129.97831 92.7968515,130.64996 91.2542414,130.64996 C89.3570913,130.64996 88.2174714,129.6441 88.1011915,127.83853 L84.5303314,127.83853 C84.6532517,130.877004 86.9774508,133.175851 90.9140042,133.278808 L91.1912561,133.28241 L91.1912561,133.28241 Z M108.430241,119.79241 L98.4964711,119.79241 L98.4964711,122.64298 L101.889871,122.64298 L101.889871,133.09222 L105.043871,133.09222 L105.043871,122.64298 L108.430241,122.64298 L108.430241,119.79241 Z M121.366391,133.09241 L124.748391,133.09241 L119.282091,119.79241 L114.972321,119.79241 L109.498991,133.09241 L112.856861,133.09241 L114.498271,128.88258 L119.726311,128.88258 L121.366391,133.09241 Z M117.029831,122.03422 L117.197411,122.03422 L117.731547,123.484176 C117.85567,123.818236 117.978273,124.147742 118.089081,124.447789 L118.839201,126.39149 L115.385001,126.39149 L116.131701,124.46242 L116.682568,122.985308 L116.682568,122.985308 L117.029831,122.03422 Z M134.312611,126.33316 L134.312611,126.32271 C135.561101,125.85455 136.360621,124.76357 136.360621,123.26713 C136.360621,121.1663 134.778301,119.79317 132.280941,119.79317 L126.248631,119.79317 L126.248631,133.09317 L132.393801,133.09317 C134.941511,133.09317 136.566581,131.70769 136.566581,129.55974 C136.566581,128.058955 135.769364,126.920511 134.4975,126.40385 L134.312611,126.33316 Z M131.583831,122.291859 C132.597101,122.291859 133.194841,122.84856 133.194841,123.74878 C133.194841,124.64919 132.597101,125.20342 131.583831,125.20342 L129.299841,125.20342 L129.299841,122.29167 L131.583831,122.291859 Z M131.593901,130.59562 L129.299841,130.59562 L129.299841,127.40571 L131.606441,127.40571 C132.702551,127.40571 133.378571,128.00269 133.378571,128.99335 C133.378571,129.92791 132.777465,130.529432 131.766047,130.590161 L131.593901,130.59562 Z M141.788921,130.24488 L141.788921,119.7926 L138.634921,119.7926 L138.634921,133.0926 L146.633921,133.0926 L146.633921,130.24507 L141.788921,130.24488 Z M148.495921,133.09241 L151.649921,133.09241 L151.649921,119.79241 L148.495921,119.79241 L148.495921,133.09241 Z M160.180256,133.28241 C163.81794,133.28241 166.044891,131.449835 166.044891,128.66655 C166.044891,126.40346 164.588731,125.07669 161.874201,124.7364 L159.402681,124.42499 C158.746991,124.32676 157.921631,124.10484 157.921631,123.26352 C157.921631,122.48737 158.611712,121.98596 159.591351,121.98596 C160.692401,121.98596 161.381341,122.49117 161.596801,123.471 L164.964931,123.44193 C164.771701,121.07643 162.739461,119.60336 159.715231,119.60336 C156.610061,119.60336 154.756041,121.15775 154.756041,123.61008 C154.756041,125.63681 156.005861,126.81576 158.498851,127.13895 L161.198182,127.4819 C161.939371,127.58868 162.732432,127.85392 162.732432,128.8727 C162.732432,129.97831 161.785851,130.64996 160.243241,130.64996 C158.346091,130.64996 157.206471,129.6441 157.090191,127.83853 L153.519331,127.83853 C153.642252,130.877004 155.966451,133.175851 159.903004,133.278808 L160.180256,133.28241 L160.180256,133.28241 Z M176.078601,119.79469 L176.078601,124.50042 L171.106491,124.50042 L171.106491,119.79469 L167.952491,119.79469 L167.952491,133.0945 L171.106491,133.0945 L171.106491,127.35137 L176.078601,127.35137 L176.078601,133.0945 L179.232601,133.0945 L179.232601,119.79469 L176.078601,119.79469 Z M189.911741,122.37147 L189.911741,119.7926 L181.766821,119.7926 L181.766821,133.0926 L189.911741,133.0926 L189.911741,130.51392 L184.818031,130.51392 L184.818031,127.54308 L189.809901,127.54308 L189.809901,124.97903 L184.818031,124.97903 L184.818031,122.37185 L189.911741,122.37147 Z M196.832111,119.79241 L192.253491,119.79241 L192.253491,133.09241 L196.832111,133.09241 C201.058851,133.09241 203.962621,130.38491 203.962621,126.44241 C203.962621,122.49991 201.058851,119.79241 196.832111,119.79241 Z M196.817671,130.29314 L195.407681,130.29314 L195.407681,122.59187 L196.817671,122.59187 C199.039531,122.59187 200.635531,124.18445 200.635531,126.44222 C200.635531,128.629618 199.137723,130.192574 197.024107,130.288122 L196.817671,130.29314 Z M75.6856412,144.79241 L70.3019911,144.79241 L70.3019911,158.09241 L73.4559911,158.09241 L73.4559911,153.81513 L75.6856412,153.81513 C78.6513512,153.81513 80.6938512,151.97992 80.696898,149.30301 C80.6998492,146.700852 78.7663425,144.892814 75.9245387,144.796983 L75.6856412,144.79241 Z M75.2556711,151.12872 L73.456181,151.12872 L73.456181,147.49668 L75.2556711,147.49668 C76.5659113,147.49668 77.3549812,148.17859 77.3549812,149.31061 C77.3549812,150.392807 76.6360146,151.065229 75.4310847,151.124122 L75.2556711,151.12872 Z M91.0838111,158.09241 L95.1633012,158.09241 L90.2253912,152.70477 C92.1236813,152.3071 93.3440512,150.79489 93.3421511,148.79932 C93.340251,146.38328 91.5221409,144.79279 88.857201,144.79279 L82.8043709,144.79279 L82.8043709,158.09279 L85.8819908,158.09279 L85.8819908,152.8182 L86.5665608,152.8163 L91.0838111,158.09241 Z M85.8819908,147.32055 L88.2195608,147.32055 C89.4418308,147.32055 90.184161,147.97985 90.184161,149.041949 C90.184161,150.105949 89.4418308,150.77494 88.2195608,150.77494 L85.8819908,150.77494 L85.8819908,147.32055 Z M103.193271,158.28241 C107.324441,158.28241 110.426001,155.34691 110.426001,151.44241 C110.426001,147.53791 107.324441,144.60241 103.193271,144.60241 C99.0546909,144.60241 95.9531308,147.53791 95.9531308,151.44241 C95.9531308,155.34691 99.0546909,158.28241 103.193271,158.28241 Z M103.193271,155.44457 C100.898831,155.44457 99.2733811,153.78435 99.2733811,151.4426 C99.2733811,149.10085 100.898831,147.44082 103.193271,147.44082 C105.487901,147.44082 107.105941,149.10085 107.105941,151.4426 C107.105941,153.78435 105.487901,155.44457 103.193271,155.44457 Z M126.480241,150.105379 L119.444921,150.10538 L119.444921,152.57899 L123.255371,152.57899 C122.851431,154.41876 121.488941,155.5105 119.429721,155.5105 C116.934261,155.5105 115.356311,153.9069 115.356311,151.47357 C115.356311,148.99198 116.997341,147.37451 119.342511,147.37451 C120.693031,147.37451 121.817641,147.93026 122.442741,148.83599 L125.920311,148.83599 C125.076901,146.21342 122.496701,144.60279 119.369681,144.60279 C115.192151,144.60279 112.102371,147.47882 112.102371,151.49789 C112.102371,155.45559 115.098481,158.28241 119.363411,158.28241 C123.958501,158.28241 126.797437,155.009501 126.500412,150.36947 L126.480241,150.10538 L126.480241,150.105379 Z M136.911811,158.09241 L140.991301,158.09241 L136.053391,152.70477 C137.951681,152.3071 139.172051,150.79489 139.170151,148.79932 C139.168251,146.38328 137.350141,144.79279 134.685201,144.79279 L128.632371,144.79279 L128.632371,158.09279 L131.709991,158.09279 L131.709991,152.8182 L132.394561,152.8163 L136.911811,158.09241 Z M131.709991,147.32055 L134.047561,147.32055 C135.269831,147.32055 136.012161,147.97985 136.012161,149.041949 C136.012161,150.105949 135.269831,150.77494 134.047561,150.77494 L131.709991,150.77494 L131.709991,147.32055 Z M150.363241,147.37147 L150.363241,144.7926 L142.218321,144.7926 L142.218321,158.0926 L150.363241,158.0926 L150.363241,155.51392 L145.269531,155.51392 L145.269531,152.54308 L150.261401,152.54308 L150.261401,149.97903 L145.269531,149.97903 L145.269531,147.37185 L150.363241,147.37147 Z M158.669756,158.28241 C162.30744,158.28241 164.534391,156.449835 164.534391,153.66655 C164.534391,151.40346 163.078231,150.07669 160.363701,149.7364 L157.892181,149.42499 C157.236491,149.32676 156.411131,149.10484 156.411131,148.26352 C156.411131,147.48737 157.101212,146.98596 158.080851,146.98596 C159.181901,146.98596 159.870841,147.49117 160.086301,148.471 L163.454431,148.44193 C163.261201,146.07643 161.228961,144.60336 158.204731,144.60336 C155.099561,144.60336 153.245541,146.15775 153.245541,148.61008 C153.245541,150.63681 154.495361,151.81576 156.988351,152.13895 L159.687682,152.4819 C160.428871,152.58868 161.221932,152.85392 161.221932,153.8727 C161.221932,154.97831 160.275351,155.64996 158.732741,155.64996 C156.835591,155.64996 155.695971,154.6441 155.579691,152.83853 L152.008831,152.83853 C152.131752,155.877004 154.455951,158.175851 158.392504,158.278808 L158.669756,158.28241 L158.669756,158.28241 Z M172.406756,158.28241 C176.04444,158.28241 178.271391,156.449835 178.271391,153.66655 C178.271391,151.40346 176.815231,150.07669 174.100701,149.7364 L171.629181,149.42499 C170.973491,149.32676 170.148131,149.10484 170.148131,148.26352 C170.148131,147.48737 170.838212,146.98596 171.817851,146.98596 C172.918901,146.98596 173.607841,147.49117 173.823301,148.471 L177.191431,148.44193 C176.998201,146.07643 174.965961,144.60336 171.941731,144.60336 C168.836561,144.60336 166.982541,146.15775 166.982541,148.61008 C166.982541,150.63681 168.232361,151.81576 170.725351,152.13895 L173.424682,152.4819 C174.165871,152.58868 174.958932,152.85392 174.958932,153.8727 C174.958932,154.97831 174.012351,155.64996 172.469741,155.64996 C170.572591,155.64996 169.432971,154.6441 169.316691,152.83853 L165.745831,152.83853 C165.868752,155.877004 168.192951,158.175851 172.129504,158.278808 L172.406756,158.28241 L172.406756,158.28241 Z M180.178421,158.09241 L183.332421,158.09241 L183.332421,144.79241 L180.178421,144.79241 L180.178421,158.09241 Z M194.786761,144.79241 L191.783431,155.02315 L191.694321,155.02315 L188.688331,144.79241 L185.250091,144.79241 L189.629781,158.09241 L193.827261,158.09241 L198.206761,144.79241 L194.786761,144.79241 Z M208.237241,147.37147 L203.143531,147.37185 L203.143531,149.97903 L208.135401,149.97903 L208.135401,152.54308 L203.143531,152.54308 L203.143531,155.51392 L208.237241,155.51392 L208.237241,158.0926 L200.092321,158.0926 L200.092321,144.7926 L208.237241,144.7926 L208.237241,147.37147 Z" id="ESTABLISHEDPROGRESSIVE" fill="#FFFFFF" fill-rule="nonzero"></path>
                </g>
            </g>
        </g>
    </g>
</svg>