<svg xmlns="http://www.w3.org/2000/svg" width="223" height="224" fill-rule="evenodd"><path fill="#d8d8d8" d="M93.97 187.655l-34.86 22.838-.56-41.672-41.61 2.348L37.3 134.8.082 116.03 35.9 94.708l-22.838-34.86 41.672-.56-2.348-41.61 36.37 20.35L107.516.82l21.32 35.808 34.86-22.838.56 41.672 41.61-2.348-20.35 36.37 37.208 18.77-35.808 21.32 22.838 34.86-41.672.56 2.348 41.61-36.37-20.35-18.77 37.208z"/><path d="M33.046 120.2c3.433 0 5.588-2.09 5.588-5.413V106.7H35.48v8.018c0 1.59-.936 2.575-2.405 2.575-1.494 0-2.422-1-2.422-2.575V106.7H27.44v8.077c0 3.253 2.062 5.314 5.363 5.4l.244.003zm7.996-.2h2.882v-8.67l.05-.017L49.706 120h2.976v-13.3H49.8v8.67l-.042.017-5.74-8.687h-2.977V120zm18.79-13.3h-4.58V120h4.58c4.227 0 7.13-2.708 7.13-6.65s-2.904-6.65-7.13-6.65zm-.014 10.5h-1.4v-7.7h1.4c2.222 0 3.818 1.593 3.818 3.85 0 2.187-1.498 3.75-3.61 3.846l-.206.005zm17.395-7.922v-2.58h-8.145V120h8.145v-2.58H72.12v-2.97h4.992v-2.564H72.12v-2.607h5.094zM87.835 120h4.08l-4.938-5.388c1.898-.398 3.12-1.9 3.117-3.905-.002-2.416-1.82-4.007-4.485-4.007h-6.053V120h3.078v-5.275l.685-.002L87.835 120zm-5.202-10.772h2.338c1.222 0 1.965.66 1.965 1.72s-.742 1.733-1.965 1.733h-2.338v-3.454zm18.653.05v-2.58H93.14V120h8.145v-2.58h-5.094v-2.97h4.992v-2.564h-4.992v-2.607h5.094zm2.34 10.72h3.015v-10.123l.108-.01 2.794 8.992h2.752l2.794-8.992.108.01V120h3.016v-13.3h-4.78l-2.476 8.88h-.076l-2.476-8.88h-4.78V120zm22.54-13.3h-5.384V120h3.154v-4.277h2.23c2.966 0 5.008-1.835 5.01-4.512.003-2.602-1.93-4.4-4.772-4.506l-.24-.005zm-.43 6.336h-1.8v-3.632h1.8c1.3 0 2.1.682 2.1 1.814 0 1.082-.72 1.755-1.924 1.814l-.175.005zm10.702 4.116V106.7h-3.154V120h8v-2.848h-4.845zm13.474 3.038c4.13 0 7.233-2.935 7.233-6.84s-3.102-6.84-7.233-6.84c-4.14 0-7.24 2.936-7.24 6.84s3.102 6.84 7.24 6.84zm0-2.838c-2.294 0-3.92-1.66-3.92-4.002s1.625-4.002 3.92-4.002 3.913 1.66 3.913 4.002-1.618 4.002-3.913 4.002zm13.19 2.648h3.154v-4.617l4.808-8.682h-3.552l-2.78 5.593h-.074l-2.78-5.593h-3.588l4.81 8.682V120zm17.68-10.72v-2.58h-8.145V120h8.145v-2.58h-5.094v-2.97h4.992v-2.564h-4.992v-2.607h5.094zm6.92-2.58h-4.58V120h4.58c4.227 0 7.13-2.708 7.13-6.65s-2.904-6.65-7.13-6.65zm-.014 10.5h-1.4v-7.7h1.4c2.222 0 3.818 1.593 3.818 3.85 0 2.187-1.498 3.75-3.61 3.846l-.206.005zM78.276 145.2c3.433 0 5.588-2.09 5.588-5.413V131.7H80.7v8.018c0 1.59-.936 2.575-2.405 2.575-1.494 0-2.422-1-2.422-2.575V131.7H72.67v8.077c0 3.253 2.062 5.314 5.363 5.4l.244.003zm7.996-.2h2.882v-8.67l.05-.017L94.935 145h2.976v-13.3H95.03v8.67l-.042.017-5.74-8.687H86.27V145zm20.177.2c3.638 0 5.865-1.833 5.865-4.616 0-2.263-1.456-3.6-4.17-3.93l-2.472-.31-.237-.04c-.602-.118-1.244-.38-1.244-1.12 0-.776.7-1.278 1.67-1.278 1.1 0 1.8.505 2.005 1.485l3.368-.03c-.193-2.366-2.225-3.84-5.25-3.84-3.105 0-4.96 1.554-4.96 4.007 0 2.027 1.25 3.206 3.743 3.53l2.7.343c.74.107 1.534.372 1.534 1.39 0 1.106-.947 1.777-2.49 1.777-1.897 0-3.037-1.006-3.153-2.81h-3.57c.123 3.038 2.447 5.337 6.384 5.44l.277.004zm13.228 0c3.433 0 5.588-2.09 5.588-5.413V131.7h-3.154v8.018c0 1.59-.936 2.575-2.405 2.575-1.494 0-2.422-1-2.422-2.575V131.7h-3.214v8.077c0 3.253 2.062 5.314 5.363 5.4l.244.003zm16.276-.2h4.08l-4.938-5.388c1.898-.398 3.12-1.9 3.117-3.905-.002-2.416-1.82-4.007-4.485-4.007h-6.053V145h3.078v-5.275l.685-.002 4.517 5.276zm-5.202-10.772h2.338c1.222 0 1.965.66 1.965 1.72s-.742 1.733-1.965 1.733h-2.338v-3.454zm18.653.05H144.3v2.607h4.992v2.564H144.3v2.97h5.094V145h-8.145v-13.3h8.145v2.58z" fill="#000" fill-rule="nonzero"/></svg>