<?xml version="1.0" encoding="UTF-8"?>
<svg width="222px" height="222px" viewBox="0 0 222 222" version="1.1" xmlns="http://www.w3.org/2000/svg" xmlns:xlink="http://www.w3.org/1999/xlink">
    <!-- Generator: Sketch 58 (84663) - https://sketch.com -->
    <title>civically-uninformed</title>
    <desc>Created with Sketch.</desc>
    <g id="Desktop-Story" stroke="none" stroke-width="1" fill="none" fill-rule="evenodd">
        <g id="Landing---Story" transform="translate(-790.000000, -7958.000000)">
            <g id="6_DEMOGRAPHICS" transform="translate(9.000000, 6847.000000)">
                <g id="civically-uninformed" transform="translate(892.500000, 1222.532071) rotate(9.000000) translate(-892.500000, -1222.532071) translate(753.000000, 1083.032071)">
                    <polygon id="Star" fill="#2E2E2E" transform="translate(139.237493, 139.237493) rotate(-17.000000) translate(-139.237493, -139.237493) " points="139.237493 216.737559 110.407641 246.831966 100.487461 206.354519 60.4728727 218.002114 72.1204679 177.987526 31.6430207 168.067345 61.737428 139.237493 31.6430207 110.407641 72.1204679 100.487461 60.4728727 60.4728727 100.487461 72.1204679 110.407641 31.6430207 139.237493 61.737428 168.067345 31.6430207 177.987526 72.1204679 218.002114 60.4728727 206.354519 100.487461 246.831966 110.407641 216.737559 139.237493 246.831966 168.067345 206.354519 177.987526 218.002114 218.002114 177.987526 206.354519 168.067345 246.831966"></polygon>
                    <text id="Unattached-Apolitica" font-family="Spoof-Bold, Spoof" font-size="19" font-weight="bold" fill="#FFFFFF">
                        <tspan x="72.099454" y="132.818045">UNATTACHED</tspan>
                        <tspan x="80.915454" y="157.818045">APOLITICAL</tspan>
                    </text>
                </g>
            </g>
        </g>
    </g>
</svg>