<?xml version="1.0" encoding="UTF-8"?>
<svg width="223px" height="223px" viewBox="0 0 223 223" version="1.1" xmlns="http://www.w3.org/2000/svg" xmlns:xlink="http://www.w3.org/1999/xlink">
    <!-- Generator: Sketch 58 (84663) - https://sketch.com -->
    <title>young-moderates</title>
    <desc>Created with Sketch.</desc>
    <g id="Desktop-Story" stroke="none" stroke-width="1" fill="none" fill-rule="evenodd">
        <g id="Landing---Story" transform="translate(-403.000000, -8719.000000)">
            <g id="6_DEMOGRAPHICS" transform="translate(9.000000, 6847.000000)">
                <g id="young-moderates" transform="translate(362.000000, 1840.000000)">
                    <polygon id="Star" fill="#F8D705" transform="translate(143.224114, 143.251592) rotate(-20.000000) translate(-143.224114, -143.251592) " points="143.224114 220.751657 114.394262 250.846064 104.474082 210.368617 64.4594939 222.016212 76.1070891 182.001624 35.6296419 172.081444 65.7240492 143.251592 35.6296419 114.42174 76.1070891 104.501559 64.4594939 64.486971 104.474082 76.1345662 114.394262 35.657119 143.224114 65.7515263 172.053967 35.657119 181.974147 76.1345662 221.988735 64.486971 210.34114 104.501559 250.818587 114.42174 220.72418 143.251592 250.818587 172.081444 210.34114 182.001624 221.988735 222.016212 181.974147 210.368617 172.053967 250.846064"></polygon>
                    <path d="M102.08893,137 L105.10366,137 L105.10366,126.87718 L105.21215,126.86768 L108.00629,135.86 L110.75787,135.86 L113.5522,126.86768 L113.66031,126.87718 L113.66031,137 L116.67599,137 L116.67599,123.7 L111.896731,123.7 L109.420271,132.58079 L109.344271,132.58079 L106.868001,123.7 L102.088741,123.7 L102.08893,137 Z M126.01278,137.19 C130.14395,137.19 133.24551,134.2545 133.24551,130.35 C133.24551,126.4455 130.14395,123.51 126.01278,123.51 C121.8742,123.51 118.77264,126.4455 118.77264,130.35 C118.77264,134.2545 121.8742,137.19 126.01278,137.19 Z M126.01278,134.35216 C123.71834,134.35216 122.09289,132.69194 122.09289,130.35019 C122.09289,128.00844 123.71834,126.34841 126.01278,126.34841 C128.30741,126.34841 129.92545,128.00844 129.92545,130.35019 C129.92545,132.69194 128.30741,134.35216 126.01278,134.35216 Z M139.91812,123.7 L135.3395,123.7 L135.3395,137 L139.91812,137 C144.14486,137 147.04863,134.2925 147.04863,130.35 C147.04863,126.4075 144.14486,123.7 139.91812,123.7 Z M139.90368,134.20073 L138.49369,134.20073 L138.49369,126.49946 L139.90368,126.49946 C142.12554,126.49946 143.72154,128.09204 143.72154,130.34981 C143.72154,132.537209 142.223731,134.100164 140.110116,134.195713 L139.90368,134.20073 Z M157.29875,126.27906 L157.29875,123.70019 L149.15383,123.70019 L149.15383,137.00019 L157.29875,137.00019 L157.29875,134.42151 L152.20504,134.42151 L152.20504,131.45067 L157.19691,131.45067 L157.19691,128.88662 L152.20504,128.88662 L152.20504,126.27944 L157.29875,126.27906 Z M167.92032,137 L171.99981,137 L167.0619,131.61236 C168.96019,131.21469 170.18056,129.70248 170.17866,127.70691 C170.17676,125.29087 168.35865,123.70038 165.69371,123.70038 L159.64088,123.70038 L159.64088,137.00038 L162.7185,137.00038 L162.7185,131.72579 L163.40307,131.72389 L167.92032,137 Z M162.7185,126.22814 L165.05607,126.22814 C166.27834,126.22814 167.02067,126.88744 167.02067,127.94954 C167.02067,129.01354 166.27834,129.68253 165.05607,129.68253 L162.7185,129.68253 L162.7185,126.22814 Z M173.2635,137 L176.14561,137 L176.14561,128.33049 L176.19501,128.31358 L181.92712,137 L184.90347,137 L184.90347,123.7 L182.02155,123.7 L182.02155,132.3697 L181.97918,132.38661 L176.23985,123.7 L173.26331,123.7 L173.2635,137 Z M90.30893,162 L93.32366,162 L93.32366,151.87718 L93.4321501,151.86768 L96.2262901,160.86 L98.9778702,160.86 L101.7722,151.86768 L101.88031,151.87718 L101.88031,162 L104.89599,162 L104.89599,148.7 L100.116731,148.7 L97.6402706,157.58079 L97.5642706,157.58079 L95.0880006,148.7 L90.3087407,148.7 L90.30893,162 Z M114.23278,162.19 C118.36395,162.19 121.46551,159.2545 121.46551,155.35 C121.46551,151.4455 118.36395,148.51 114.23278,148.51 C110.0942,148.51 106.99264,151.4455 106.99264,155.35 C106.99264,159.2545 110.0942,162.19 114.23278,162.19 Z M114.23278,159.35216 C111.93834,159.35216 110.31289,157.69194 110.31289,155.35019 C110.31289,153.00844 111.93834,151.34841 114.23278,151.34841 C116.52741,151.34841 118.14545,153.00844 118.14545,155.35019 C118.14545,157.69194 116.52741,159.35216 114.23278,159.35216 Z M128.13812,148.7 L123.5595,148.7 L123.5595,162 L128.13812,162 C132.36486,162 135.26863,159.2925 135.26863,155.35 C135.26863,151.4075 132.36486,148.7 128.13812,148.7 Z M128.12368,159.20073 L126.71369,159.20073 L126.71369,151.49946 L128.12368,151.49946 C130.34554,151.49946 131.94154,153.09204 131.94154,155.34981 C131.94154,157.537209 130.443731,159.100164 128.330116,159.195713 L128.12368,159.20073 Z M145.51875,151.27906 L145.51875,148.70019 L137.37383,148.70019 L137.37383,162.00019 L145.51875,162.00019 L145.51875,159.42151 L140.42504,159.42151 L140.42504,156.45067 L145.41691,156.45067 L145.41691,153.88662 L140.42504,153.88662 L140.42504,151.27944 L145.51875,151.27906 Z M156.14032,162 L160.21981,162 L155.2819,156.61236 C157.18019,156.21469 158.40056,154.70248 158.39866,152.70691 C158.39676,150.29087 156.57865,148.70038 153.91371,148.70038 L147.86088,148.70038 L147.86088,162.00038 L150.9385,162.00038 L150.9385,156.72579 L151.62307,156.72389 L156.14032,162 Z M150.9385,151.22814 L153.27607,151.22814 C154.49834,151.22814 155.24067,151.88744 155.24067,152.94954 C155.24067,154.01354 154.49834,154.68253 153.27607,154.68253 L150.9385,154.68253 L150.9385,151.22814 Z M172.3154,162 L175.6974,162 L170.2311,148.7 L165.92133,148.7 L160.448,162 L163.80587,162 L165.44728,157.79017 L170.67532,157.79017 L172.3154,162 Z M167.97884,150.94181 L168.14642,150.94181 L169.03809,153.35538 L169.03809,153.35538 L169.78821,155.29908 L166.33401,155.29908 L167.08071,153.37001 L167.631577,151.892898 L167.631577,151.892898 L167.97884,150.94181 Z M186.70125,148.7 L176.76748,148.7 L176.76748,151.55057 L180.16088,151.55057 L180.16088,161.99981 L183.31488,161.99981 L183.31488,151.55057 L186.70125,151.55057 L186.70125,148.7 Z M196.91375,151.27906 L191.82004,151.27944 L191.82004,153.88662 L196.81191,153.88662 L196.81191,156.45067 L191.82004,156.45067 L191.82004,159.42151 L196.91375,159.42151 L196.91375,162.00019 L188.76883,162.00019 L188.76883,148.70019 L196.91375,148.70019 L196.91375,151.27906 Z" id="MODERNMODERATE" fill="#000000" fill-rule="nonzero"></path>
                </g>
            </g>
        </g>
    </g>
</svg>