<?xml version="1.0" encoding="UTF-8"?>
<svg width="221px" height="221px" viewBox="0 0 221 221" version="1.1" xmlns="http://www.w3.org/2000/svg" xmlns:xlink="http://www.w3.org/1999/xlink">
    <!-- Generator: Sketch 58 (84663) - https://sketch.com -->
    <title>frustrated-conservatives</title>
    <desc>Created with Sketch.</desc>
    <g id="Desktop-Story" stroke="none" stroke-width="1" fill="none" fill-rule="evenodd">
        <g id="Landing---Story" transform="translate(-395.000000, -7942.000000)">
            <g id="6_DEMOGRAPHICS" transform="translate(9.000000, 6847.000000)">
                <g id="frustrated-conservatives" transform="translate(496.500000, 1205.532071) rotate(40.000000) translate(-496.500000, -1205.532071) translate(357.000000, 1066.032071)">
                    <polygon id="Star" fill="#F2705E" transform="translate(139.389995, 139.389995) rotate(-17.000000) translate(-139.389995, -139.389995) " points="139.389995 216.89006 110.560143 246.984467 100.639962 206.50702 60.6253741 218.154615 72.2729693 178.140027 31.795522 168.219847 61.8899293 139.389995 31.795522 110.560143 72.2729693 100.639962 60.6253741 60.6253741 100.639962 72.2729693 110.560143 31.795522 139.389995 61.8899293 168.219847 31.795522 178.140027 72.2729693 218.154615 60.6253741 206.50702 100.639962 246.984467 110.560143 216.89006 139.389995 246.984467 168.219847 206.50702 178.140027 218.154615 218.154615 178.140027 206.50702 168.219847 246.984467"></polygon>
                    <path d="M83.38825,119.7 L73.45448,119.7 L73.45448,122.55057 L76.8478801,122.55057 L76.8478801,132.99981 L80.0018801,132.99981 L80.0018801,122.55057 L83.38825,122.55057 L83.38825,119.7 Z M93.77232,133 L97.8518101,133 L92.9139001,127.61236 C94.8121902,127.21469 96.0325601,125.70248 96.03066,123.70691 C96.0287599,121.29087 94.2106498,119.70038 91.5457099,119.70038 L85.4928798,119.70038 L85.4928798,133.00038 L88.5704997,133.00038 L88.5704997,127.72579 L89.2550697,127.72389 L93.77232,133 Z M88.5704997,122.22814 L90.9080697,122.22814 C92.1303397,122.22814 92.8726699,122.88744 92.8726699,123.94954 C92.8726699,125.01354 92.1303397,125.68253 90.9080697,125.68253 L88.5704997,125.68253 L88.5704997,122.22814 Z M109.9474,133 L113.3294,133 L107.8631,119.7 L103.55333,119.7 L98.08,133 L101.43787,133 L103.07928,128.79017 L108.30732,128.79017 L109.9474,133 Z M105.61084,121.94181 L105.77842,121.94181 L106.67009,124.35538 L106.67009,124.35538 L107.42021,126.29908 L103.96601,126.29908 L104.71271,124.37001 L105.263577,122.892898 L105.263577,122.892898 L105.61084,121.94181 Z M119.44512,119.7 L114.8665,119.7 L114.8665,133 L119.44512,133 C123.67186,133 126.57563,130.2925 126.57563,126.35 C126.57563,122.4075 123.67186,119.7 119.44512,119.7 Z M119.43068,130.20073 L118.02069,130.20073 L118.02069,122.49946 L119.43068,122.49946 C121.65254,122.49946 123.24854,124.09204 123.24854,126.34981 C123.24854,128.537209 121.750731,130.100164 119.637116,130.195713 L119.43068,130.20073 Z M128.71693,133 L131.87093,133 L131.87093,119.7 L128.71693,119.7 L128.71693,133 Z M143.90325,119.7 L133.96948,119.7 L133.96948,122.55057 L137.36288,122.55057 L137.36288,132.99981 L140.51688,132.99981 L140.51688,122.55057 L143.90325,122.55057 L143.90325,119.7 Z M146.00693,133 L149.16093,133 L149.16093,119.7 L146.00693,119.7 L146.00693,133 Z M158.49278,133.19 C162.62395,133.19 165.72551,130.2545 165.72551,126.35 C165.72551,122.4455 162.62395,119.51 158.49278,119.51 C154.3542,119.51 151.25264,122.4455 151.25264,126.35 C151.25264,130.2545 154.3542,133.19 158.49278,133.19 Z M158.49278,130.35216 C156.19834,130.35216 154.57289,128.69194 154.57289,126.35019 C154.57289,124.00844 156.19834,122.34841 158.49278,122.34841 C160.78741,122.34841 162.40545,124.00844 162.40545,126.35019 C162.40545,128.69194 160.78741,130.35216 158.49278,130.35216 Z M167.8195,133 L170.70161,133 L170.70161,124.33049 L170.75101,124.31358 L176.48312,133 L179.45947,133 L179.45947,119.7 L176.57755,119.7 L176.57755,128.3697 L176.53518,128.38661 L170.79585,119.7 L167.81931,119.7 L167.8195,133 Z M192.8634,133 L196.2454,133 L190.7791,119.7 L186.46933,119.7 L180.996,133 L184.35387,133 L185.99528,128.79017 L191.22332,128.79017 L192.8634,133 Z M188.52684,121.94181 L188.69442,121.94181 L189.58609,124.35538 L189.58609,124.35538 L190.33621,126.29908 L186.88201,126.29908 L187.62871,124.37001 L188.179577,122.892898 L188.179577,122.892898 L188.52684,121.94181 Z M200.93593,130.15247 L200.93593,119.70019 L197.78193,119.70019 L197.78193,133.00019 L205.78093,133.00019 L205.78093,130.15266 L200.93593,130.15247 Z M69.6107799,158.19 C74.05298,158.19 77.1281301,155.15418 76.6740302,150.89799 L73.3689803,150.89799 C73.5990703,153.51201 72.0047802,155.35216 69.5617602,155.35216 C67.2504103,155.35216 65.5977904,153.71056 65.5977904,151.31827 C65.5977904,148.9883 67.1523705,147.33378 69.5515006,147.33378 C70.8398905,147.33378 71.9787506,147.83006 72.6055607,148.84941 L76.1344306,148.84941 C75.3189506,146.18105 72.7146205,144.51019 69.5651806,144.51019 C65.4374306,144.51019 62.2556905,147.37064 62.2556905,151.36216 C62.2556905,155.169853 65.1393274,158.069208 69.3463243,158.185963 L69.6107799,158.19 Z M85.5897799,158.19 C89.7209498,158.19 92.8225099,155.2545 92.8225099,151.35 C92.8225099,147.4455 89.7209498,144.51 85.5897799,144.51 C81.4511998,144.51 78.3496397,147.4455 78.3496397,151.35 C78.3496397,155.2545 81.4511998,158.19 85.5897799,158.19 Z M85.5897799,155.35216 C83.29534,155.35216 81.66989,153.69194 81.66989,151.35019 C81.66989,149.00844 83.29534,147.34841 85.5897799,147.34841 C87.88441,147.34841 89.5024501,149.00844 89.5024501,151.35019 C89.5024501,153.69194 87.88441,155.35216 85.5897799,155.35216 Z M94.9165,158 L97.79861,158 L97.79861,149.33049 L97.8480102,149.31358 L103.58012,158 L106.55647,158 L106.55647,144.7 L103.67455,144.7 L103.67455,153.3697 L103.63218,153.38661 L97.8928502,144.7 L94.9163101,144.7 L94.9165,158 Z M115.093265,158.19 C118.730949,158.19 120.9579,156.357426 120.9579,153.57414 C120.9579,151.31105 119.50174,149.98428 116.78721,149.64399 L114.31569,149.33258 L114.078845,149.291967 C113.477222,149.17356 112.83464,148.913451 112.83464,148.17111 C112.83464,147.39496 113.52472,146.89355 114.50436,146.89355 C115.60541,146.89355 116.29435,147.39876 116.50981,148.37859 L119.87794,148.34952 C119.68471,145.98402 117.65247,144.51095 114.62824,144.51095 C111.52307,144.51095 109.66905,146.06534 109.66905,148.51767 C109.66905,150.5444 110.91887,151.72335 113.41186,152.04654 L116.11119,152.38949 C116.85238,152.49627 117.64544,152.76151 117.64544,153.78029 C117.64544,154.8859 116.69886,155.55755 115.15625,155.55755 C113.2591,155.55755 112.11948,154.55169 112.0032,152.74612 L108.43234,152.74612 C108.555261,155.784594 110.87946,158.083441 114.816013,158.186398 L115.093265,158.19 L115.093265,158.19 Z M130.97375,147.27906 L130.97375,144.70019 L122.82883,144.70019 L122.82883,158.00019 L130.97375,158.00019 L130.97375,155.42151 L125.88004,155.42151 L125.88004,152.45067 L130.87191,152.45067 L130.87191,149.88662 L125.88004,149.88662 L125.88004,147.27944 L130.97375,147.27906 Z M141.59532,158 L145.67481,158 L140.7369,152.61236 C142.63519,152.21469 143.85556,150.70248 143.85366,148.70691 C143.85176,146.29087 142.03365,144.70038 139.36871,144.70038 L133.31588,144.70038 L133.31588,158.00038 L136.3935,158.00038 L136.3935,152.72579 L137.07807,152.72389 L141.59532,158 Z M136.3935,147.22814 L138.73107,147.22814 C139.95334,147.22814 140.69567,147.88744 140.69567,148.94954 C140.69567,150.01354 139.95334,150.68253 138.73107,150.68253 L136.3935,150.68253 L136.3935,147.22814 Z M155.82727,144.7 L152.82394,154.93074 L152.73483,154.93074 L149.72884,144.7 L146.2906,144.7 L150.670289,158 L154.867769,158 L159.247269,144.7 L155.82727,144.7 Z M172.0014,158 L175.3834,158 L169.9171,144.7 L165.60733,144.7 L160.134,158 L163.49187,158 L165.13328,153.79017 L170.36132,153.79017 L172.0014,158 Z M167.66484,146.94181 L167.83242,146.94181 L168.72409,149.35538 L168.72409,149.35538 L169.47421,151.29908 L166.02001,151.29908 L166.76671,149.37001 L167.317577,147.892898 L167.317577,147.892898 L167.66484,146.94181 Z M186.38725,144.7 L176.45348,144.7 L176.45348,147.55057 L179.84688,147.55057 L179.84688,157.99981 L183.00088,157.99981 L183.00088,147.55057 L186.38725,147.55057 L186.38725,144.7 Z M188.49093,158 L191.64493,158 L191.64493,144.7 L188.49093,144.7 L188.49093,158 Z M203.09927,144.7 L200.09594,154.93074 L200.00683,154.93074 L197.00084,144.7 L193.5626,144.7 L197.942289,158 L202.139769,158 L206.519269,144.7 L203.09927,144.7 Z M216.54975,147.27906 L211.45604,147.27944 L211.45604,149.88662 L216.44791,149.88662 L216.44791,152.45067 L211.45604,152.45067 L211.45604,155.42151 L216.54975,155.42151 L216.54975,158.00019 L208.40483,158.00019 L208.40483,144.70019 L216.54975,144.70019 L216.54975,147.27906 Z" id="TRADITIONALCONSERVATIVE" fill="#FFFFFF" fill-rule="nonzero"></path>
                </g>
            </g>
        </g>
    </g>
</svg>