<svg xmlns="http://www.w3.org/2000/svg" width="223" height="223" fill-rule="evenodd"><path fill="#f8d705" d="M137.73 184.078l-16.798 38.14-23.166-34.643-33.618 24.63-2.74-41.585-41.43 4.522 18.42-37.384L.258 120.96 34.9 97.794 10.27 64.176l41.585-2.74-4.522-41.43 37.384 18.42L101.516.286l23.166 34.643 33.618-24.63 2.74 41.585 41.43-4.522-18.42 37.384 38.14 16.798-34.643 23.166 24.63 33.618-41.585 2.74 4.522 41.43z"/><path d="M70.09 105h3.015V94.877l.108-.01 2.794 8.992h2.752l2.794-8.992.108.01V105h3.016V91.7h-4.78l-2.476 8.88h-.076l-2.476-8.88h-4.78V105zm23.924.2c4.13 0 7.233-2.935 7.233-6.84s-3.102-6.84-7.233-6.84c-4.14 0-7.24 2.935-7.24 6.84s3.102 6.84 7.24 6.84zm0-2.838c-2.294 0-3.92-1.66-3.92-4.002s1.625-4.002 3.92-4.002 3.913 1.66 3.913 4.002-1.618 4.002-3.913 4.002zM107.918 91.7h-4.58V105h4.58c4.227 0 7.13-2.708 7.13-6.65s-2.904-6.65-7.13-6.65zm-.014 10.5h-1.4v-7.7h1.4c2.222 0 3.818 1.593 3.818 3.85 0 2.187-1.498 3.75-3.61 3.846l-.206.005zM125.3 94.28V91.7h-8.145V105h8.145v-2.58h-5.094v-2.97h4.992v-2.564h-4.992V94.28h5.094zM135.92 105H140l-4.938-5.388c1.898-.398 3.12-1.9 3.117-3.905-.002-2.416-1.82-4.007-4.485-4.007h-6.053V105h3.078v-5.275l.685-.002L135.92 105zm-5.202-10.772h2.338c1.222 0 1.965.66 1.965 1.72s-.742 1.733-1.965 1.733h-2.338v-3.454zM141.264 105h2.882v-8.67l.05-.017 5.732 8.686h2.976V91.7h-2.882v8.67l-.042.017-5.74-8.687h-2.977V105zM58.31 130h3.015v-10.123l.108-.01 2.794 8.992h2.752l2.794-8.992.108.01V130h3.016v-13.3h-4.78l-2.476 8.88h-.076l-2.476-8.88h-4.78V130zm23.924.2c4.13 0 7.233-2.935 7.233-6.84s-3.102-6.84-7.233-6.84c-4.14 0-7.24 2.936-7.24 6.84s3.102 6.84 7.24 6.84zm0-2.838c-2.294 0-3.92-1.66-3.92-4.002s1.625-4.002 3.92-4.002 3.913 1.66 3.913 4.002-1.618 4.002-3.913 4.002zM96.138 116.7h-4.58V130h4.58c4.227 0 7.13-2.708 7.13-6.65s-2.904-6.65-7.13-6.65zm-.014 10.5h-1.4v-7.7h1.4c2.222 0 3.818 1.593 3.818 3.85 0 2.187-1.498 3.75-3.61 3.846l-.206.005zm17.395-7.922v-2.58h-8.145V130h8.145v-2.58h-5.094v-2.97h4.992v-2.564h-4.992v-2.607h5.094zM124.14 130h4.08l-4.938-5.388c1.898-.398 3.12-1.9 3.117-3.905-.002-2.416-1.82-4.007-4.485-4.007h-6.053V130h3.078v-5.275l.685-.002L124.14 130zm-5.202-10.772h2.338c1.222 0 1.965.66 1.965 1.72s-.742 1.733-1.965 1.733h-2.338v-3.454zM140.315 130h3.382l-5.466-13.3h-4.3l-5.473 13.3h3.358l1.64-4.2h5.228l1.64 4.2zm-4.337-11.058h.168l.892 2.414.75 1.944h-3.454l.747-1.93.55-1.477.347-.95zM154.7 116.7h-9.934v2.85h3.393V130h3.154v-10.45h3.386v-2.85zm10.213 2.58h-5.094v2.607h4.992v2.564h-4.992v2.97h5.094V130h-8.145v-13.3h8.145v2.58z" fill="#000" fill-rule="nonzero"/></svg>