<svg xmlns="http://www.w3.org/2000/svg" width="222" height="222"><g transform="matrix(.987688 .156434 -.156434 .987688 -4.459916 -48.07306)" fill-rule="evenodd"><path fill="#2e2e2e" d="M161.896 213.35l-18.77 37.208-21.32-35.808-34.86 22.838-.56-41.672-41.61 2.348 20.35-36.37-37.208-18.77 35.808-21.32-22.838-34.86 41.672-.56-2.348-41.61 36.37 20.35 18.77-37.208 21.32 35.808 34.86-22.838.56 41.672 41.61-2.348-20.35 36.37 37.208 18.77-35.808 21.32 22.838 34.86-41.672.56 2.348 41.61z"/><text font-family="Spoof-Bold, Spoof" font-size="19" font-weight="bold" fill="#fff"><tspan x="72.099" y="132.818">UNATTACHED</tspan><tspan x="80.915" y="157.818">APOLITICAL</tspan></text></g></svg>