<svg xmlns="http://www.w3.org/2000/svg" width="221" height="221" fill-rule="evenodd"><path fill="#42b989" d="M141.73 181.103l-14.097 39.22-25.526-32.943-31.818 26.916-5.635-41.293-41.013 7.4 15.766-38.578L.19 127.73l32.943-25.526L6.216 70.385 47.51 64.75l-7.4-41.013 38.578 15.766L92.782.285l25.526 32.943 31.818-26.916 5.635 41.293 41.013-7.4-15.766 38.578 39.22 14.097-32.943 25.526 26.916 31.818-41.293 5.635 7.4 41.013z"/><path d="M51.322 117.31l3.13-.384-1.62-13.2-3.13.384 1.62 13.2zm5.677-.697l2.86-.35-1.057-8.605.047-.023 6.748 7.923 2.954-.363-1.62-13.2-2.86.35 1.057 8.605-.04.022-6.755-7.922-2.954.363 1.62 13.2zm17.03-15.49l-4.544.558 1.62 13.2 4.544-.558c4.195-.515 6.747-3.556 6.267-7.47s-3.693-6.247-7.888-5.73zm1.265 10.424l-1.4.172-.94-7.644 1.4-.172c2.205-.27 3.983 1.115 4.26 3.356.267 2.17-1.03 3.905-3.116 4.257l-.204.03zm9.558 1.647l3.13-.384-1.62-13.2-3.13.384 1.62 13.2zM97.2 101.112l-.343-2.793-7.96.977 1.62 13.2 3.097-.38-.612-4.988 4.673-.574-.343-2.793-4.673.574-.322-2.626 4.863-.597zm10.165-1.248l-.343-2.793-7.96.977 1.62 13.2 3.097-.38-.612-4.988 4.673-.574-.343-2.793-4.673.574-.322-2.626 4.863-.597zm10.225-1.492l-.314-2.56-8.084.993 1.62 13.2 8.084-.993-.314-2.56-5.056.62-.362-2.95 4.955-.608-.312-2.545-4.955.608-.318-2.588 5.056-.62zm11.85 9.347l4.05-.497-5.558-4.746c1.836-.626 2.863-2.276 2.618-4.256-.296-2.398-2.295-3.755-4.94-3.43l-6.008.738 1.62 13.2 3.055-.375-.643-5.235.68-.085 5.127 4.686zm-6.476-10.058l2.32-.285c1.213-.15 2.03.415 2.16 1.47s-.526 1.81-1.74 1.96l-2.32.285-.42-3.43zm18.52-2.223l-.314-2.56-8.084.993 1.62 13.2 8.084-.993-.314-2.56-5.056.62-.362-2.95 4.955-.608-.312-2.545-4.955.608-.318-2.588 5.056-.62zm3.63 10.356l2.86-.35-1.057-8.605.047-.023 6.748 7.923 2.954-.363-1.62-13.2-2.86.35 1.057 8.605-.04.022-6.755-7.922-2.954.363 1.62 13.2zm21.88-16.087l-9.86 1.21.347 2.83 3.368-.414 1.273 10.37 3.13-.384-1.273-10.37 3.36-.413-.347-2.83zm-90.014 49.64l3.357-.412-7.046-12.535-4.278.525-3.812 13.868 3.333-.41 1.116-4.378 5.19-.637 2.14 3.98zM71.34 128.9l.166-.02 1.18 2.287.98 1.838-3.428.42.506-2.006.367-1.533.23-.986zm17.736-4.436l-1.734 10.52-.088.01-4.23-9.788-3.413.42 5.968 12.667 4.166-.512 2.726-13.735-3.395.417zm13.665.92l-.314-2.56-8.084.993 1.62 13.2 8.084-.993-.314-2.56-5.056.62-.362-2.95 4.955-.608-.312-2.545-4.955.608-.318-2.588 5.056-.62zm11.85 9.347l4.05-.497-5.558-4.746c1.836-.626 2.863-2.276 2.618-4.256-.296-2.398-2.295-3.755-4.94-3.43l-6.008.738 1.62 13.2 3.055-.375-.643-5.235.68-.085 5.127 4.686zm-6.476-10.058l2.32-.285c1.213-.15 2.03.415 2.16 1.47s-.526 1.81-1.74 1.96l-2.32.285-.42-3.43zm22.53 8.086l3.357-.412-7.046-12.535-4.278.525-3.812 13.868 3.333-.41 1.116-4.378 5.19-.637 2.14 3.98zm-5.652-10.447l.166-.02 1.18 2.287.98 1.838-3.428.42.506-2.006.367-1.533.23-.986zm23.417.22l-6.983.857.3 2.455 3.782-.464c-.177 1.875-1.396 3.125-3.44 3.376-2.477.304-4.238-1.095-4.535-3.5-.302-2.463 1.13-4.268 3.457-4.554 1.34-.165 2.524.25 3.255 1.073l3.452-.424c-1.157-2.5-3.914-3.784-7.018-3.403-4.146.51-6.863 3.74-6.373 7.73.482 3.928 3.8 6.37 8.034 5.85 4.56-.56 6.98-4.154 6.12-8.724l-.052-.26zm9.85-3.964l-5.056.62.318 2.588 4.955-.608.312 2.545-4.955.608.362 2.95 5.056-.62.314 2.56-8.084.993-1.62-13.2 8.084-.993.314 2.56z" fill="#fff" fill-rule="nonzero"/></svg>