<?xml version="1.0" encoding="UTF-8"?>
<svg width="222px" height="222px" viewBox="0 0 222 222" version="1.1" xmlns="http://www.w3.org/2000/svg" xmlns:xlink="http://www.w3.org/1999/xlink">
    <!-- Generator: Sketch 58 (84663) - https://sketch.com -->
    <title>civically-uninformed</title>
    <desc>Created with Sketch.</desc>
    <g id="Desktop-Story" stroke="none" stroke-width="1" fill="none" fill-rule="evenodd">
        <g id="Landing---Story" transform="translate(-781.000000, -7957.000000)">
            <g id="6_DEMOGRAPHICS" transform="translate(0.000000, 6846.000000)">
                <g id="civically-uninformed" transform="translate(892.500000, 1222.532071) rotate(9.000000) translate(-892.500000, -1222.532071) translate(753.000000, 1083.032071)">
                    <polygon id="Star" fill="#2E2E2E" transform="translate(139.237493, 139.237493) rotate(-17.000000) translate(-139.237493, -139.237493) " points="139.237493 216.737559 110.407641 246.831966 100.487461 206.354519 60.4728727 218.002114 72.1204679 177.987526 31.6430207 168.067345 61.737428 139.237493 31.6430207 110.407641 72.1204679 100.487461 60.4728727 60.4728727 100.487461 72.1204679 110.407641 31.6430207 139.237493 61.737428 168.067345 31.6430207 177.987526 72.1204679 218.002114 60.4728727 206.354519 100.487461 246.831966 110.407641 216.737559 139.237493 246.831966 168.067345 206.354519 177.987526 218.002114 218.002114 177.987526 206.354519 168.067345 246.831966"></polygon>
                    <path d="M97.9382864,131.179627 C102.094081,131.179627 104.970965,128.339538 104.546143,124.35776 L101.454182,124.35776 C101.669437,126.803245 100.177937,128.524753 97.8924272,128.524753 C95.7300986,128.524753 94.1840293,126.988994 94.1840293,124.750943 C94.1840293,122.571195 95.6383799,121.023348 97.8828291,121.023348 C99.0881517,121.023348 100.153585,121.487631 100.739983,122.44126 L104.041333,122.44126 C103.27843,119.944939 100.842011,118.381805 97.8956271,118.381805 C94.0340085,118.381805 91.0574071,121.057831 91.0574071,124.792003 C91.0574071,128.351042 93.7503441,131.061813 97.6804168,131.175553 L97.9382864,131.179627 Z M108.049595,131.001877 L111.000245,131.001877 L111.000245,118.559378 L108.049595,118.559378 L108.049595,131.001877 Z M122.889231,118.559378 L120.079536,128.130504 L119.996172,128.130504 L117.183989,118.559378 L113.967425,118.559378 L118.06474,131.001877 L121.991593,131.001877 L126.08873,118.559378 L122.889231,118.559378 Z M129.059644,131.001877 L132.010294,131.001877 L132.010294,118.559378 L129.059644,118.559378 L129.059644,131.001877 Z M142.269135,131.179627 C146.424929,131.179627 149.301813,128.339538 148.876991,124.35776 L145.78503,124.35776 C146.000285,126.803245 144.508785,128.524753 142.223275,128.524753 C140.060947,128.524753 138.514877,126.988994 138.514877,124.750943 C138.514877,122.571195 139.969228,121.023348 142.213677,121.023348 C143.419,121.023348 144.484433,121.487631 145.070831,122.44126 L148.372181,122.44126 C147.609278,119.944939 145.172859,118.381805 142.226475,118.381805 C138.364857,118.381805 135.388255,121.057831 135.388255,124.792003 C135.388255,128.351042 138.081192,131.061813 142.011265,131.175553 L142.269135,131.179627 Z M161.607978,131.001877 L164.771928,131.001877 L159.658061,118.559378 L155.626158,118.559378 L150.505714,131.001877 L153.647089,131.001877 L155.182671,127.06347 L160.07364,127.06347 L161.607978,131.001877 Z M157.551012,120.65665 L157.707788,120.65665 L158.541969,122.914608 L158.541969,122.914608 L159.243726,124.73299 L156.012231,124.73299 L156.710788,122.928294 L157.226138,121.546418 L157.226138,121.546418 L157.551012,120.65665 Z M170.439842,128.337938 L170.439842,118.559555 L167.489192,118.559555 L167.489192,131.002055 L174.972467,131.002055 L174.972467,128.338116 L170.439842,128.337938 Z M180.784892,128.337938 L180.784892,118.559555 L177.834242,118.559555 L177.834242,131.002055 L185.317516,131.002055 L185.317516,128.338116 L180.784892,128.337938 Z M190.299671,131.001877 L193.250321,131.001877 L193.250321,126.682197 L197.74864,118.559555 L194.425782,118.559555 L191.826366,123.791626 L191.757399,123.791626 L189.157983,118.559555 L185.801529,118.559555 L190.300026,126.682197 L190.299671,131.001877 Z M83.2392509,154.179627 C86.4504823,154.179627 88.4668783,152.225088 88.4668783,149.11553 L88.4668783,141.559733 L85.5162284,141.559733 L85.5162284,149.060605 C85.5162284,150.547306 84.6406321,151.46965 83.2666246,151.46965 C81.8689763,151.46965 81.0004898,150.535219 81.0004898,149.060605 L81.0004898,141.559733 L77.9936709,141.559733 L77.9936709,149.115529 C77.9936709,152.153495 79.9155814,154.079221 82.9938419,154.175978 L83.2392509,154.179627 Z M92.4614538,154.001877 L95.1577435,154.001877 L95.1577435,145.891323 L95.2039586,145.875503 L100.566498,154.001877 L103.350952,154.001877 L103.350952,141.559378 L100.65484,141.559378 L100.65484,149.67011 L100.615202,149.685929 L95.2459076,141.559378 L92.4612762,141.559378 L92.4614538,154.001877 Z M107.35637,154.001877 L110.30702,154.001877 L110.30702,141.559378 L107.35637,141.559378 L107.35637,154.001877 Z M114.306928,154.001877 L117.003218,154.001877 L117.003218,145.891323 L117.049433,145.875503 L122.411972,154.001877 L125.196426,154.001877 L125.196426,141.559378 L122.500314,141.559378 L122.500314,149.67011 L122.460676,149.685929 L117.091382,141.559378 L114.30675,141.559378 L114.306928,154.001877 Z M136.704138,144.192033 L136.704138,141.559555 L129.201844,141.559555 L129.201844,154.002055 L132.120676,154.002055 L132.120676,149.300212 L136.525321,149.300212 L136.525321,146.667734 L132.120676,146.667734 L132.120676,144.192388 L136.704138,144.192033 Z M146.321834,154.179627 C150.186652,154.179627 153.088243,151.43339 153.088243,147.780627 C153.088243,144.127865 150.186652,141.381628 146.321834,141.381628 C142.450084,141.381628 139.548493,144.127865 139.548493,147.780627 C139.548493,151.43339 142.450084,154.179627 146.321834,154.179627 Z M146.321834,151.524753 C144.175326,151.524753 142.654674,149.971574 142.654674,147.780805 C142.654674,145.590036 144.175326,144.037035 146.321834,144.037035 C148.468521,144.037035 149.98224,145.590036 149.98224,147.780805 C149.98224,149.971574 148.468521,151.524753 146.321834,151.524753 Z M164.16189,154.001877 L167.97836,154.001877 L163.358816,148.961598 C165.134716,148.589568 166.276404,147.174856 166.274627,145.307947 C166.272849,143.047678 164.571959,141.559733 162.078838,141.559733 L156.416256,141.559733 L156.416256,154.002233 L159.295451,154.002233 L159.295451,149.067715 L159.935884,149.065937 L164.16189,154.001877 Z M159.295451,143.924519 L161.482309,143.924519 C162.625774,143.924519 163.320244,144.541311 163.320244,145.534934 C163.320244,146.530334 162.625774,147.156191 161.482309,147.156191 L159.295451,147.156191 L159.295451,143.924519 Z M170.493167,154.001877 L173.313526,154.001877 L173.313526,144.531713 L173.415022,144.522825 L176.029013,152.935377 L178.603188,152.935377 L181.217358,144.522825 L181.318497,144.531713 L181.318497,154.001877 L184.139745,154.001877 L184.139745,141.559378 L179.668622,141.559378 L177.351829,149.86759 L177.280729,149.86759 L174.964113,141.559378 L170.49299,141.559378 L170.493167,154.001877 Z M195.729755,143.972156 L195.729755,141.559555 L188.109969,141.559555 L188.109969,154.002055 L195.729755,154.002055 L195.729755,151.589632 L190.964456,151.589632 L190.964456,148.810333 L195.634481,148.810333 L195.634481,146.411597 L190.964456,146.411597 L190.964456,143.972512 L195.729755,143.972156 Z M203.892568,141.559378 L199.609149,141.559378 L199.609149,154.001877 L203.892568,154.001877 C207.846795,154.001877 210.563348,151.46894 210.563348,147.780627 C210.563348,144.092315 207.846795,141.559378 203.892568,141.559378 Z M203.879059,151.383086 L202.559977,151.383086 L202.559977,144.178346 L203.879059,144.178346 C205.957668,144.178346 207.450768,145.668246 207.450768,147.78045 C207.450768,149.824689 206.052443,151.285961 204.078357,151.378109 L203.879059,151.383086 Z" id="CIVICALLYUNINFORMED" fill="#FFFFFF" fill-rule="nonzero" transform="translate(144.278509, 136.280716) rotate(-17.000000) translate(-144.278509, -136.280716) "></path>
                </g>
            </g>
        </g>
    </g>
</svg>