<?xml version="1.0" encoding="UTF-8"?>
<svg width="221px" height="222px" viewBox="0 0 221 222" version="1.1" xmlns="http://www.w3.org/2000/svg" xmlns:xlink="http://www.w3.org/1999/xlink">
    <!-- Generator: Sketch 58 (84663) - https://sketch.com -->
    <title>frustrated-conservatives</title>
    <desc>Created with Sketch.</desc>
    <g id="Desktop-Story" stroke="none" stroke-width="1" fill="none" fill-rule="evenodd">
        <g id="Landing---Story" transform="translate(-386.000000, -7940.000000)">
            <g id="6_DEMOGRAPHICS" transform="translate(0.000000, 6846.000000)">
                <g id="frustrated-conservatives" transform="translate(496.500000, 1205.532071) rotate(40.000000) translate(-496.500000, -1205.532071) translate(357.000000, 1066.032071)">
                    <polygon id="Star" fill="#F2705E" transform="translate(139.237493, 139.237493) rotate(-17.000000) translate(-139.237493, -139.237493) " points="139.237493 216.737559 110.407641 246.831966 100.487461 206.354519 60.4728727 218.002114 72.1204679 177.987526 31.6430207 168.067345 61.737428 139.237493 31.6430207 110.407641 72.1204679 100.487461 60.4728727 60.4728727 100.487461 72.1204679 110.407641 31.6430207 139.237493 61.737428 168.067345 31.6430207 177.987526 72.1204679 218.002114 60.4728727 206.354519 100.487461 246.831966 110.407641 216.737559 139.237493 246.831966 168.067345 206.354519 177.987526 218.002114 218.002114 177.987526 206.354519 168.067345 246.831966"></polygon>
                    <path d="M87.6467784,125.831455 L87.6467784,123.374476 L80.6446373,123.374476 L80.6446373,134.987475 L83.3688812,134.987475 L83.3688812,130.599089 L87.479883,130.599089 L87.479883,128.14211 L83.3688812,128.14211 L83.3688812,125.831787 L87.6467784,125.831455 Z M98.1937045,134.98731 L101.755743,134.98731 L97.4441685,130.28305 C99.1016754,129.935821 100.167251,128.615423 100.165592,126.872975 C100.163933,124.763391 98.5764357,123.374642 96.2495225,123.374642 L90.9644463,123.374642 L90.9644463,134.987642 L93.6516943,134.987642 L93.6516943,130.382092 L94.249432,130.380433 L98.1937045,134.98731 Z M93.6516943,125.581775 L95.6927619,125.581775 C96.7599966,125.581775 97.408168,126.157448 97.408168,127.084829 C97.408168,128.013869 96.7599966,128.598003 95.6927619,128.598003 L93.6516943,128.598003 L93.6516943,125.581775 Z M108.635284,135.15321 C111.632433,135.15321 113.514403,133.328973 113.514403,130.426719 L113.514403,123.374642 L110.760463,123.374642 L110.760463,130.375456 C110.760463,131.763043 109.94324,132.623898 108.660833,132.623898 C107.356361,132.623898 106.545774,131.751762 106.545774,130.375455 L106.545774,123.374642 L103.739409,123.374642 L103.739409,130.426718 C103.739409,133.25812 105.528093,135.054382 108.393982,135.149409 L108.635284,135.15321 Z M122.168825,135.15321 C125.345097,135.15321 127.289577,133.553083 127.289577,131.122835 C127.289577,129.1468 126.018119,127.988321 123.647906,127.691194 L121.489879,127.419284 L121.269936,127.381212 C120.748451,127.27662 120.196689,127.047917 120.196689,126.405137 C120.196689,125.727436 120.799238,125.289626 121.654618,125.289626 C122.616008,125.289626 123.217562,125.730754 123.405692,126.5863 L126.346601,126.560917 C126.177881,124.495462 124.403415,123.20924 121.762785,123.20924 C119.051481,123.20924 117.432629,124.566468 117.432629,126.707739 C117.432629,128.477394 118.523919,129.506804 120.700693,129.788999 L123.057634,130.088449 C123.70481,130.181685 124.397277,130.413281 124.397277,131.302837 C124.397277,132.268209 123.570763,132.854665 122.223821,132.854665 C120.567309,132.854665 119.572241,131.976391 119.470711,130.399843 L116.352786,130.399843 C116.459795,133.045 118.477423,135.048192 121.896033,135.14921 L122.168825,135.15321 L122.168825,135.15321 Z M137.60275,123.37431 L128.929001,123.37431 L128.929001,125.863308 L131.891974,125.863308 L131.891974,134.987144 L134.645914,134.987144 L134.645914,125.863308 L137.60275,125.863308 L137.60275,123.37431 Z M147.714852,134.98731 L151.276891,134.98731 L146.965316,130.28305 C148.622823,129.935821 149.688398,128.615423 149.686739,126.872975 C149.68508,124.763391 148.097583,123.374642 145.77067,123.374642 L140.485594,123.374642 L140.485594,134.987642 L143.172842,134.987642 L143.172842,130.382092 L143.770579,130.380433 L147.714852,134.98731 Z M143.172842,125.581775 L145.213909,125.581775 C146.281144,125.581775 146.929315,126.157448 146.929315,127.084829 C146.929315,128.013869 146.281144,128.598003 145.213909,128.598003 L143.172842,128.598003 L143.172842,125.581775 Z M162.94978,134.98731 L165.9028,134.98731 L161.129857,123.37431 L157.366748,123.37431 L152.587667,134.98731 L155.519617,134.98731 L156.952827,131.311463 L161.517731,131.311463 L162.94978,134.98731 Z M159.163279,125.331764 L159.309603,125.331764 L160.088171,127.439192 L160.088171,127.439192 L160.743144,129.136349 L157.727083,129.136349 L158.37907,127.451966 L158.860063,126.162214 L158.860063,126.162214 L159.163279,125.331764 Z M175.344998,123.37431 L166.671249,123.37431 L166.671249,125.863308 L169.634223,125.863308 L169.634223,134.987144 L172.388162,134.987144 L172.388162,125.863308 L175.344998,125.863308 L175.344998,123.37431 Z M185.307292,125.626237 L185.307292,123.374476 L178.195492,123.374476 L178.195492,134.987476 L185.307292,134.987476 L185.307292,132.735881 L180.85968,132.735881 L180.85968,130.141869 L185.21837,130.141869 L185.21837,127.903048 L180.85968,127.903048 L180.85968,125.626569 L185.307292,125.626237 Z M192.925918,123.37431 L188.92806,123.37431 L188.92806,134.98731 L192.925918,134.98731 C196.616529,134.98731 199.151979,132.623235 199.151979,129.18081 C199.151979,125.738385 196.616529,123.37431 192.925918,123.37431 Z M192.913309,132.543105 L191.682165,132.543105 L191.682165,125.818681 L192.913309,125.818681 C194.853344,125.818681 196.246904,127.209255 196.246904,129.180644 C196.246904,131.086481 194.944699,132.449423 193.10546,132.538168 L192.913309,132.543105 Z M67.1179817,157.15321 C70.9967235,157.15321 73.681815,154.50246 73.2853141,150.786134 L70.3994838,150.786134 C70.6003887,153.068586 69.2083218,154.675328 67.0751797,154.675328 C65.0570064,154.675328 63.6140083,153.241952 63.6140083,151.153105 C63.6140083,149.118673 64.9714022,147.674016 67.0662215,147.674016 C68.1911893,147.674016 69.1855939,148.107347 69.732898,148.9974 L72.8141585,148.9974 C72.1021158,146.667501 69.8281245,145.208576 67.0781663,145.208576 C63.473989,145.208576 60.6958276,147.7062 60.6958276,151.191428 C60.6958276,154.509988 63.204381,157.03836 66.8666745,157.149093 L67.1179817,157.15321 Z M82.3310109,157.15321 C85.9381743,157.15321 88.6463259,154.590055 88.6463259,151.18081 C88.6463259,147.771565 85.9381743,145.20841 82.3310109,145.20841 C78.7173772,145.20841 76.0092256,147.771565 76.0092256,151.18081 C76.0092256,154.590055 78.7173772,157.15321 82.3310109,157.15321 Z M82.3310109,154.675327 C80.3276027,154.675327 78.9083282,153.225693 78.9083282,151.180976 C78.9083282,149.136258 80.3276027,147.68679 82.3310109,147.68679 C84.3345852,147.68679 85.7473896,149.136258 85.7473896,151.180976 C85.7473896,153.225693 84.3345852,154.675327 82.3310109,154.675327 Z M91.7521397,156.98731 L94.2686767,156.98731 L94.2686767,149.417459 L94.3118108,149.402694 L99.3168477,156.98731 L101.915671,156.98731 L101.915671,145.37431 L99.3993,145.37431 L99.3993,152.944327 L99.3623044,152.959092 L94.3509632,145.37431 L91.7519739,145.37431 L91.7521397,156.98731 Z M110.69684,157.15321 C113.873113,157.15321 115.817593,155.553083 115.817593,153.122835 C115.817593,151.1468 114.546135,149.988321 112.175922,149.691194 L110.017895,149.419284 L109.797952,149.381212 C109.276467,149.27662 108.724704,149.047917 108.724704,148.405137 C108.724704,147.727436 109.327253,147.289626 110.182634,147.289626 C111.144024,147.289626 111.745577,147.730754 111.933708,148.5863 L114.874617,148.560917 C114.705897,146.495462 112.93143,145.20924 110.2908,145.20924 C107.579497,145.20924 105.960645,146.566468 105.960645,148.707739 C105.960645,150.477394 107.051935,151.506804 109.228709,151.788999 L111.58565,152.088449 C112.232826,152.181685 112.925292,152.413281 112.925292,153.302837 C112.925292,154.268209 112.098779,154.854665 110.751836,154.854665 C109.095325,154.854665 108.100257,153.976391 107.998726,152.399843 L104.880802,152.399843 C104.987811,155.045 107.005439,157.048192 110.424049,157.14921 L110.69684,157.15321 L110.69684,157.15321 Z M125.87362,147.626237 L125.87362,145.374476 L118.76182,145.374476 L118.76182,156.987476 L125.87362,156.987476 L125.87362,154.735881 L121.426008,154.735881 L121.426008,152.141869 L125.784698,152.141869 L125.784698,149.903048 L121.426008,149.903048 L121.426008,147.626569 L125.87362,147.626237 Z M136.723978,156.98731 L140.286016,156.98731 L135.974442,152.28305 C137.631948,151.935821 138.697524,150.615423 138.695865,148.872975 C138.694206,146.763391 137.106709,145.374642 134.779796,145.374642 L129.494719,145.374642 L129.494719,156.987642 L132.181967,156.987642 L132.181967,152.382092 L132.779705,152.380433 L136.723978,156.98731 Z M132.181967,147.581775 L134.223035,147.581775 C135.29027,147.581775 135.938441,148.157448 135.938441,149.084829 C135.938441,150.013869 135.29027,150.598003 134.223035,150.598003 L132.181967,150.598003 L132.181967,147.581775 Z M149.565466,145.37431 L146.943085,154.307361 L146.865278,154.307361 L144.240574,145.37431 L141.238448,145.37431 L145.062608,156.98731 L148.727671,156.98731 L152.551666,145.37431 L149.565466,145.37431 Z M163.356235,156.98731 L166.309255,156.98731 L161.536312,145.37431 L157.773203,145.37431 L152.994122,156.98731 L155.926072,156.98731 L157.359282,153.311463 L161.924186,153.311463 L163.356235,156.98731 Z M159.569734,147.331764 L159.716058,147.331764 L160.02,148.160011 C160.181195,148.595351 160.349497,149.046208 160.494626,149.439192 L161.149599,151.136349 L158.133538,151.136349 L158.785525,149.451966 L159.266518,148.162214 L159.266518,148.162214 L159.569734,147.331764 Z M175.751453,145.37431 L167.077704,145.37431 L167.077704,147.863308 L170.040678,147.863308 L170.040678,156.987144 L172.794617,156.987144 L172.794617,147.863308 L175.751453,147.863308 L175.751453,145.37431 Z M178.633468,156.98731 L181.387407,156.98731 L181.387407,145.37431 L178.633468,145.37431 L178.633468,156.98731 Z M192.483794,145.37431 L189.861413,154.307361 L189.783606,154.307361 L187.158902,145.37431 L184.156776,145.37431 L187.980936,156.98731 L191.645999,156.98731 L195.469994,145.37431 L192.483794,145.37431 Z M205.323126,147.626237 L205.323126,145.374476 L198.211326,145.374476 L198.211326,156.987476 L205.323126,156.987476 L205.323126,154.735881 L200.875514,154.735881 L200.875514,152.141869 L205.234204,152.141869 L205.234204,149.903048 L200.875514,149.903048 L200.875514,147.626569 L205.323126,147.626237 Z M213.820275,157.15321 C210.236388,157.15321 208.114061,155.11461 208.004236,152.399843 L211.122161,152.399843 C211.223692,153.976391 212.21876,154.854665 213.875271,154.854665 C215.222213,154.854665 216.048727,154.268209 216.048727,153.302837 C216.048727,152.413281 215.35626,152.181685 214.709085,152.088449 L212.352143,151.788999 C210.175369,151.506804 209.084079,150.477394 209.084079,148.707739 C209.084079,146.566468 210.702931,145.20924 213.414235,145.20924 C216.054865,145.20924 217.829331,146.495462 217.998052,148.560917 L215.057143,148.5863 C214.869012,147.730754 214.267459,147.289626 213.306068,147.289626 C212.450688,147.289626 211.848139,147.727436 211.848139,148.405137 C211.848139,149.139742 212.568809,149.333513 213.141329,149.419284 L215.299357,149.691194 C217.66957,149.988321 218.941027,151.1468 218.941027,153.122835 C218.941027,155.485576 217.103074,157.063647 214.082098,157.14952 L213.820275,157.15321 L213.820275,157.15321 Z" id="FRUSTRATEDCONSERVATIVES" fill="#000000" fill-rule="nonzero" transform="translate(139.818427, 140.181225) rotate(-17.000000) translate(-139.818427, -140.181225) "></path>
                </g>
            </g>
        </g>
    </g>
</svg>