<svg xmlns="http://www.w3.org/2000/svg" width="221" height="222" fill-rule="evenodd"><path fill="#009de0" d="M80.186 182.5L41.89 198.94l6.684-41.136L7.19 152.9l26.357-32.283L.162 95.66l38.967-14.78L22.69 42.584l41.136 6.684L68.74 7.883l32.283 26.357L125.97.856l14.78 38.967 38.297-16.437-6.684 41.136 41.385 4.913-26.357 32.283 33.384 24.947-38.967 14.78 16.437 38.297-41.136-6.684-4.913 41.385-32.283-26.357-24.947 33.384z"/><path d="M78.14 62.02l1.658-1.976-6.24-5.235-8.55 10.188 6.24 5.235 1.658-1.975-3.902-3.274 1.9-2.276 3.824 3.21 1.648-1.964-3.824-3.21 1.676-1.997 3.902 3.274zm-.65 13.698c2.787 2.338 5.67 2.366 7.46.234 1.455-1.734 1.192-3.686-.67-5.692l-1.693-1.827c-.44-.497-.93-1.197-.388-1.842.5-.595 1.35-.535 2.1.095.843.708 1.046 1.538.582 2.427l2.6 2.143c1.372-1.936.763-4.37-1.554-6.315-2.38-1.996-4.798-1.997-6.374-.118-1.303 1.553-1.103 3.26.6 5.11l1.847 1.998c.5.558.936 1.27.28 2.052-.71.847-1.868.753-3.05-.24-1.453-1.22-1.68-2.723-.608-4.18l-2.735-2.295c-1.86 2.407-1.556 5.662 1.393 8.27l.2.18zm21.877.747l-7.6-6.385-1.832 2.184 2.6 2.18-6.717 8.005 2.416 2.027 6.717-8.005 2.594 2.177 1.832-2.184zm1.36 18.504l2.59 2.174 4.362-13.702-3.3-2.77-12.742 6.67 2.572 2.158 3.963-2.17 4.005 3.36-1.45 4.28zm3.786-11.26l.128.108-.523 1.454-.346.968-.675 1.97-2.646-2.22 1.812-.998 1.37-.777.877-.505zM115 98.11l.007-.008c1.257.444 2.57.122 3.533-1.024 1.35-1.61 1.02-3.678-.892-5.284l-4.62-3.877-8.55 10.188 4.707 3.95c1.952 1.638 4.087 1.62 5.468-.025.965-1.15 1.086-2.534.444-3.748L115 98.11zm.507-4.85c.776.65.876 1.462.298 2.152s-1.393.73-2.17.08l-1.75-1.468 1.872-2.23 1.75 1.468zm-5.33 6.368l-1.757-1.475 2.05-2.444 1.767 1.483c.84.705.974 1.596.337 2.355-.6.716-1.448.8-2.262.187l-.135-.106zm8.035 6.285l6.72-8.007-2.416-2.027-8.55 10.188 6.128 5.142 1.83-2.18-3.71-3.114zm3.307 6.493l2.416 2.027 8.55-10.188-2.416-2.027-8.55 10.188zm8.83 7.656c2.787 2.338 5.67 2.366 7.46.234 1.455-1.734 1.192-3.686-.67-5.692l-1.693-1.827c-.44-.497-.93-1.197-.388-1.842.5-.595 1.35-.535 2.1.095.843.708 1.046 1.538.582 2.427l2.6 2.143c1.372-1.936.763-4.37-1.554-6.315-2.38-1.996-4.798-1.997-6.374-.118-1.303 1.553-1.103 3.26.6 5.11l1.847 1.998c.5.558.936 1.27.28 2.052-.71.847-1.868.753-3.05-.24-1.453-1.22-1.68-2.723-.608-4.18l-2.735-2.295c-1.86 2.407-1.556 5.662 1.393 8.27l.2.18zm20.85-.113l-3.025 3.605-3.81-3.196 3.025-3.605-2.416-2.027-8.55 10.188 2.416 2.027 3.692-4.4 3.81 3.196-3.692 4.4 2.416 2.027 8.55-10.188-2.416-2.027zm8.94 10.866l1.658-1.976-6.24-5.235-8.55 10.188 6.24 5.235 1.658-1.975-3.902-3.274 1.9-2.276 3.824 3.21 1.648-1.964-3.824-3.21 1.676-1.997 3.902 3.274zm6.96 2.473l-3.507-2.943-8.55 10.188 3.507 2.943c3.238 2.717 7.203 2.51 9.737-.51s2.05-6.96-1.188-9.678zm-6.76 8.035l-1.08-.906 4.95-5.9 1.08.906c1.702 1.428 1.9 3.674.45 5.404-1.406 1.676-3.558 1.9-5.24.625l-.16-.13zM58.213 74.567l-4.124-3.46-8.55 10.188 2.416 2.027 2.75-3.277 1.708 1.433c2.272 1.906 5.016 1.813 6.74-.235 1.675-1.99 1.356-4.62-.76-6.52l-.18-.157zm-4.402 4.578l-1.378-1.157 2.335-2.782 1.378 1.157c1.004.842 1.17 1.872.442 2.74-.696.83-1.68.882-2.64.153l-.137-.11zm7.65 15.51l3.125 2.622-.32-7.3c1.7.916 3.617.542 4.898-.988 1.552-1.852 1.18-4.24-.86-5.952l-4.637-3.89-8.55 10.188 2.358 1.978 3.4-4.04.526.44.07 6.945zm2.94-11.595l1.79 1.503c.936.786 1.08 1.768.398 2.58s-1.683.85-2.62.065l-1.79-1.503 2.22-2.646zm6.215 19.525c3.165 2.655 7.427 2.4 9.937-.59s2.02-7.233-1.144-9.89c-3.17-2.66-7.433-2.405-9.943.586s-2.02 7.233 1.15 9.894zm1.824-2.174c-1.758-1.475-1.936-3.79-.43-5.585s3.817-2.02 5.575-.546 1.93 3.787.425 5.58-3.812 2.026-5.57.55zm21.27 10.88l-5.39-4.522-1.6 1.895 2.92 2.45c-1.492 1.15-3.238 1.1-4.815-.213-1.912-1.604-2.1-3.847-.526-5.71 1.595-1.9 3.892-2.085 5.688-.578 1.035.868 1.54 2.017 1.435 3.112l2.664 2.235c1.04-2.55.098-5.443-2.297-7.453-3.2-2.685-7.416-2.468-10 .61-2.544 3.032-2.066 7.123 1.2 9.865 3.52 2.954 7.8 2.27 10.554-1.474l.154-.215zm2.857 12.824l3.125 2.622-.32-7.3c1.7.916 3.617.542 4.898-.988 1.552-1.852 1.18-4.24-.86-5.952l-4.637-3.89-8.55 10.188 2.358 1.978 3.4-4.04.526.44.07 6.945zm2.94-11.595l1.79 1.503c.936.786 1.08 1.768.398 2.58s-1.683.85-2.62.065l-1.79-1.503 2.22-2.646zm14.256 12.03l1.658-1.976-6.24-5.235-8.55 10.188 6.24 5.235 1.658-1.975-3.902-3.274 1.9-2.276 3.824 3.21 1.648-1.964-3.824-3.21 1.676-1.997 3.902 3.274zm-.65 13.698c2.787 2.338 5.67 2.366 7.46.234 1.455-1.734 1.192-3.686-.67-5.692l-1.693-1.827c-.44-.497-.93-1.197-.388-1.842.5-.595 1.35-.535 2.1.095.843.708 1.046 1.538.582 2.427l2.6 2.143c1.372-1.936.763-4.37-1.554-6.315-2.38-1.996-4.798-1.997-6.374-.118-1.303 1.553-1.103 3.26.6 5.11l1.847 1.998c.5.558.936 1.27.28 2.052-.71.847-1.868.753-3.05-.24-1.453-1.22-1.68-2.723-.608-4.18l-2.735-2.295c-1.86 2.407-1.556 5.662 1.393 8.27l.2.18zm10.523 8.83c2.787 2.338 5.67 2.366 7.46.234 1.455-1.734 1.192-3.686-.67-5.692l-1.693-1.827c-.44-.497-.93-1.197-.388-1.842.5-.595 1.35-.535 2.1.095.843.708 1.046 1.538.582 2.427l2.6 2.143c1.372-1.936.763-4.37-1.554-6.315-2.38-1.996-4.798-1.997-6.374-.118-1.303 1.553-1.103 3.26.6 5.11l1.847 1.998c.5.558.936 1.27.28 2.052-.71.847-1.868.753-3.05-.24-1.453-1.22-1.68-2.723-.608-4.18l-2.735-2.295c-1.86 2.407-1.556 5.662 1.393 8.27l.2.18zm6.076 4.85l2.416 2.027 8.55-10.188-2.416-2.027-8.55 10.188zm19.74-.798l-8.877 5.907-.068-.057 4.273-9.77-2.634-2.2-5.194 13.004 3.215 2.698 11.904-7.373-2.62-2.198zm8.646 10.62l-3.902-3.274-1.676 1.997 3.824 3.21-1.648 1.964-3.824-3.21-1.9 2.276 3.902 3.274-1.658 1.975-6.24-5.235 8.55-10.188 6.24 5.235-1.658 1.976z" fill="#fff" fill-rule="nonzero"/></svg>