<?xml version="1.0" encoding="UTF-8"?>
<svg width="221px" height="221px" viewBox="0 0 221 221" version="1.1" xmlns="http://www.w3.org/2000/svg" xmlns:xlink="http://www.w3.org/1999/xlink">
    <!-- Generator: Sketch 58 (84663) - https://sketch.com -->
    <title>average-nonvoter</title>
    <desc>Created with Sketch.</desc>
    <g id="Desktop-Story" stroke="none" stroke-width="1" fill="none" fill-rule="evenodd">
        <g id="Landing---Story" transform="translate(-1087.000000, -8339.000000)">
            <g id="6_DEMOGRAPHICS" transform="translate(9.000000, 6847.000000)">
                <g id="average-nonvoter" transform="translate(1188.500000, 1602.532071) rotate(-7.000000) translate(-1188.500000, -1602.532071) translate(1049.000000, 1463.032071)">
                    <polygon id="Star" fill="#42B989" transform="translate(139.237493, 139.237493) rotate(-17.000000) translate(-139.237493, -139.237493) " points="139.237493 216.737559 110.407641 246.831966 100.487461 206.354519 60.4728727 218.002114 72.1204679 177.987526 31.6430207 168.067345 61.737428 139.237493 31.6430207 110.407641 72.1204679 100.487461 60.4728727 60.4728727 100.487461 72.1204679 110.407641 31.6430207 139.237493 61.737428 168.067345 31.6430207 177.987526 72.1204679 218.002114 60.4728727 206.354519 100.487461 246.831966 110.407641 216.737559 139.237493 246.831966 168.067345 206.354519 177.987526 218.002114 218.002114 177.987526 206.354519 168.067345 246.831966"></polygon>
                    <path d="M79.9365096,139.016802 L83.0905096,139.016802 L83.0905096,125.716802 L79.9365096,125.716802 L79.9365096,139.016802 Z M85.6560796,139.016802 L88.5381896,139.016802 L88.5381896,130.347293 L88.5875897,130.330383 L94.3196998,139.016802 L97.2960497,139.016802 L97.2960497,125.716802 L94.4141298,125.716802 L94.4141298,134.386502 L94.3717599,134.403412 L88.6324297,125.716802 L85.6558897,125.716802 L85.6560796,139.016802 Z M104.446699,125.716802 L99.8680796,125.716802 L99.8680796,139.016802 L104.446699,139.016802 C108.67344,139.016802 111.57721,136.309302 111.57721,132.366802 C111.57721,128.424302 108.67344,125.716802 104.446699,125.716802 Z M104.43226,136.217532 L103.022269,136.217532 L103.022269,128.516262 L104.43226,128.516262 C106.65412,128.516262 108.25012,130.108843 108.25012,132.366613 C108.25012,134.554011 106.752311,136.116967 104.638696,136.212515 L104.43226,136.217532 Z M113.71851,139.016802 L116.87251,139.016802 L116.87251,125.716802 L113.71851,125.716802 L113.71851,139.016802 Z M127.456839,128.530892 L127.456839,125.716992 L119.437509,125.716992 L119.437509,139.016992 L122.557499,139.016992 L122.557499,133.991112 L127.265699,133.991112 L127.265699,131.177212 L122.557499,131.177212 L122.557499,128.531272 L127.456839,128.530892 Z M137.697839,128.530892 L137.697839,125.716992 L129.678509,125.716992 L129.678509,139.016992 L132.798499,139.016992 L132.798499,133.991112 L137.506699,133.991112 L137.506699,131.177212 L132.798499,131.177212 L132.798499,128.531272 L137.697839,128.530892 Z M148.02833,128.295863 L148.02833,125.716993 L139.88341,125.716993 L139.88341,139.016993 L148.02833,139.016993 L148.02833,136.438313 L142.93462,136.438313 L142.93462,133.467473 L147.92649,133.467473 L147.92649,130.903423 L142.93462,130.903423 L142.93462,128.296243 L148.02833,128.295863 Z M158.6499,139.016802 L162.72939,139.016802 L157.79148,133.629162 C159.68977,133.231493 160.91014,131.719283 160.90824,129.723713 C160.906339,127.307673 159.088229,125.717183 156.423289,125.717183 L150.370459,125.717183 L150.370459,139.017183 L153.448079,139.017183 L153.448079,133.742593 L154.132649,133.740692 L158.6499,139.016802 Z M153.448079,128.244942 L155.785649,128.244942 C157.007919,128.244942 157.750249,128.904242 157.750249,129.966342 C157.750249,131.030342 157.007919,131.699332 155.785649,131.699332 L153.448079,131.699332 L153.448079,128.244942 Z M172.10133,128.295863 L172.10133,125.716993 L163.95641,125.716993 L163.95641,139.016993 L172.10133,139.016993 L172.10133,136.438313 L167.00762,136.438313 L167.00762,133.467473 L171.99949,133.467473 L171.99949,130.903423 L167.00762,130.903423 L167.00762,128.296243 L172.10133,128.295863 Z M174.44308,139.016802 L177.32519,139.016802 L177.32519,130.347293 L177.37459,130.330383 L183.1067,139.016802 L186.08305,139.016802 L186.08305,125.716802 L183.20113,125.716802 L183.20113,134.386502 L183.15876,134.403412 L177.41943,125.716802 L174.44289,125.716802 L174.44308,139.016802 Z M198.12183,125.716802 L188.18806,125.716802 L188.18806,128.567372 L191.58146,128.567372 L191.58146,139.016613 L194.73546,139.016613 L194.73546,128.567372 L198.12183,128.567372 L198.12183,125.716802 Z M102.72948,164.016802 L106.11148,164.016802 L100.64518,150.716802 L96.3354097,150.716802 L90.8620796,164.016802 L94.2199495,164.016802 L95.8613595,159.806972 L101.0894,159.806972 L102.72948,164.016802 Z M98.3929196,152.958612 L98.5604997,152.958612 L99.4521699,155.372182 L99.4521699,155.372182 L100.20229,157.315882 L96.7480897,157.315882 L97.4947898,155.386812 L98.0456561,153.909701 L98.0456561,153.909701 L98.3929196,152.958612 Z M116.53735,150.716802 L113.534019,160.947543 L113.444909,160.947543 L110.438919,150.716802 L107.000679,150.716802 L111.380369,164.016802 L115.577849,164.016802 L119.957349,150.716802 L116.53735,150.716802 Z M129.98783,153.295863 L129.98783,150.716993 L121.84291,150.716993 L121.84291,164.016993 L129.98783,164.016993 L129.98783,161.438313 L124.89412,161.438313 L124.89412,158.467473 L129.88599,158.467473 L129.88599,155.903423 L124.89412,155.903423 L124.89412,153.296243 L129.98783,153.295863 Z M140.6094,164.016802 L144.68889,164.016802 L139.75098,158.629162 C141.64927,158.231493 142.86964,156.719283 142.86774,154.723713 C142.865839,152.307673 141.047729,150.717183 138.382789,150.717183 L132.329959,150.717183 L132.329959,164.017183 L135.407579,164.017183 L135.407579,158.742593 L136.092149,158.740692 L140.6094,164.016802 Z M135.407579,153.244942 L137.745149,153.244942 C138.967419,153.244942 139.709749,153.904242 139.709749,154.966342 C139.709749,156.030342 138.967419,156.699332 137.745149,156.699332 L135.407579,156.699332 L135.407579,153.244942 Z M156.78448,164.016802 L160.16648,164.016802 L154.70018,150.716802 L150.39041,150.716802 L144.91708,164.016802 L148.274949,164.016802 L149.916359,159.806972 L155.1444,159.806972 L156.78448,164.016802 Z M152.44792,152.958612 L152.6155,152.958612 L153.50717,155.372182 L153.50717,155.372182 L154.25729,157.315882 L150.80309,157.315882 L151.54979,155.386812 L152.100656,153.909701 L152.100656,153.909701 L152.44792,152.958612 Z M175.66383,156.029772 L168.62851,156.029773 L168.62851,158.503383 L172.43896,158.503383 C172.03502,160.343153 170.67253,161.434893 168.61331,161.434893 C166.11785,161.434893 164.5399,159.831293 164.5399,157.397963 C164.5399,154.916373 166.180929,153.298903 168.526099,153.298903 C169.876619,153.298903 171.001229,153.854653 171.626329,154.760383 L175.103899,154.760383 C174.260489,152.137813 171.680289,150.527183 168.553269,150.527183 C164.375739,150.527183 161.285959,153.403212 161.285959,157.422282 C161.285959,161.379982 164.282069,164.206802 168.546999,164.206802 C173.14209,164.206802 175.981025,160.933893 175.684001,156.293863 L175.66383,156.029773 L175.66383,156.029772 Z M185.92383,153.295863 L180.83012,153.296243 L180.83012,155.903423 L185.82199,155.903423 L185.82199,158.467473 L180.83012,158.467473 L180.83012,161.438313 L185.92383,161.438313 L185.92383,164.016993 L177.77891,164.016993 L177.77891,150.716993 L185.92383,150.716993 L185.92383,153.295863 Z" id="INDIFFERENTAVERAGE" fill="#FFFFFF" fill-rule="nonzero"></path>
                </g>
            </g>
        </g>
    </g>
</svg>