<?xml version="1.0" encoding="UTF-8"?>
<svg width="223px" height="224px" viewBox="0 0 223 224" version="1.1" xmlns="http://www.w3.org/2000/svg" xmlns:xlink="http://www.w3.org/1999/xlink">
    <!-- Generator: Sketch 58 (84663) - https://sketch.com -->
    <title>non-participators</title>
    <desc>Created with Sketch.</desc>
    <g id="Desktop-Story" stroke="none" stroke-width="1" fill="none" fill-rule="evenodd">
        <g id="Landing---Story" transform="translate(-906.000000, -8717.000000)">
            <g id="6_DEMOGRAPHICS" transform="translate(9.000000, 6847.000000)">
                <g id="non-participators" transform="translate(874.000000, 1848.000000)">
                    <polygon id="Star" fill="#D8D8D8" transform="translate(134.403916, 134.141409) rotate(13.000000) translate(-134.403916, -134.141409) " points="134.403916 211.641474 105.574064 241.735882 95.6538832 201.258435 55.6392953 212.90603 67.2868905 172.891442 26.8094433 162.971261 56.9038506 134.141409 26.8094433 105.311557 67.2868905 95.3913765 55.6392953 55.3767886 95.6538832 67.0243838 105.574064 26.5469366 134.403916 56.6413438 163.233768 26.5469366 173.153949 67.0243838 213.168536 55.3767886 201.520941 95.3913765 241.998388 105.311557 211.903981 134.141409 241.998388 162.971261 201.520941 172.891442 213.168536 212.90603 173.153949 201.258435 163.233768 241.735882"></polygon>
                    <path d="M56.04623,142.19 C59.47877,142.19 61.6341301,140.10076 61.6341301,136.7769 L61.6341301,128.70038 L58.4801301,128.70038 L58.4801301,136.71819 C58.4801301,138.30735 57.5441902,139.29326 56.0754901,139.29326 C54.58152,139.29326 53.65318,138.29443 53.65318,136.71819 L53.65318,128.70038 L50.43914,128.70038 L50.43914,136.7769 C50.43914,140.030337 52.5012333,142.090408 55.8024761,142.186663 L56.04623,142.19 Z M64.042,142 L66.92411,142 L66.92411,133.33049 L66.9735102,133.31358 L72.7056202,142 L75.6819701,142 L75.6819701,128.7 L72.8000502,128.7 L72.8000502,137.3697 L72.7576803,137.38661 L67.0183502,128.7 L64.0418101,128.7 L64.042,142 Z M82.8326199,128.7 L78.254,128.7 L78.254,142 L82.8326199,142 C87.05936,142 89.9631301,139.2925 89.9631301,135.35 C89.9631301,131.4075 87.05936,128.7 82.8326199,128.7 Z M82.81818,139.20073 L81.4081899,139.20073 L81.4081899,131.49946 L82.81818,131.49946 C85.0400401,131.49946 86.6360401,133.09204 86.6360401,135.34981 C86.6360401,137.537209 85.1382315,139.100164 83.0246162,139.195713 L82.81818,139.20073 Z M100.21325,131.27906 L100.21325,128.70019 L92.0683301,128.70019 L92.0683301,142.00019 L100.21325,142.00019 L100.21325,139.42151 L95.1195401,139.42151 L95.1195401,136.45067 L100.11141,136.45067 L100.11141,133.88662 L95.1195401,133.88662 L95.1195401,131.27944 L100.21325,131.27906 Z M110.83482,142 L114.91431,142 L109.9764,136.61236 C111.87469,136.21469 113.09506,134.70248 113.09316,132.70691 C113.09126,130.29087 111.27315,128.70038 108.60821,128.70038 L102.55538,128.70038 L102.55538,142.00038 L105.633,142.00038 L105.633,136.72579 L106.31757,136.72389 L110.83482,142 Z M105.633,131.22814 L107.97057,131.22814 C109.19284,131.22814 109.93517,131.88744 109.93517,132.94954 C109.93517,134.01354 109.19284,134.68253 107.97057,134.68253 L105.633,134.68253 L105.633,131.22814 Z M124.28625,131.27906 L124.28625,128.70019 L116.14133,128.70019 L116.14133,142.00019 L124.28625,142.00019 L124.28625,139.42151 L119.19254,139.42151 L119.19254,136.45067 L124.18441,136.45067 L124.18441,133.88662 L119.19254,133.88662 L119.19254,131.27944 L124.28625,131.27906 Z M126.62743,142 L129.64216,142 L129.64216,131.87718 L129.75065,131.86768 L132.54479,140.86 L135.29637,140.86 L138.0907,131.86768 L138.19881,131.87718 L138.19881,142 L141.21449,142 L141.21449,128.7 L136.435231,128.7 L133.958771,137.58079 L133.882771,137.58079 L131.406501,128.7 L126.627241,128.7 L126.62743,142 Z M149.16865,128.7 L143.785,128.7 L143.785,142 L146.939,142 L146.939,137.72272 L149.16865,137.72272 C152.13436,137.72272 154.17686,135.88751 154.179907,133.2106 C154.182858,130.608442 152.249351,128.800404 149.407548,128.704573 L149.16865,128.7 Z M148.73868,135.03631 L146.93919,135.03631 L146.93919,131.40427 L148.73868,131.40427 C150.04892,131.40427 150.83799,132.08618 150.83799,133.2182 C150.83799,134.300397 150.119023,134.972819 148.914094,135.031713 L148.73868,135.03631 Z M159.44043,139.15247 L159.44043,128.70019 L156.28643,128.70019 L156.28643,142.00019 L164.28543,142.00019 L164.28543,139.15266 L159.44043,139.15247 Z M172.91428,142.19 C177.04545,142.19 180.14701,139.2545 180.14701,135.35 C180.14701,131.4455 177.04545,128.51 172.91428,128.51 C168.7757,128.51 165.67414,131.4455 165.67414,135.35 C165.67414,139.2545 168.7757,142.19 172.91428,142.19 Z M172.91428,139.35216 C170.61984,139.35216 168.99439,137.69194 168.99439,135.35019 C168.99439,133.00844 170.61984,131.34841 172.91428,131.34841 C175.20891,131.34841 176.82695,133.00844 176.82695,135.35019 C176.82695,137.69194 175.20891,139.35216 172.91428,139.35216 Z M186.10294,142 L189.25694,142 L189.25694,137.38262 L194.06527,128.70019 L190.51341,128.70019 L187.73485,134.29284 L187.66113,134.29284 L184.88257,128.70019 L181.2948,128.70019 L186.10332,137.38262 L186.10294,142 Z M203.78225,131.27906 L203.78225,128.70019 L195.63733,128.70019 L195.63733,142.00019 L203.78225,142.00019 L203.78225,139.42151 L198.68854,139.42151 L198.68854,136.45067 L203.68041,136.45067 L203.68041,133.88662 L198.68854,133.88662 L198.68854,131.27944 L203.78225,131.27906 Z M210.70262,128.7 L206.124,128.7 L206.124,142 L210.70262,142 C214.92936,142 217.83313,139.2925 217.83313,135.35 C217.83313,131.4075 214.92936,128.7 210.70262,128.7 Z M210.68818,139.20073 L209.27819,139.20073 L209.27819,131.49946 L210.68818,131.49946 C212.91004,131.49946 214.50604,133.09204 214.50604,135.34981 C214.50604,137.537209 213.008231,139.100164 210.894616,139.195713 L210.68818,139.20073 Z M101.27573,167.19 C104.70827,167.19 106.86363,165.10076 106.86363,161.7769 L106.86363,153.70038 L103.70963,153.70038 L103.70963,161.71819 C103.70963,163.30735 102.77369,164.29326 101.30499,164.29326 C99.81102,164.29326 98.88268,163.29443 98.88268,161.71819 L98.88268,153.70038 L95.66864,153.70038 L95.66864,161.7769 C95.66864,165.030337 97.7307333,167.090408 101.031976,167.186663 L101.27573,167.19 Z M109.2715,167 L112.15361,167 L112.15361,158.33049 L112.20301,158.31358 L117.93512,167 L120.91147,167 L120.91147,153.7 L118.02955,153.7 L118.02955,162.3697 L117.98718,162.38661 L112.24785,153.7 L109.27131,153.7 L109.2715,167 Z M129.448265,167.19 C133.085949,167.19 135.3129,165.357426 135.3129,162.57414 C135.3129,160.31105 133.85674,158.98428 131.14221,158.64399 L128.67069,158.33258 L128.433845,158.291967 C127.832222,158.17356 127.18964,157.913451 127.18964,157.17111 C127.18964,156.39496 127.87972,155.89355 128.85936,155.89355 C129.96041,155.89355 130.64935,156.39876 130.86481,157.37859 L134.23294,157.34952 C134.03971,154.98402 132.00747,153.51095 128.98324,153.51095 C125.87807,153.51095 124.02405,155.06534 124.02405,157.51767 C124.02405,159.5444 125.27387,160.72335 127.76686,161.04654 L130.46619,161.38949 C131.20738,161.49627 132.00044,161.76151 132.00044,162.78029 C132.00044,163.8859 131.05386,164.55755 129.51125,164.55755 C127.6141,164.55755 126.47448,163.55169 126.3582,161.74612 L122.78734,161.74612 C122.910261,164.784594 125.23446,167.083441 129.171013,167.186398 L129.448265,167.19 L129.448265,167.19 Z M142.67673,167.19 C146.10927,167.19 148.26463,165.10076 148.26463,161.7769 L148.26463,153.70038 L145.11063,153.70038 L145.11063,161.71819 C145.11063,163.30735 144.17469,164.29326 142.70599,164.29326 C141.21202,164.29326 140.28368,163.29443 140.28368,161.71819 L140.28368,153.70038 L137.06964,153.70038 L137.06964,161.7769 C137.06964,165.030337 139.131733,167.090408 142.432976,167.186663 L142.67673,167.19 Z M158.95232,167 L163.03181,167 L158.0939,161.61236 C159.99219,161.21469 161.21256,159.70248 161.21066,157.70691 C161.20876,155.29087 159.39065,153.70038 156.72571,153.70038 L150.67288,153.70038 L150.67288,167.00038 L153.7505,167.00038 L153.7505,161.72579 L154.43507,161.72389 L158.95232,167 Z M153.7505,156.22814 L156.08807,156.22814 C157.31034,156.22814 158.05267,156.88744 158.05267,157.94954 C158.05267,159.01354 157.31034,159.68253 156.08807,159.68253 L153.7505,159.68253 L153.7505,156.22814 Z M172.40375,156.27906 L167.31004,156.27944 L167.31004,158.88662 L172.30191,158.88662 L172.30191,161.45067 L167.31004,161.45067 L167.31004,164.42151 L172.40375,164.42151 L172.40375,167.00019 L164.25883,167.00019 L164.25883,153.70019 L172.40375,153.70019 L172.40375,156.27906 Z" id="UNDEREMPLOYEDUNSURE" fill="#000000" fill-rule="nonzero"></path>
                </g>
            </g>
        </g>
    </g>
</svg>