<?xml version="1.0" encoding="UTF-8"?>
<svg width="221px" height="222px" viewBox="0 0 221 222" version="1.1" xmlns="http://www.w3.org/2000/svg" xmlns:xlink="http://www.w3.org/1999/xlink">
    <!-- Generator: Sketch 58 (84663) - https://sketch.com -->
    <title>educated-progressives</title>
    <desc>Created with Sketch.</desc>
    <g id="Desktop-Story" stroke="none" stroke-width="1" fill="none" fill-rule="evenodd">
        <g id="Landing---Story" transform="translate(-157.000000, -8301.000000)">
            <g id="6_DEMOGRAPHICS" transform="translate(0.000000, 6846.000000)">
                <g id="educated-progressives" transform="translate(267.500000, 1566.532071) rotate(40.000000) translate(-267.500000, -1566.532071) translate(128.000000, 1427.032071)">
                    <polygon id="Star" fill="#009DE0" transform="translate(139.237493, 139.237493) rotate(-17.000000) translate(-139.237493, -139.237493) " points="139.237493 216.737559 110.407641 246.831966 100.487461 206.354519 60.4728727 218.002114 72.1204679 177.987526 31.6430207 168.067345 61.737428 139.237493 31.6430207 110.407641 72.1204679 100.487461 60.4728727 60.4728727 100.487461 72.1204679 110.407641 31.6430207 139.237493 61.737428 168.067345 31.6430207 177.987526 72.1204679 218.002114 60.4728727 206.354519 100.487461 246.831966 110.407641 216.737559 139.237493 246.831966 168.067345 206.354519 177.987526 218.002114 218.002114 177.987526 206.354519 168.067345 246.831966"></polygon>
                    <path d="M93.9815135,121.868894 L93.9815135,119.456294 L86.361727,119.456294 L86.361727,131.898793 L93.9815135,131.898793 L93.9815135,129.48637 L89.216214,129.48637 L89.216214,126.707071 L93.8862395,126.707071 L93.8862395,124.308335 L89.216214,124.308335 L89.216214,121.86925 L93.9815135,121.868894 Z M102.144326,119.456116 L97.8609071,119.456116 L97.8609071,131.898615 L102.144326,131.898615 C106.098553,131.898615 108.815106,129.365678 108.815106,125.677365 C108.815106,121.989053 106.098553,119.456116 102.144326,119.456116 Z M102.130817,129.279824 L100.811735,129.279824 L100.811735,122.075084 L102.130817,122.075084 C104.209426,122.075084 105.702526,123.564985 105.702526,125.677188 C105.702526,127.721427 104.304201,129.182699 102.330115,129.274847 L102.130817,129.279824 Z M117.434203,132.076365 C120.645434,132.076365 122.66183,130.121826 122.66183,127.012268 L122.66183,119.456471 L119.71118,119.456471 L119.71118,126.957343 C119.71118,128.444044 118.835584,129.366389 117.461577,129.366389 C116.063928,129.366389 115.195442,128.431957 115.195442,126.957343 L115.195442,119.456471 L112.188623,119.456471 L112.188623,127.012267 C112.188623,130.050234 114.110533,131.975959 117.188794,132.072717 L117.434203,132.076365 Z M132.808688,132.076365 C136.964483,132.076365 139.841367,129.236276 139.416545,125.254498 L136.324584,125.254498 C136.539839,127.699983 135.048339,129.421492 132.762829,129.421492 C130.600501,129.421492 129.054431,127.885732 129.054431,125.647681 C129.054431,123.467933 130.508782,121.920086 132.753231,121.920086 C133.958554,121.920086 135.023987,122.384369 135.610385,123.337998 L138.911735,123.337998 C138.148832,120.841677 135.712413,119.278543 132.766029,119.278543 C128.904411,119.278543 125.927809,121.95457 125.927809,125.688741 C125.927809,129.24778 128.620746,131.958551 132.550819,132.072292 L132.808688,132.076365 Z M152.147532,131.898615 L155.311482,131.898615 L150.197615,119.456116 L146.165712,119.456116 L141.045268,131.898615 L144.186643,131.898615 L145.722225,127.960208 L150.613194,127.960208 L152.147532,131.898615 Z M148.090566,121.553388 L148.247342,121.553388 L148.572994,122.440795 C148.745703,122.907231 148.926027,123.390292 149.081523,123.811346 L149.78328,125.629728 L146.551785,125.629728 L147.250342,123.825033 L147.765692,122.443156 L147.765692,122.443156 L148.090566,121.553388 Z M165.428123,119.456116 L156.13482,119.456116 L156.13482,122.122899 L159.309435,122.122899 L159.309435,131.898437 L162.260085,131.898437 L162.260085,122.122899 L165.428123,122.122899 L165.428123,119.456116 Z M176.10201,121.868894 L176.10201,119.456294 L168.482223,119.456294 L168.482223,131.898793 L176.10201,131.898793 L176.10201,129.48637 L171.33671,129.48637 L171.33671,126.707071 L176.006736,126.707071 L176.006736,124.308335 L171.33671,124.308335 L171.33671,121.86925 L176.10201,121.868894 Z M184.264823,119.456116 L179.981403,119.456116 L179.981403,131.898615 L184.264823,131.898615 C188.219049,131.898615 190.935602,129.365678 190.935602,125.677365 C190.935602,121.989053 188.219049,119.456116 184.264823,119.456116 Z M184.251314,129.279824 L182.932231,129.279824 L182.932231,122.075084 L184.251314,122.075084 C186.329922,122.075084 187.823022,123.564985 187.823022,125.677188 C187.823022,127.721427 186.424698,129.182699 184.450611,129.274847 L184.251314,129.279824 Z M65.7832548,142.456116 L60.7467087,142.456116 L60.7467087,154.898615 L63.6973586,154.898615 L63.6973586,150.897107 L65.7832548,150.897107 C68.5577544,150.897107 70.4685668,149.18022 70.4714172,146.675901 C70.4741737,144.245378 68.6710696,142.555418 66.0194032,142.460833 L65.7832548,142.456116 Z M65.3810065,148.383901 L63.6975362,148.383901 L63.6975362,144.986032 L65.3810065,144.986032 C66.6067706,144.986032 67.3449663,145.623976 67.3449663,146.683011 C67.3449663,147.690613 66.6787446,148.318503 65.561183,148.378773 L65.3810065,148.383901 Z M81.4151222,154.898615 L85.2315924,154.898615 L80.6120479,149.858336 C82.3879481,149.486306 83.5296363,148.071594 83.5278587,146.204686 C83.526081,143.944417 81.8251913,142.456471 79.3320701,142.456471 L73.6694884,142.456471 L73.6694884,154.898971 L76.5486827,154.898971 L76.5486827,149.964453 L77.1891159,149.962676 L81.4151222,154.898615 Z M76.5486827,144.821257 L78.7355409,144.821257 C79.8790066,144.821257 80.5734759,145.438049 80.5734759,146.431672 C80.5734759,147.427072 79.8790066,148.05293 78.7355409,148.05293 L76.5486827,148.05293 L76.5486827,144.821257 Z M93.3659652,155.076365 C97.2307831,155.076365 100.132374,152.330128 100.132374,148.677365 C100.132374,145.024603 97.2307831,142.278366 93.3659652,142.278366 C89.4942147,142.278366 86.5926238,145.024603 86.5926238,148.677365 C86.5926238,152.330128 89.4942147,155.076365 93.3659652,155.076365 Z M93.3659652,152.421491 C91.2194564,152.421491 89.6988051,150.868312 89.6988051,148.677543 C89.6988051,146.486774 91.2194564,144.933773 93.3659652,144.933773 C95.5126519,144.933773 97.0263709,146.486774 97.0263709,148.677543 C97.0263709,150.868312 95.5126519,152.421491 93.3659652,152.421491 Z M116.537987,147.426539 L109.956261,147.426539 L109.956261,149.740666 L113.521037,149.740666 C113.143141,151.461819 111.868495,152.483171 109.942041,152.483171 C107.607472,152.483171 106.131259,150.982961 106.131259,148.706517 C106.131259,146.384924 107.666485,144.871738 109.860453,144.871738 C111.1239,144.871738 112.176002,145.391657 112.7608,146.238991 L116.014158,146.238991 C115.225126,143.785508 112.811281,142.278721 109.885871,142.278721 C105.977682,142.278721 103.087112,144.969323 103.087112,148.729268 C103.087112,152.431801 105.890052,155.076365 109.880006,155.076365 C114.175714,155.076365 116.830877,152.018915 116.557458,147.683051 L116.537987,147.426539 L116.537987,147.426539 Z M127.790095,154.898615 L131.606565,154.898615 L126.987021,149.858336 C128.762921,149.486306 129.904609,148.071594 129.902832,146.204686 C129.901054,143.944417 128.200164,142.456471 125.707043,142.456471 L120.044461,142.456471 L120.044461,154.898971 L122.923656,154.898971 L122.923656,149.964453 L123.564089,149.962676 L127.790095,154.898615 Z M122.923656,144.821257 L125.110514,144.821257 C126.25398,144.821257 126.948449,145.438049 126.948449,146.431672 C126.948449,147.427072 126.25398,148.05293 125.110514,148.05293 L122.923656,148.05293 L122.923656,144.821257 Z M141.707386,144.868894 L141.707386,142.456294 L134.0876,142.456294 L134.0876,154.898793 L141.707386,154.898793 L141.707386,152.48637 L136.942087,152.48637 L136.942087,149.707071 L141.612112,149.707071 L141.612112,147.308335 L136.942087,147.308335 L136.942087,144.86925 L141.707386,144.868894 Z M150.811474,155.076365 C154.214623,155.076365 156.297995,153.361944 156.297995,150.758107 C156.297995,148.640927 154.935719,147.399698 152.396205,147.081348 L150.084033,146.790016 L149.862458,146.752022 C149.299623,146.641249 148.698472,146.39791 148.698472,145.70343 C148.698472,144.977322 149.34406,144.508239 150.260539,144.508239 C151.2906,144.508239 151.935121,144.980876 152.136689,145.897533 L155.287664,145.870338 C155.106892,143.65735 153.205678,142.279255 150.376431,142.279255 C147.471463,142.279255 145.736979,143.733427 145.736979,146.027646 C145.736979,147.923706 146.906218,149.026644 149.238476,149.328997 L151.76377,149.649836 C152.457173,149.749731 153.199102,149.99787 153.199102,150.950966 C153.199102,151.985293 152.313551,152.613639 150.870399,152.613639 C149.095565,152.613639 148.029421,151.672631 147.920638,149.983473 L144.580004,149.983473 C144.694804,152.821208 146.861955,154.969355 150.533311,155.072486 L150.811474,155.076365 L150.811474,155.076365 Z M164.942599,155.076365 C168.345747,155.076365 170.429119,153.361944 170.429119,150.758107 C170.429119,148.640927 169.066843,147.399698 166.527329,147.081348 L164.215157,146.790016 L163.993582,146.752022 C163.430748,146.641249 162.829596,146.39791 162.829596,145.70343 C162.829596,144.977322 163.475184,144.508239 164.391663,144.508239 C165.421724,144.508239 166.066245,144.980876 166.267814,145.897533 L169.418788,145.870338 C169.238016,143.65735 167.336802,142.279255 164.507556,142.279255 C161.602588,142.279255 159.868103,143.733427 159.868103,146.027646 C159.868103,147.923706 161.037343,149.026644 163.3696,149.328997 L165.894895,149.649836 C166.588297,149.749731 167.330226,149.99787 167.330226,150.950966 C167.330226,151.985293 166.444675,152.613639 165.001523,152.613639 C163.226689,152.613639 162.160545,151.672631 162.051762,149.983473 L158.711129,149.983473 C158.825928,152.821208 160.993079,154.969355 164.664435,155.072486 L164.942599,155.076365 L164.942599,155.076365 Z M173.61742,154.898615 L176.56807,154.898615 L176.56807,142.456116 L173.61742,142.456116 L173.61742,154.898615 Z M188.457056,142.456116 L185.647362,152.027242 L185.563997,152.027242 L182.751815,142.456116 L179.535251,142.456116 L183.632566,154.898615 L187.559418,154.898615 L191.656556,142.456116 L188.457056,142.456116 Z M202.213484,144.868894 L202.213484,142.456294 L194.593697,142.456294 L194.593697,154.898793 L202.213484,154.898793 L202.213484,152.48637 L197.448184,152.48637 L197.448184,149.707071 L202.11821,149.707071 L202.11821,147.308335 L197.448184,147.308335 L197.448184,144.86925 L202.213484,144.868894 Z M211.317572,155.076365 C207.477692,155.076365 205.203771,152.892151 205.086102,149.983473 L208.426735,149.983473 C208.535518,151.672631 209.601662,152.613639 211.376496,152.613639 C212.819648,152.613639 213.705199,151.985293 213.705199,150.950966 C213.705199,149.99787 212.96327,149.749731 212.269868,149.649836 L209.744573,149.328997 C207.412316,149.026644 206.243076,147.923706 206.243076,146.027646 C206.243076,143.733427 207.977561,142.279255 210.882529,142.279255 C213.711775,142.279255 215.612989,143.65735 215.793761,145.870338 L212.642787,145.897533 C212.441218,144.980876 211.796697,144.508239 210.766636,144.508239 C209.850157,144.508239 209.204569,144.977322 209.204569,145.70343 C209.204569,146.490507 209.976715,146.698119 210.59013,146.790016 L212.902302,147.081348 C215.441816,147.399698 216.804092,148.640927 216.804092,150.758107 C216.804092,153.293422 214.828929,154.985488 211.583485,155.072816 L211.317572,155.076365 L211.317572,155.076365 Z" id="EDUCATEDPROGRESSIVES" fill="#F8D705" fill-rule="nonzero" transform="translate(138.775400, 137.177454) rotate(-17.000000) translate(-138.775400, -137.177454) "></path>
                </g>
            </g>
        </g>
    </g>
</svg>