<?xml version="1.0" encoding="utf-8"?>
<!-- Generator: Adobe Illustrator 24.0.3, SVG Export Plug-In . SVG Version: 6.00 Build 0)  -->
<svg version="1.1" id="Layer_1" xmlns="http://www.w3.org/2000/svg" xmlns:xlink="http://www.w3.org/1999/xlink" x="0px" y="0px"
	 viewBox="0 0 888 54" style="enable-background:new 0 0 888 54;" xml:space="preserve">
<style type="text/css">
	.st0{fill:none;stroke:#FFFFFF;}
	.st1{fill:#FFFFFF;}
</style>
<g>
	<path class="st0" d="M29.8,17.7H13.5v-7.3h41.4v7.3H38.4v27.8h-8.6C29.8,45.5,29.8,17.7,29.8,17.7z"/>
	<path class="st0" d="M58.8,10.4h8.6v13.2h22.2V10.4h8.6v35.2h-8.6V30.9H67.4v14.6h-8.6C58.8,45.5,58.8,10.4,58.8,10.4z"/>
	<path class="st0" d="M106,10.4h34.3v7.3h-25.6v6.5h25.2v6.9h-25.2v7.1h25.6v7.3H106V10.4z"/>
</g>
<g>
	<path class="st1" d="M177.5,17.8l-17.3,10.9v-8.6l20.3-9.7h5.6v35.2h-8.6V17.8z"/>
	<path class="st1" d="M192.5,28c0-11.1,8.5-18.4,22.2-18.4c13.8,0,22.3,7.3,22.3,18.4s-8.5,18.4-22.3,18.4
		C201,46.4,192.5,39,192.5,28z M228.3,28c0-7.1-5.2-11.1-13.6-11.1c-8.4,0-13.6,3.9-13.6,11.1c0,7.1,5.2,11.1,13.6,11.1
		C223.1,39,228.3,35.1,228.3,28z"/>
	<path class="st1" d="M240.4,28c0-11.1,8.5-18.4,22.2-18.4c13.8,0,22.3,7.3,22.3,18.4s-8.5,18.4-22.3,18.4
		C248.9,46.4,240.4,39,240.4,28z M276.2,28c0-7.1-5.2-11.1-13.6-11.1S249,20.8,249,28c0,7.1,5.2,11.1,13.6,11.1
		C271,39,276.2,35.1,276.2,28z"/>
	<path class="st1" d="M306.3,10.4h7.7l14.5,22.8l14.4-22.8h7.7v35.2H342V25.3l-12.7,20.3h-1.7l-12.7-20.3v20.3h-8.6L306.3,10.4
		L306.3,10.4z"/>
	<path class="st1" d="M358.4,10.4h8.6v35.2h-8.6V10.4z"/>
	<path class="st1" d="M374.7,10.4h8.6v27.8h23.4v7.3h-32V10.4z"/>
	<path class="st1" d="M410.2,10.4h8.6v27.8h23.4v7.3h-32V10.4z"/>
	<path class="st1" d="M445.6,10.4h8.6v35.2h-8.6V10.4z"/>
	<path class="st1" d="M460.1,28c0-11.1,8.5-18.4,22.2-18.4c13.8,0,22.3,7.3,22.3,18.4s-8.5,18.4-22.3,18.4
		C468.6,46.4,460.1,39,460.1,28z M495.9,28c0-7.1-5.2-11.1-13.6-11.1s-13.6,3.9-13.6,11.1c0,7.1,5.2,11.1,13.6,11.1
		C490.8,39,495.9,35.1,495.9,28z"/>
	<path class="st1" d="M510.4,10.4h7.2l24.7,22.4V10.4h8.6v35.2h-7.3L519,23.2v22.4h-8.6V10.4z"/>
</g>
<g>
	<path class="st0" d="M571.2,10.4h25.5c7.3,0,11.8,4.9,11.8,10.8c0,7.1-5,10.7-11.8,10.7h-16.8v13.7h-8.6V10.4H571.2z M595.4,24.8
		c3,0,4.4-1.1,4.4-3.7s-1.4-3.8-4.4-3.8h-15.6v7.4h15.6V24.8z"/>
	<path class="st0" d="M613.2,10.4h28c7.3,0,11.3,3.9,11.3,9.3c0,5.6-4.5,8.8-11.3,8.8h-3.6c8.4,0.6,12,5.6,17.8,17H645
		c-6.4-11.6-8.1-14.5-14-14.5h-9.1l0.1,14.6h-8.6V10.4H613.2z M639.5,24.3c3.1,0,4.4-1.1,4.4-3.3c0-2.5-1.4-3.6-4.4-3.6h-17.7
		l0.1,6.9H639.5z"/>
	<path class="st0" d="M656.4,28c0-11.1,8.5-18.4,22.2-18.4c13.8,0,22.3,7.3,22.3,18.4s-8.5,18.4-22.3,18.4
		C664.9,46.4,656.4,39,656.4,28z M692.3,28c0-7.1-5.2-11.1-13.6-11.1c-8.4,0-13.6,3.9-13.6,11.1c0,7.1,5.2,11.1,13.6,11.1
		C687.1,39,692.3,35.1,692.3,28z"/>
	<path class="st0" d="M705.7,28.5h8.7c0,7.7,3,10.5,8.5,10.5s8.5-2.8,8.5-10.5V17.7h-21.1v-7.3h29.8v18.1c0,13.1-6.9,17.8-17.2,17.8
		C712.6,46.4,705.7,41.6,705.7,28.5z"/>
	<path class="st0" d="M748.1,10.4h34.3v7.3h-25.6v6.5H782v6.9h-25.2v7.1h25.6v7.3h-34.3V10.4z"/>
	<path class="st0" d="M787.8,28c0-11.1,8.5-18.4,21.2-18.4s21.2,6.4,21.2,16.1h-8.7c-0.4-5.8-5.4-8.8-12.5-8.8
		c-7.5,0-12.6,3.9-12.6,11.1c0,7.1,5,11.1,12.6,11.1c7.1,0,12.1-3.1,12.5-8.8h8.7c0,9.7-8.5,16.1-21.2,16.1S787.8,39,787.8,28z"/>
	<path class="st0" d="M846.9,17.7h-16.3v-7.3H872v7.3h-16.4v27.8H847V17.7H846.9z"/>
</g>
</svg>
